{"glyphs":{"0":{"ha":713,"x_min":56,"x_max":656,"o":"m 356 -17 q 136 102 217 -17 q 56 446 56 221 q 136 785 56 671 q 356 900 217 900 q 575 785 494 900 q 656 446 656 669 q 575 102 656 221 q 356 -17 494 -17 m 356 108 q 415 126 388 108 q 461 183 442 143 q 492 288 481 224 q 503 446 503 351 q 492 602 503 539 q 461 704 481 665 q 415 759 442 743 q 356 775 388 775 q 297 759 324 775 q 250 704 269 743 q 219 602 231 665 q 208 446 208 539 q 219 288 208 351 q 250 183 231 224 q 297 126 269 143 q 356 108 324 108 z "},"1":{"ha":713,"x_min":103,"x_max":635,"o":"m 103 0 l 103 131 l 300 131 l 300 711 l 138 711 l 138 811 q 252 841 204 824 q 342 883 300 858 l 461 883 l 461 131 l 635 131 l 635 0 l 103 0 z "},"2":{"ha":713,"x_min":46,"x_max":650,"o":"m 53 0 l 53 93 q 219 257 144 182 q 345 396 293 332 q 425 515 397 460 q 453 621 453 571 q 415 733 453 692 q 307 774 378 774 q 213 744 256 774 q 135 675 171 715 l 46 764 q 172 865 107 829 q 328 900 236 900 q 443 881 392 900 q 531 826 494 861 q 587 740 567 790 q 607 629 607 690 q 581 510 607 571 q 512 388 556 450 q 410 261 468 326 q 286 126 351 196 q 361 133 321 129 q 433 136 401 136 l 650 136 l 650 0 l 53 0 z "},"3":{"ha":713,"x_min":33,"x_max":643,"o":"m 333 -17 q 153 19 225 -17 q 33 108 81 56 l 110 211 q 201 142 150 171 q 319 114 253 114 q 437 149 392 114 q 482 247 482 185 q 469 310 482 282 q 427 357 457 338 q 347 387 397 376 q 222 397 297 397 l 222 514 q 331 524 288 514 q 402 553 375 535 q 441 599 429 572 q 453 656 453 625 q 418 742 453 711 q 322 774 383 774 q 227 751 269 774 q 144 690 185 728 l 63 789 q 184 869 119 839 q 328 900 249 900 q 444 885 392 900 q 535 840 497 869 q 593 766 572 810 q 614 667 614 722 q 573 542 614 592 q 460 464 532 492 l 460 458 q 591 382 539 438 q 643 239 643 326 q 619 131 643 178 q 552 51 594 83 q 453 1 510 18 q 333 -17 397 -17 z "},"4":{"ha":713,"x_min":25,"x_max":676,"o":"m 415 0 l 415 228 l 25 228 l 25 336 l 375 883 l 565 883 l 565 351 l 676 351 l 676 228 l 565 228 l 565 0 l 415 0 m 183 351 l 415 351 l 415 551 q 417 643 415 590 q 422 735 419 696 l 417 735 q 382 667 400 700 q 344 597 364 633 l 183 351 z "},"5":{"ha":713,"x_min":33,"x_max":646,"o":"m 335 -17 q 155 20 228 -17 q 33 106 82 57 l 107 208 q 197 142 147 171 q 314 114 247 114 q 437 158 389 114 q 485 283 485 203 q 440 406 485 363 q 322 449 396 449 q 250 437 279 449 q 181 399 221 425 l 104 447 l 131 883 l 603 883 l 603 749 l 269 749 l 251 535 q 306 556 279 549 q 368 564 333 564 q 476 547 425 564 q 564 497 526 531 q 624 410 601 463 q 646 288 646 358 q 620 158 646 215 q 551 63 594 101 q 452 3 508 24 q 335 -17 396 -17 z "},"6":{"ha":713,"x_min":61,"x_max":660,"o":"m 382 -17 q 258 9 317 -17 q 156 88 200 35 q 87 222 113 140 q 61 415 61 304 q 90 636 61 544 q 167 786 119 728 q 278 872 215 844 q 408 900 340 900 q 547 871 489 900 q 644 800 604 842 l 558 703 q 497 751 535 732 q 418 769 458 769 q 340 753 376 769 q 275 698 303 736 q 230 597 247 660 q 210 443 213 535 q 301 519 249 492 q 401 547 353 547 q 506 531 458 547 q 588 480 554 514 q 641 394 622 446 q 660 274 660 343 q 638 153 660 207 q 578 63 615 100 q 490 4 540 25 q 382 -17 439 -17 m 379 106 q 473 149 435 106 q 511 274 511 192 q 475 392 511 353 q 372 431 439 431 q 293 408 335 431 q 214 329 251 385 q 270 158 226 211 q 379 106 314 106 z "},"7":{"ha":713,"x_min":61,"x_max":654,"o":"m 233 0 q 254 216 239 118 q 298 403 269 314 q 371 576 326 492 q 479 749 415 660 l 61 749 l 61 883 l 654 883 l 654 786 q 528 603 576 690 q 453 426 481 517 q 413 232 425 335 q 396 0 401 129 l 233 0 z "},"8":{"ha":713,"x_min":57,"x_max":656,"o":"m 357 -17 q 237 1 292 -17 q 142 51 182 19 q 80 128 103 83 q 57 226 57 172 q 70 302 57 268 q 106 364 83 336 q 156 414 128 392 q 217 453 185 436 l 217 458 q 130 544 165 494 q 94 665 94 594 q 115 763 94 719 q 170 836 135 806 q 255 883 206 867 q 361 900 304 900 q 469 883 421 900 q 551 834 517 865 q 603 759 585 803 q 621 661 621 715 q 610 598 621 628 q 583 542 600 568 q 545 495 567 517 q 503 458 524 474 l 503 453 q 561 415 533 436 q 610 365 589 393 q 643 303 631 338 q 656 224 656 268 q 634 128 656 172 q 574 52 613 85 q 479 1 535 19 q 357 -17 424 -17 m 415 499 q 470 572 451 535 q 489 651 489 610 q 455 748 489 710 q 358 786 421 786 q 272 755 307 786 q 238 665 238 724 q 251 607 238 632 q 290 563 265 582 q 346 528 314 544 q 415 499 378 513 m 360 97 q 465 132 424 97 q 506 229 506 167 q 489 291 506 265 q 444 337 472 317 q 376 374 415 357 q 293 408 338 390 q 224 336 251 378 q 197 243 197 294 q 244 137 197 176 q 360 97 292 97 z "},"9":{"ha":713,"x_min":51,"x_max":649,"o":"m 339 453 q 420 477 378 453 q 497 556 463 501 q 440 725 485 672 q 331 778 394 778 q 238 735 276 778 q 199 611 199 692 q 235 492 199 532 q 339 453 272 453 m 301 -17 q 164 13 222 -17 q 65 83 106 42 l 151 181 q 215 133 176 151 q 293 114 253 114 q 372 131 335 114 q 436 185 408 147 q 481 286 464 224 q 501 440 499 349 q 410 365 463 392 q 308 338 357 338 q 204 354 251 338 q 123 405 157 371 q 70 490 89 439 q 51 611 51 542 q 74 731 51 678 q 133 822 96 785 q 222 880 171 860 q 329 900 272 900 q 451 874 393 900 q 553 796 510 849 q 623 662 597 743 q 649 469 649 581 q 620 249 649 340 q 544 98 592 157 q 433 11 496 39 q 301 -17 369 -17 z "}," ":{"ha":278,"x_min":0,"x_max":0,"o":""},"A":{"ha":775,"x_min":-3,"x_max":778,"o":"m 301 483 l 269 372 l 501 372 l 469 483 q 427 632 447 556 q 388 783 407 708 l 382 783 q 343 631 363 707 q 301 483 324 556 m -3 0 l 293 908 l 482 908 l 778 0 l 608 0 l 538 246 l 232 246 l 161 0 l -3 0 z "},"B":{"ha":829,"x_min":115,"x_max":778,"o":"m 115 0 l 115 908 l 406 908 q 535 897 476 908 q 638 859 594 885 q 706 790 682 833 q 731 685 731 747 q 697 564 731 619 q 604 488 664 508 l 604 482 q 728 412 679 465 q 778 267 778 358 q 751 149 778 199 q 678 65 725 99 q 568 16 632 32 q 429 0 504 0 l 115 0 m 276 533 l 392 533 q 530 568 488 533 q 572 661 572 603 q 528 756 572 728 q 394 783 483 783 l 276 783 l 276 533 m 276 125 l 413 125 q 567 162 513 125 q 621 275 621 199 q 568 380 621 347 q 413 413 515 413 l 276 413 l 276 125 z "},"C":{"ha":800,"x_min":68,"x_max":764,"o":"m 478 -17 q 317 14 392 -17 q 187 104 242 44 q 100 251 132 164 q 68 451 68 339 q 101 651 68 563 q 190 800 133 739 q 322 893 246 861 q 483 925 397 925 q 636 890 569 925 q 746 810 703 856 l 660 706 q 582 763 624 742 q 488 785 540 785 q 385 762 432 785 q 305 697 339 739 q 252 593 271 654 q 233 456 233 532 q 301 212 233 300 q 483 124 368 124 q 592 149 544 124 q 678 217 639 175 l 764 115 q 637 17 708 51 q 478 -17 565 -17 z "},"D":{"ha":868,"x_min":115,"x_max":800,"o":"m 115 0 l 115 908 l 358 908 q 683 796 567 908 q 800 458 800 683 q 770 260 800 346 q 684 116 740 174 q 548 29 628 58 q 367 0 468 0 l 115 0 m 276 131 l 347 131 q 560 210 486 131 q 635 458 635 290 q 560 701 635 625 q 347 778 485 778 l 276 778 l 276 131 z "},"E":{"ha":747,"x_min":115,"x_max":676,"o":"m 115 0 l 115 908 l 663 908 l 663 772 l 276 772 l 276 540 l 603 540 l 603 404 l 276 404 l 276 136 l 676 136 l 676 0 l 115 0 z "},"F":{"ha":708,"x_min":115,"x_max":664,"o":"m 115 0 l 115 908 l 664 908 l 664 772 l 276 772 l 276 515 l 607 515 l 607 379 l 276 379 l 276 0 l 115 0 z "},"G":{"ha":872,"x_min":68,"x_max":786,"o":"m 496 -17 q 326 14 404 -17 q 190 104 247 44 q 100 251 132 164 q 68 451 68 339 q 101 651 68 563 q 192 800 135 739 q 328 893 250 861 q 497 925 407 925 q 662 890 594 925 q 772 810 729 854 l 686 706 q 609 762 651 739 q 503 785 567 785 q 392 762 442 785 q 308 697 343 739 q 253 593 272 654 q 233 456 233 532 q 303 212 233 300 q 511 124 374 124 q 585 134 550 124 q 642 164 619 144 l 642 360 l 469 360 l 469 492 l 786 492 l 786 92 q 665 15 740 46 q 496 -17 589 -17 z "},"H":{"ha":921,"x_min":115,"x_max":806,"o":"m 115 0 l 115 908 l 276 908 l 276 543 l 644 543 l 644 908 l 806 908 l 806 0 l 644 0 l 644 403 l 276 403 l 276 0 l 115 0 z "},"I":{"ha":392,"x_min":115,"x_max":276,"o":"m 115 0 l 115 908 l 276 908 l 276 0 l 115 0 z "},"J":{"ha":686,"x_min":33,"x_max":575,"o":"m 304 -17 q 142 22 208 -17 q 33 138 76 61 l 144 219 q 208 147 172 169 q 286 124 244 124 q 382 163 350 124 q 414 299 414 201 l 414 908 l 575 908 l 575 285 q 560 167 575 222 q 511 72 544 113 q 426 7 478 31 q 304 -17 375 -17 z "},"K":{"ha":829,"x_min":115,"x_max":831,"o":"m 115 0 l 115 908 l 276 908 l 276 496 l 281 496 l 604 908 l 783 908 l 504 554 l 831 0 l 653 0 l 407 428 l 276 265 l 276 0 l 115 0 z "},"L":{"ha":697,"x_min":115,"x_max":654,"o":"m 115 0 l 115 908 l 276 908 l 276 136 l 654 136 l 654 0 l 115 0 z "},"M":{"ha":1035,"x_min":115,"x_max":919,"o":"m 115 0 l 115 908 l 297 908 l 458 464 q 488 376 474 421 q 517 286 501 331 l 522 286 q 551 376 538 331 q 579 464 564 421 l 736 908 l 919 908 l 919 0 l 771 0 l 771 415 q 773 485 771 447 q 778 560 775 522 q 785 635 781 599 q 792 704 789 672 l 786 704 l 713 493 l 564 85 l 468 85 l 318 493 l 246 704 l 240 704 q 247 635 243 672 q 253 560 250 599 q 259 485 257 522 q 261 415 261 447 l 261 0 l 115 0 z "},"N":{"ha":911,"x_min":115,"x_max":796,"o":"m 115 0 l 115 908 l 281 908 l 564 397 l 657 204 l 663 204 q 649 356 657 275 q 642 514 642 438 l 642 908 l 796 908 l 796 0 l 631 0 l 347 511 l 254 704 l 249 704 q 262 553 254 632 q 269 397 269 474 l 269 0 l 115 0 z "},"O":{"ha":936,"x_min":68,"x_max":869,"o":"m 468 -17 q 306 16 379 -17 q 179 110 232 49 q 97 260 126 172 q 68 458 68 347 q 97 655 68 568 q 179 801 126 742 q 306 893 232 861 q 468 925 379 925 q 631 893 557 925 q 758 801 704 861 q 840 655 811 742 q 869 458 869 568 q 840 260 869 347 q 758 110 811 172 q 631 16 704 49 q 468 -17 557 -17 m 468 124 q 565 147 522 124 q 639 215 608 171 q 686 320 669 258 q 703 458 703 382 q 640 698 703 611 q 468 785 576 785 q 297 698 360 785 q 233 458 233 611 q 250 320 233 382 q 297 215 267 258 q 371 147 328 171 q 468 124 414 124 z "},"P":{"ha":808,"x_min":115,"x_max":753,"o":"m 115 0 l 115 908 l 401 908 q 541 894 476 908 q 653 847 606 881 q 726 760 700 814 q 753 628 753 707 q 726 497 753 553 q 653 405 700 442 q 544 351 607 368 q 407 333 481 333 l 276 333 l 276 0 l 115 0 m 276 463 l 394 463 q 594 628 594 463 q 542 747 594 714 q 389 779 490 779 l 276 779 l 276 463 z "},"Q":{"ha":936,"x_min":68,"x_max":903,"o":"m 468 115 q 565 139 522 115 q 639 207 608 163 q 686 315 669 251 q 703 458 703 379 q 640 698 703 611 q 468 785 576 785 q 297 698 360 785 q 233 458 233 611 q 250 315 233 379 q 297 207 267 251 q 371 139 328 163 q 468 115 414 115 m 757 -242 q 529 -176 621 -242 q 393 -10 438 -111 q 260 41 319 3 q 157 139 200 79 q 91 279 114 199 q 68 458 68 360 q 97 655 68 568 q 179 801 126 742 q 306 893 232 861 q 468 925 379 925 q 631 893 557 925 q 758 801 704 861 q 840 655 811 742 q 869 458 869 568 q 848 285 869 364 q 786 147 826 207 q 690 49 746 88 q 564 -6 633 10 q 652 -85 596 -60 q 775 -110 708 -110 q 830 -106 806 -110 q 874 -96 854 -103 l 903 -215 q 842 -234 879 -226 q 757 -242 804 -242 z "},"R":{"ha":822,"x_min":115,"x_max":792,"o":"m 115 0 l 115 908 l 422 908 q 554 894 493 908 q 660 849 615 881 q 730 767 704 818 q 756 639 756 715 q 706 471 756 535 q 575 379 657 407 l 792 0 l 611 0 l 415 356 l 276 356 l 276 0 l 115 0 m 276 483 l 406 483 q 548 522 499 483 q 597 639 597 561 q 548 749 597 718 q 406 779 499 779 l 276 779 l 276 483 z "},"S":{"ha":757,"x_min":53,"x_max":707,"o":"m 381 -17 q 203 18 289 -17 q 53 117 118 53 l 147 226 q 258 152 196 181 q 383 124 321 124 q 501 156 461 124 q 542 240 542 188 q 531 288 542 268 q 502 322 521 307 q 458 349 483 336 q 401 374 432 361 l 276 428 q 210 463 243 442 q 151 513 178 483 q 109 581 125 542 q 93 669 93 619 q 116 770 93 724 q 179 851 139 817 q 276 906 219 886 q 399 925 332 925 q 551 894 478 925 q 678 810 625 863 l 596 707 q 504 764 551 743 q 399 785 457 785 q 294 756 333 785 q 256 678 256 728 q 267 633 256 651 q 299 599 279 614 q 346 573 319 585 q 400 550 372 561 l 524 499 q 597 460 564 482 q 655 408 631 438 q 693 341 679 379 q 707 253 707 303 q 685 149 707 197 q 620 63 663 100 q 517 5 578 26 q 381 -17 457 -17 z "},"T":{"ha":758,"x_min":36,"x_max":722,"o":"m 299 0 l 299 772 l 36 772 l 36 908 l 722 908 l 722 772 l 460 772 l 460 0 l 299 0 z "},"U":{"ha":910,"x_min":111,"x_max":799,"o":"m 456 -17 q 313 6 376 -17 q 205 79 250 29 q 135 208 160 129 q 111 399 111 286 l 111 908 l 272 908 l 272 386 q 285 262 272 313 q 323 181 299 211 q 381 137 347 150 q 456 124 414 124 q 532 137 497 124 q 592 181 567 150 q 631 262 617 211 q 644 386 644 313 l 644 908 l 799 908 l 799 399 q 775 208 799 286 q 706 79 751 129 q 598 6 661 29 q 456 -17 535 -17 z "},"V":{"ha":744,"x_min":-6,"x_max":750,"o":"m 278 0 l -6 908 l 165 908 l 293 451 q 333 304 315 374 q 374 156 350 235 l 379 156 q 420 304 403 235 q 458 451 438 374 l 585 908 l 750 908 l 468 0 l 278 0 z "},"W":{"ha":1111,"x_min":25,"x_max":1085,"o":"m 206 0 l 25 908 l 190 908 l 269 450 q 292 304 281 376 q 314 160 303 232 l 319 160 q 349 305 335 232 q 379 450 364 378 l 490 908 l 631 908 l 742 450 q 772 306 757 379 q 803 160 788 233 l 808 160 q 830 306 819 233 q 851 450 840 378 l 931 908 l 1085 908 l 911 0 l 711 0 l 599 478 q 577 583 588 531 q 558 688 567 635 l 553 688 q 533 583 543 635 q 511 478 522 531 l 401 0 l 206 0 z "},"X":{"ha":751,"x_min":18,"x_max":733,"o":"m 18 0 l 276 468 l 35 908 l 214 908 l 314 707 q 347 642 331 675 q 383 568 363 608 l 389 568 q 420 642 406 608 q 450 707 435 675 l 546 908 l 717 908 l 475 461 l 733 0 l 554 0 l 443 214 q 408 285 425 250 q 369 363 390 321 l 364 363 q 330 285 346 321 q 297 214 314 250 l 189 0 l 18 0 z "},"Y":{"ha":696,"x_min":-6,"x_max":701,"o":"m 267 0 l 267 338 l -6 908 l 167 908 l 265 676 q 304 577 285 625 q 346 476 324 529 l 351 476 q 394 577 374 529 q 435 676 415 625 l 533 908 l 701 908 l 428 338 l 428 0 l 267 0 z "},"Z":{"ha":750,"x_min":56,"x_max":697,"o":"m 56 0 l 56 97 l 494 772 l 96 772 l 96 908 l 694 908 l 694 811 l 254 136 l 697 136 l 697 0 l 56 0 z "},"a":{"ha":717,"x_min":65,"x_max":626,"o":"m 267 -17 q 121 38 176 -17 q 65 183 65 93 q 88 280 65 238 q 160 353 111 322 q 285 404 210 383 q 467 436 361 425 q 459 487 465 463 q 438 530 453 511 q 400 559 424 549 q 342 569 376 569 q 244 550 292 569 q 150 503 196 531 l 92 610 q 219 672 149 646 q 372 699 290 699 q 563 623 500 699 q 626 404 626 547 l 626 0 l 494 0 l 483 75 l 478 75 q 380 10 432 36 q 267 -17 328 -17 m 318 108 q 394 128 360 108 q 467 183 428 147 l 467 336 q 350 314 397 328 q 274 283 303 300 q 232 243 244 265 q 219 196 219 221 q 247 129 219 150 q 318 108 275 108 z "},"b":{"ha":782,"x_min":101,"x_max":724,"o":"m 432 -17 q 337 6 385 -17 q 246 72 289 29 l 242 72 l 228 0 l 101 0 l 101 981 l 261 981 l 261 728 l 257 614 q 351 675 300 651 q 454 699 401 699 q 568 674 518 699 q 653 605 618 650 q 706 496 688 560 q 724 353 724 432 q 699 197 724 265 q 635 81 675 128 q 542 8 594 33 q 432 -17 489 -17 m 399 115 q 513 174 467 115 q 558 350 558 233 q 524 510 558 453 q 411 567 489 567 q 261 490 339 567 l 261 172 q 333 128 297 140 q 399 115 368 115 z "},"c":{"ha":642,"x_min":57,"x_max":608,"o":"m 386 -17 q 256 7 317 -17 q 151 76 196 31 q 82 189 107 122 q 57 340 57 256 q 85 492 57 425 q 160 604 113 558 q 269 674 207 650 q 399 699 331 699 q 513 676 465 699 q 599 622 561 654 l 521 518 q 466 555 493 542 q 407 568 439 568 q 272 506 324 568 q 221 340 221 444 q 272 176 221 238 q 403 114 322 114 q 478 131 443 114 q 543 172 514 149 l 608 67 q 502 4 560 25 q 386 -17 444 -17 z "},"d":{"ha":783,"x_min":60,"x_max":682,"o":"m 340 -17 q 135 77 211 -17 q 60 340 60 171 q 84 490 60 424 q 149 603 108 557 q 241 674 189 649 q 349 699 293 699 q 447 678 407 699 q 528 624 488 658 l 522 733 l 522 981 l 682 981 l 682 0 l 550 0 l 539 74 l 533 74 q 446 10 496 36 q 340 -17 396 -17 m 379 115 q 522 192 456 115 l 522 510 q 452 554 486 542 q 383 567 418 567 q 271 508 317 567 q 225 342 225 450 q 265 173 225 231 q 379 115 304 115 z "},"e":{"ha":704,"x_min":57,"x_max":653,"o":"m 393 -17 q 261 8 322 -17 q 154 78 200 32 q 83 190 108 124 q 57 340 57 256 q 83 490 57 424 q 153 603 110 557 q 254 674 197 649 q 371 699 311 699 q 493 675 440 699 q 581 608 546 651 q 635 506 617 565 q 653 375 653 446 q 651 331 653 351 q 646 297 649 310 l 213 297 q 277 156 224 206 q 414 107 331 107 q 497 120 458 107 q 572 157 535 133 l 626 57 q 518 4 578 25 q 393 -17 458 -17 m 211 406 l 514 406 q 480 530 514 485 q 375 575 446 575 q 268 532 314 575 q 211 406 222 489 z "},"f":{"ha":440,"x_min":38,"x_max":481,"o":"m 129 0 l 129 556 l 38 556 l 38 675 l 129 682 l 129 753 q 142 851 129 806 q 182 928 154 896 q 252 979 210 961 q 356 997 294 997 q 424 990 392 997 q 481 974 457 983 l 450 854 q 375 871 413 871 q 289 756 289 871 l 289 682 l 422 682 l 422 556 l 289 556 l 289 0 l 129 0 z "},"g":{"ha":722,"x_min":56,"x_max":703,"o":"m 339 -301 q 226 -290 278 -301 q 136 -257 174 -279 q 77 -201 99 -235 q 56 -124 56 -168 q 81 -44 56 -81 q 153 22 106 -7 l 153 28 q 109 72 126 44 q 92 142 92 100 q 115 215 92 182 q 167 268 138 247 l 167 274 q 105 347 132 300 q 78 454 78 393 q 100 558 78 513 q 159 635 122 604 q 244 683 196 667 q 347 699 293 699 q 401 694 375 699 q 447 682 426 689 l 692 682 l 692 564 l 567 564 q 594 515 583 544 q 606 449 606 485 q 585 349 606 392 q 531 276 565 306 q 449 232 496 247 q 347 217 401 217 q 301 221 325 217 q 254 235 278 225 q 230 207 239 221 q 221 169 221 193 q 245 124 221 140 q 332 107 269 107 l 453 107 q 640 67 576 107 q 703 -61 703 28 q 677 -156 703 -111 q 604 -232 651 -200 q 490 -283 557 -264 q 339 -301 422 -301 m 347 317 q 431 352 396 317 q 465 454 465 388 q 431 553 465 518 q 347 589 397 589 q 263 554 297 589 q 228 454 228 519 q 263 352 228 388 q 347 317 297 317 m 364 -197 q 498 -165 447 -197 q 549 -87 549 -132 q 517 -33 549 -47 q 428 -19 486 -19 l 335 -19 q 242 -10 279 -19 q 189 -100 189 -50 q 235 -172 189 -146 q 364 -197 282 -197 z "},"h":{"ha":775,"x_min":101,"x_max":683,"o":"m 101 0 l 101 981 l 261 981 l 261 728 l 256 596 q 351 667 299 636 q 474 699 403 699 q 633 628 583 699 q 683 428 683 558 l 683 0 l 524 0 l 524 407 q 499 526 524 492 q 417 561 474 561 q 338 540 372 561 q 261 476 304 518 l 261 0 l 101 0 z "},"i":{"ha":364,"x_min":83,"x_max":281,"o":"m 101 0 l 101 682 l 261 682 l 261 0 l 101 0 m 182 801 q 111 826 139 801 q 83 892 83 851 q 111 958 83 932 q 182 983 139 983 q 253 958 225 983 q 281 892 281 932 q 253 826 281 851 q 182 801 225 801 z "},"j":{"ha":365,"x_min":-64,"x_max":283,"o":"m 47 -286 q -17 -281 10 -286 q -64 -268 -44 -275 l -33 -149 q -5 -156 -19 -153 q 25 -160 10 -160 q 87 -128 71 -160 q 103 -37 103 -97 l 103 682 l 264 682 l 264 -35 q 253 -135 264 -89 q 216 -215 242 -181 q 149 -267 190 -249 q 47 -286 107 -286 m 183 801 q 113 826 142 801 q 85 892 85 851 q 113 958 85 932 q 183 983 142 983 q 255 958 226 983 q 283 892 283 932 q 255 826 283 851 q 183 801 226 801 z "},"k":{"ha":725,"x_min":101,"x_max":714,"o":"m 101 0 l 101 981 l 258 981 l 258 368 l 263 368 l 515 682 l 690 682 l 457 404 l 714 0 l 540 0 l 365 296 l 258 174 l 258 0 l 101 0 z "},"l":{"ha":376,"x_min":101,"x_max":342,"o":"m 257 -17 q 136 35 171 -17 q 101 175 101 86 l 101 981 l 261 981 l 261 167 q 272 126 261 138 q 296 114 283 114 q 306 114 301 114 q 321 117 311 114 l 342 -3 q 257 -17 310 -17 z "},"m":{"ha":1171,"x_min":101,"x_max":1078,"o":"m 101 0 l 101 682 l 233 682 l 244 589 l 250 589 q 344 667 293 635 q 458 699 394 699 q 578 667 533 699 q 647 576 624 635 q 749 664 696 629 q 867 699 801 699 q 1026 628 975 699 q 1078 428 1078 558 l 1078 0 l 917 0 l 917 407 q 891 526 917 492 q 813 561 865 561 q 669 476 749 561 l 669 0 l 510 0 l 510 407 q 484 526 510 492 q 404 561 458 561 q 261 476 340 561 l 261 0 l 101 0 z "},"n":{"ha":778,"x_min":101,"x_max":683,"o":"m 101 0 l 101 682 l 233 682 l 244 590 l 250 590 q 349 667 296 635 q 474 699 403 699 q 633 628 583 699 q 683 428 683 558 l 683 0 l 524 0 l 524 407 q 499 526 524 492 q 417 561 474 561 q 338 540 372 561 q 261 476 304 518 l 261 0 l 101 0 z "},"o":{"ha":763,"x_min":57,"x_max":706,"o":"m 381 -17 q 258 7 317 -17 q 155 76 200 31 q 83 189 110 122 q 57 340 57 256 q 83 492 57 425 q 155 604 110 558 q 258 674 200 650 q 381 699 317 699 q 503 674 444 699 q 607 604 563 650 q 678 492 651 558 q 706 340 706 425 q 678 189 706 256 q 607 76 651 122 q 503 7 563 31 q 381 -17 444 -17 m 381 114 q 499 176 456 114 q 542 340 542 238 q 499 506 542 444 q 381 568 456 568 q 263 506 306 568 q 221 340 221 444 q 263 176 221 238 q 381 114 306 114 z "},"p":{"ha":783,"x_min":101,"x_max":724,"o":"m 101 -269 l 101 682 l 233 682 l 244 610 l 250 610 q 346 672 293 646 q 456 699 399 699 q 569 674 519 699 q 653 604 618 650 q 706 494 688 558 q 724 351 724 431 q 699 195 724 264 q 635 80 675 126 q 542 8 594 33 q 432 -17 489 -17 q 343 3 388 -17 q 257 58 299 22 l 261 -56 l 261 -269 l 101 -269 m 399 115 q 513 174 467 115 q 558 350 558 233 q 524 510 558 453 q 411 567 489 567 q 261 490 339 567 l 261 172 q 333 128 299 140 q 399 115 368 115 z "},"q":{"ha":783,"x_min":60,"x_max":682,"o":"m 522 -269 l 522 -46 l 528 68 q 442 8 490 32 q 340 -17 393 -17 q 135 77 211 -17 q 60 340 60 171 q 84 490 60 424 q 149 603 108 557 q 241 674 189 649 q 349 699 293 699 q 451 678 407 699 q 538 617 494 658 l 542 617 l 556 682 l 682 682 l 682 -269 l 522 -269 m 379 115 q 522 192 456 115 l 522 510 q 452 554 486 542 q 383 567 418 567 q 271 508 317 567 q 225 342 225 450 q 265 173 225 231 q 379 115 304 115 z "},"r":{"ha":518,"x_min":101,"x_max":521,"o":"m 101 0 l 101 682 l 233 682 l 244 561 l 250 561 q 338 663 286 628 q 443 699 389 699 q 521 685 492 699 l 493 546 q 460 554 475 551 q 422 557 444 557 q 338 526 382 557 q 261 417 293 494 l 261 0 l 101 0 z "},"s":{"ha":599,"x_min":33,"x_max":557,"o":"m 292 -17 q 152 10 221 -17 q 33 78 83 38 l 108 181 q 199 124 154 144 q 297 104 244 104 q 379 127 353 104 q 406 186 406 150 q 393 223 406 207 q 360 251 381 239 q 313 274 339 264 q 260 296 286 285 q 192 325 226 308 q 130 365 157 342 q 85 420 103 389 q 68 494 68 451 q 135 642 68 585 q 317 699 201 699 q 444 674 388 699 q 543 617 501 649 l 469 519 q 397 562 433 546 q 319 578 360 578 q 244 556 268 578 q 219 503 219 535 q 231 467 219 482 q 263 442 243 453 q 308 421 282 431 q 361 401 333 411 q 431 373 396 389 q 494 333 465 357 q 540 276 522 310 q 557 194 557 242 q 540 112 557 150 q 489 45 522 74 q 406 0 456 17 q 292 -17 356 -17 z "},"t":{"ha":501,"x_min":28,"x_max":481,"o":"m 342 -17 q 241 1 282 -17 q 174 52 200 19 q 137 130 149 85 q 125 231 125 175 l 125 556 l 28 556 l 28 675 l 133 682 l 153 868 l 286 868 l 286 682 l 460 682 l 460 556 l 286 556 l 286 231 q 382 111 286 111 q 419 115 400 111 q 453 126 438 119 l 481 8 q 417 -9 453 -1 q 342 -17 382 -17 z "},"u":{"ha":772,"x_min":94,"x_max":671,"o":"m 304 -17 q 144 53 194 -17 q 94 254 94 124 l 94 682 l 254 682 l 254 275 q 279 156 254 190 q 360 121 304 121 q 438 143 404 121 q 511 215 472 165 l 511 682 l 671 682 l 671 0 l 540 0 l 528 100 l 524 100 q 427 15 479 47 q 304 -17 375 -17 z "},"v":{"ha":688,"x_min":17,"x_max":671,"o":"m 254 0 l 17 682 l 179 682 l 288 328 q 316 226 301 278 q 344 122 331 175 l 350 122 q 379 226 365 175 q 408 328 393 278 l 517 682 l 671 682 l 439 0 l 254 0 z "},"w":{"ha":1039,"x_min":33,"x_max":1006,"o":"m 214 0 l 33 682 l 194 682 l 276 328 q 295 231 288 279 q 313 132 303 182 l 318 132 q 338 231 328 182 q 361 328 349 279 l 450 682 l 596 682 l 686 328 q 710 231 699 279 q 732 132 721 182 l 738 132 q 756 231 747 182 q 774 328 764 279 l 856 682 l 1006 682 l 832 0 l 642 0 l 563 318 q 542 415 551 367 q 521 517 532 463 l 515 517 q 496 414 506 463 q 475 317 486 365 l 397 0 l 214 0 z "},"x":{"ha":668,"x_min":19,"x_max":649,"o":"m 19 0 l 236 356 l 33 682 l 206 682 l 282 553 q 313 495 297 525 q 344 438 329 465 l 350 438 q 376 495 363 465 q 403 553 390 525 l 468 682 l 633 682 l 432 338 l 649 0 l 476 0 l 393 135 q 359 196 376 165 q 324 256 342 226 l 318 256 q 288 197 303 226 q 258 135 274 167 l 186 0 l 19 0 z "},"y":{"ha":688,"x_min":17,"x_max":671,"o":"m 147 -281 q 99 -277 119 -281 q 58 -267 78 -274 l 88 -142 q 110 -148 97 -144 q 136 -151 124 -151 q 223 -119 190 -151 q 272 -35 256 -86 l 285 8 l 17 682 l 179 682 l 297 347 q 327 253 313 303 q 357 156 342 204 l 363 156 q 388 252 375 203 q 414 347 401 301 l 517 682 l 671 682 l 424 -31 q 378 -135 403 -89 q 320 -213 353 -181 q 245 -263 288 -246 q 147 -281 203 -281 z "},"z":{"ha":615,"x_min":47,"x_max":581,"o":"m 47 0 l 47 86 l 369 556 l 83 556 l 83 682 l 569 682 l 569 597 l 249 128 l 581 128 l 581 0 l 47 0 z "},"À":{"ha":775,"x_min":-3,"x_max":778,"o":"m 301 483 l 269 372 l 501 372 l 469 483 q 427 632 447 556 q 388 783 407 708 l 382 783 q 343 631 363 707 q 301 483 324 556 m -3 0 l 293 908 l 482 908 l 778 0 l 608 0 l 538 246 l 232 246 l 161 0 l -3 0 m 404 956 l 171 1118 l 257 1224 l 475 1036 l 404 956 z "},"Á":{"ha":775,"x_min":-3,"x_max":778,"o":"m 301 483 l 269 372 l 501 372 l 469 483 q 427 632 447 556 q 388 783 407 708 l 382 783 q 343 631 363 707 q 301 483 324 556 m -3 0 l 293 908 l 482 908 l 778 0 l 608 0 l 538 246 l 232 246 l 161 0 l -3 0 m 365 956 l 294 1036 l 513 1224 l 599 1118 l 365 956 z "},"Â":{"ha":775,"x_min":-3,"x_max":778,"o":"m 301 483 l 269 372 l 501 372 l 469 483 q 427 632 447 556 q 388 783 407 708 l 382 783 q 343 631 363 707 q 301 483 324 556 m -3 0 l 293 908 l 482 908 l 778 0 l 608 0 l 538 246 l 232 246 l 161 0 l -3 0 m 164 1007 l 299 1161 l 471 1161 l 606 1007 l 536 961 l 388 1083 l 382 1083 l 233 961 l 164 1007 z "},"Ã":{"ha":775,"x_min":-3,"x_max":778,"o":"m 301 483 l 269 372 l 501 372 l 469 483 q 427 632 447 556 q 388 783 407 708 l 382 783 q 343 631 363 707 q 301 483 324 556 m -3 0 l 293 908 l 482 908 l 778 0 l 608 0 l 538 246 l 232 246 l 161 0 l -3 0 m 486 972 q 420 986 449 972 q 369 1017 392 1000 q 328 1047 347 1033 q 288 1061 308 1061 q 249 1042 264 1061 q 229 982 233 1024 l 124 990 q 172 1129 129 1083 q 283 1175 215 1175 q 349 1161 321 1175 q 400 1131 378 1147 q 442 1100 422 1114 q 482 1086 461 1086 q 540 1167 531 1086 l 646 1158 q 597 1019 640 1065 q 486 972 554 972 z "},"Ä":{"ha":775,"x_min":-3,"x_max":778,"o":"m 301 483 l 269 372 l 501 372 l 469 483 q 427 632 447 556 q 388 783 407 708 l 382 783 q 343 631 363 707 q 301 483 324 556 m -3 0 l 293 908 l 482 908 l 778 0 l 608 0 l 538 246 l 232 246 l 161 0 l -3 0 m 236 983 q 177 1006 200 983 q 154 1065 154 1029 q 177 1125 154 1101 q 236 1149 200 1149 q 296 1125 272 1149 q 319 1065 319 1101 q 296 1006 319 1029 q 236 983 272 983 m 533 983 q 474 1006 497 983 q 450 1065 450 1029 q 474 1125 450 1101 q 533 1149 497 1149 q 592 1125 569 1149 q 615 1065 615 1101 q 592 1006 615 1029 q 533 983 569 983 z "},"Ā":{"ha":775,"x_min":-3,"x_max":778,"o":"m 301 483 l 269 372 l 501 372 l 469 483 q 427 632 447 556 q 388 783 407 708 l 382 783 q 343 631 363 707 q 301 483 324 556 m -3 0 l 293 908 l 482 908 l 778 0 l 608 0 l 538 246 l 232 246 l 161 0 l -3 0 m 186 1011 l 186 1117 l 583 1117 l 583 1011 l 186 1011 z "},"Ă":{"ha":775,"x_min":-3,"x_max":778,"o":"m 301 483 l 269 372 l 501 372 l 469 483 q 427 632 447 556 q 388 783 407 708 l 382 783 q 343 631 363 707 q 301 483 324 556 m -3 0 l 293 908 l 482 908 l 778 0 l 608 0 l 538 246 l 232 246 l 161 0 l -3 0 m 385 974 q 232 1024 285 974 q 169 1158 179 1075 l 261 1174 q 301 1099 269 1128 q 385 1069 332 1069 q 469 1099 438 1069 q 508 1174 500 1128 l 600 1158 q 538 1024 590 1075 q 385 974 485 974 z "},"Å":{"ha":775,"x_min":-3,"x_max":778,"o":"m 301 483 l 269 372 l 501 372 l 469 483 q 427 632 447 556 q 388 783 407 708 l 382 783 q 343 631 363 707 q 301 483 324 556 m -3 0 l 293 908 l 482 908 l 778 0 l 608 0 l 538 246 l 232 246 l 161 0 l -3 0 m 385 969 q 278 1005 319 969 q 238 1100 238 1040 q 278 1197 238 1161 q 385 1232 319 1232 q 490 1197 449 1232 q 532 1100 532 1161 q 490 1005 532 1040 q 385 969 449 969 m 385 1033 q 430 1051 411 1033 q 449 1100 449 1068 q 430 1150 449 1132 q 385 1168 411 1168 q 338 1150 357 1168 q 319 1100 319 1132 q 338 1051 319 1068 q 385 1033 357 1033 z "},"Ǎ":{"ha":775,"x_min":-3,"x_max":778,"o":"m 301 483 l 269 372 l 501 372 l 469 483 q 427 632 447 556 q 388 783 407 708 l 382 783 q 343 631 363 707 q 301 483 324 556 m -3 0 l 293 908 l 482 908 l 778 0 l 608 0 l 538 246 l 232 246 l 161 0 l -3 0 m 299 978 l 164 1133 l 233 1178 l 382 1056 l 388 1056 l 536 1178 l 606 1133 l 471 978 l 299 978 z "},"Ạ":{"ha":775,"x_min":-3,"x_max":778,"o":"m 301 483 l 269 372 l 501 372 l 469 483 q 427 632 447 556 q 388 783 407 708 l 382 783 q 343 631 363 707 q 301 483 324 556 m -3 0 l 293 908 l 482 908 l 778 0 l 608 0 l 538 246 l 232 246 l 161 0 l -3 0 m 385 -300 q 317 -274 343 -300 q 290 -208 290 -249 q 317 -143 290 -168 q 385 -118 343 -118 q 453 -143 426 -118 q 479 -208 479 -168 q 453 -274 479 -249 q 385 -300 426 -300 z "},"Ả":{"ha":775,"x_min":-3,"x_max":778,"o":"m 301 483 l 269 372 l 501 372 l 469 483 q 427 632 447 556 q 388 783 407 708 l 382 783 q 343 631 363 707 q 301 483 324 556 m -3 0 l 293 908 l 482 908 l 778 0 l 608 0 l 538 246 l 232 246 l 161 0 l -3 0 m 332 964 l 318 1032 q 367 1050 347 1039 q 388 1083 388 1061 q 361 1120 388 1107 q 275 1136 335 1133 l 293 1221 q 456 1187 404 1218 q 507 1101 507 1156 q 492 1044 507 1068 q 454 1004 478 1021 q 399 978 431 988 q 332 964 367 968 z "},"Ấ":{"ha":775,"x_min":-3,"x_max":778,"o":"m 301 483 l 269 372 l 501 372 l 469 483 q 427 632 447 556 q 388 783 407 708 l 382 783 q 343 631 363 707 q 301 483 324 556 m -3 0 l 293 908 l 482 908 l 778 0 l 608 0 l 538 246 l 232 246 l 161 0 l -3 0 m 253 961 l 189 1007 l 315 1139 l 454 1139 l 581 1007 l 517 961 l 388 1058 l 382 1058 l 253 961 m 575 1057 l 524 1114 l 660 1239 l 718 1169 l 575 1057 z "},"Ầ":{"ha":775,"x_min":-3,"x_max":778,"o":"m 301 483 l 269 372 l 501 372 l 469 483 q 427 632 447 556 q 388 783 407 708 l 382 783 q 343 631 363 707 q 301 483 324 556 m -3 0 l 293 908 l 482 908 l 778 0 l 608 0 l 538 246 l 232 246 l 161 0 l -3 0 m 253 961 l 189 1007 l 315 1139 l 454 1139 l 581 1007 l 517 961 l 388 1058 l 382 1058 l 253 961 m 246 1111 l 194 1057 l 63 1172 l 121 1239 l 246 1111 z "},"Ẩ":{"ha":775,"x_min":-3,"x_max":778,"o":"m 301 483 l 269 372 l 501 372 l 469 483 q 427 632 447 556 q 388 783 407 708 l 382 783 q 343 631 363 707 q 301 483 324 556 m -3 0 l 293 908 l 482 908 l 778 0 l 608 0 l 538 246 l 232 246 l 161 0 l -3 0 m 253 961 l 189 1007 l 315 1139 l 454 1139 l 581 1007 l 517 961 l 388 1058 l 382 1058 l 253 961 m 560 1044 l 544 1101 q 583 1117 568 1107 q 599 1146 599 1126 q 577 1181 599 1169 q 504 1194 556 1192 l 519 1267 q 661 1235 618 1263 q 704 1160 704 1207 q 662 1076 704 1103 q 560 1044 619 1050 z "},"Ẫ":{"ha":775,"x_min":-3,"x_max":778,"o":"m 301 483 l 269 372 l 501 372 l 469 483 q 427 632 447 556 q 388 783 407 708 l 382 783 q 343 631 363 707 q 301 483 324 556 m -3 0 l 293 908 l 482 908 l 778 0 l 608 0 l 538 246 l 232 246 l 161 0 l -3 0 m 253 961 l 189 1007 l 315 1131 l 454 1131 l 581 1007 l 517 961 l 388 1050 l 382 1050 l 253 961 m 178 1181 q 210 1284 181 1247 q 297 1321 239 1321 q 351 1310 328 1321 q 392 1288 374 1300 q 428 1266 411 1276 q 463 1256 444 1256 q 511 1315 503 1256 l 592 1306 q 560 1202 589 1239 q 472 1165 531 1165 q 419 1176 442 1165 q 377 1198 396 1186 q 342 1220 358 1210 q 307 1231 325 1231 q 258 1171 267 1231 l 178 1181 z "},"Ậ":{"ha":775,"x_min":-3,"x_max":778,"o":"m 301 483 l 269 372 l 501 372 l 469 483 q 427 632 447 556 q 388 783 407 708 l 382 783 q 343 631 363 707 q 301 483 324 556 m -3 0 l 293 908 l 482 908 l 778 0 l 608 0 l 538 246 l 232 246 l 161 0 l -3 0 m 164 1007 l 299 1161 l 471 1161 l 606 1007 l 536 961 l 388 1083 l 382 1083 l 233 961 l 164 1007 m 385 -300 q 317 -274 343 -300 q 290 -208 290 -249 q 317 -143 290 -168 q 385 -118 343 -118 q 453 -143 426 -118 q 479 -208 479 -168 q 453 -274 479 -249 q 385 -300 426 -300 z "},"Ắ":{"ha":775,"x_min":-3,"x_max":778,"o":"m 301 483 l 269 372 l 501 372 l 469 483 q 427 632 447 556 q 388 783 407 708 l 382 783 q 343 631 363 707 q 301 483 324 556 m -3 0 l 293 908 l 482 908 l 778 0 l 608 0 l 538 246 l 232 246 l 161 0 l -3 0 m 319 1169 l 451 1346 l 553 1281 l 399 1117 l 319 1169 m 385 974 q 232 1024 285 974 q 169 1158 179 1075 l 253 1174 q 295 1092 263 1124 q 385 1061 328 1061 q 474 1092 442 1061 q 517 1174 507 1124 l 600 1158 q 538 1024 590 1075 q 385 974 485 974 z "},"Ằ":{"ha":775,"x_min":-3,"x_max":778,"o":"m 301 483 l 269 372 l 501 372 l 469 483 q 427 632 447 556 q 388 783 407 708 l 382 783 q 343 631 363 707 q 301 483 324 556 m -3 0 l 293 908 l 482 908 l 778 0 l 608 0 l 538 246 l 232 246 l 161 0 l -3 0 m 450 1169 l 371 1117 l 217 1281 l 318 1346 l 450 1169 m 385 974 q 232 1024 285 974 q 169 1158 179 1075 l 253 1174 q 295 1092 263 1124 q 385 1061 328 1061 q 474 1092 442 1061 q 517 1174 507 1124 l 600 1158 q 538 1024 590 1075 q 385 974 485 974 z "},"Ẳ":{"ha":775,"x_min":-3,"x_max":778,"o":"m 301 483 l 269 372 l 501 372 l 469 483 q 427 632 447 556 q 388 783 407 708 l 382 783 q 343 631 363 707 q 301 483 324 556 m -3 0 l 293 908 l 482 908 l 778 0 l 608 0 l 538 246 l 232 246 l 161 0 l -3 0 m 346 1115 l 331 1172 q 369 1188 354 1178 q 385 1217 385 1197 q 363 1251 385 1240 q 290 1267 342 1263 l 306 1338 q 447 1307 404 1335 q 490 1231 490 1279 q 448 1148 490 1174 q 346 1115 406 1122 m 385 974 q 232 1024 285 974 q 169 1158 179 1075 l 253 1174 q 295 1092 263 1124 q 385 1061 328 1061 q 474 1092 442 1061 q 517 1174 507 1124 l 600 1158 q 538 1024 590 1075 q 385 974 485 974 z "},"Ẵ":{"ha":775,"x_min":-3,"x_max":778,"o":"m 301 483 l 269 372 l 501 372 l 469 483 q 427 632 447 556 q 388 783 407 708 l 382 783 q 343 631 363 707 q 301 483 324 556 m -3 0 l 293 908 l 482 908 l 778 0 l 608 0 l 538 246 l 232 246 l 161 0 l -3 0 m 385 979 q 234 1022 285 979 q 176 1131 183 1065 l 257 1144 q 294 1085 265 1111 q 385 1060 324 1060 q 475 1085 446 1060 q 513 1144 504 1111 l 593 1131 q 535 1022 586 1065 q 385 979 485 979 m 178 1189 q 210 1292 181 1256 q 297 1329 239 1329 q 351 1319 328 1329 q 392 1297 374 1308 q 428 1274 411 1285 q 463 1264 444 1264 q 511 1324 503 1264 l 592 1314 q 560 1210 589 1247 q 472 1174 531 1174 q 419 1184 442 1174 q 377 1206 396 1194 q 342 1228 358 1218 q 307 1239 325 1239 q 258 1179 267 1239 l 178 1189 z "},"Ặ":{"ha":775,"x_min":-3,"x_max":778,"o":"m 301 483 l 269 372 l 501 372 l 469 483 q 427 632 447 556 q 388 783 407 708 l 382 783 q 343 631 363 707 q 301 483 324 556 m -3 0 l 293 908 l 482 908 l 778 0 l 608 0 l 538 246 l 232 246 l 161 0 l -3 0 m 385 974 q 232 1024 285 974 q 169 1158 179 1075 l 261 1174 q 301 1099 269 1128 q 385 1069 332 1069 q 469 1099 438 1069 q 508 1174 500 1128 l 600 1158 q 538 1024 590 1075 q 385 974 485 974 m 385 -300 q 317 -274 343 -300 q 290 -208 290 -249 q 317 -143 290 -168 q 385 -118 343 -118 q 453 -143 426 -118 q 479 -208 479 -168 q 453 -274 479 -249 q 385 -300 426 -300 z "},"Ą":{"ha":775,"x_min":-3,"x_max":814,"o":"m 686 -303 q 583 -271 625 -303 q 540 -176 540 -239 q 551 -119 540 -146 q 577 -69 561 -92 q 613 -28 593 -46 q 649 0 632 -11 l 608 0 l 538 246 l 232 246 l 161 0 l -3 0 l 293 908 l 482 908 l 778 0 q 730 -21 751 -7 q 692 -53 708 -35 q 668 -94 676 -72 q 660 -136 660 -115 q 678 -180 660 -165 q 719 -194 696 -194 q 775 -175 751 -194 l 814 -258 q 754 -290 790 -278 q 686 -303 718 -303 m 301 483 l 269 372 l 501 372 l 469 483 q 427 632 447 556 q 388 783 407 708 l 382 783 q 343 631 363 707 q 301 483 324 556 z "},"Æ":{"ha":1158,"x_min":-4,"x_max":1088,"o":"m 413 508 l 342 363 l 547 363 l 547 785 l 542 785 q 476 644 508 714 q 413 508 444 575 m -4 0 l 450 908 l 1074 908 l 1074 772 l 708 772 l 708 540 l 1015 540 l 1015 404 l 708 404 l 708 136 l 1088 136 l 1088 0 l 547 0 l 547 236 l 281 236 l 165 0 l -4 0 z "},"Ǽ":{"ha":1158,"x_min":-4,"x_max":1088,"o":"m 413 508 l 342 363 l 547 363 l 547 785 l 542 785 q 476 644 508 714 q 413 508 444 575 m -4 0 l 450 908 l 1074 908 l 1074 772 l 708 772 l 708 540 l 1015 540 l 1015 404 l 708 404 l 708 136 l 1088 136 l 1088 0 l 547 0 l 547 236 l 281 236 l 165 0 l -4 0 m 744 974 l 674 1054 l 892 1242 l 978 1136 l 744 974 z "},"Ǣ":{"ha":1158,"x_min":-4,"x_max":1088,"o":"m 413 508 l 342 363 l 547 363 l 547 785 l 542 785 q 476 644 508 714 q 413 508 444 575 m -4 0 l 450 908 l 1074 908 l 1074 772 l 708 772 l 708 540 l 1015 540 l 1015 404 l 708 404 l 708 136 l 1088 136 l 1088 0 l 547 0 l 547 236 l 281 236 l 165 0 l -4 0 m 565 1029 l 565 1135 l 963 1135 l 963 1029 l 565 1029 z "},"Ƀ":{"ha":856,"x_min":39,"x_max":807,"o":"m 144 0 l 144 244 l 39 244 l 39 319 l 144 326 l 144 908 l 435 908 q 564 897 504 908 q 667 859 624 885 q 734 791 710 833 q 758 689 758 749 q 721 576 758 626 q 603 504 683 525 l 603 499 q 754 426 701 481 q 807 275 807 371 q 781 153 807 204 q 708 67 754 101 q 597 17 661 33 q 458 0 533 0 l 144 0 m 306 540 l 419 540 q 560 575 515 540 q 604 674 604 610 q 558 764 604 736 q 424 792 513 792 l 306 792 l 306 540 m 306 117 l 442 117 q 597 159 542 117 q 653 286 653 201 q 598 404 653 367 q 442 442 543 442 l 306 442 l 306 326 l 497 326 l 497 244 l 306 244 l 306 117 z "},"Ḇ":{"ha":829,"x_min":115,"x_max":778,"o":"m 115 0 l 115 908 l 406 908 q 535 897 476 908 q 638 859 594 885 q 706 790 682 833 q 731 685 731 747 q 697 564 731 619 q 604 488 664 508 l 604 482 q 728 412 679 465 q 778 267 778 358 q 751 149 778 199 q 678 65 725 99 q 568 16 632 32 q 429 0 504 0 l 115 0 m 276 533 l 392 533 q 530 568 488 533 q 572 661 572 603 q 528 756 572 728 q 394 783 483 783 l 276 783 l 276 533 m 276 125 l 413 125 q 567 162 513 125 q 621 275 621 199 q 568 380 621 347 q 413 413 515 413 l 276 413 l 276 125 m 232 -249 l 232 -143 l 621 -143 l 621 -249 l 232 -249 z "},"Ç":{"ha":800,"x_min":68,"x_max":764,"o":"m 478 -17 q 317 14 392 -17 q 187 104 242 44 q 100 251 132 164 q 68 451 68 339 q 101 651 68 563 q 190 800 133 739 q 322 893 246 861 q 483 925 397 925 q 636 890 569 925 q 746 810 703 856 l 660 706 q 582 763 624 742 q 488 785 540 785 q 385 762 432 785 q 305 697 339 739 q 252 593 271 654 q 233 456 233 532 q 301 212 233 300 q 483 124 368 124 q 592 149 544 124 q 678 217 639 175 l 764 115 q 637 17 708 51 q 478 -17 565 -17 m 350 -324 l 336 -254 q 452 -234 421 -249 q 483 -189 483 -219 q 461 -150 483 -165 q 376 -126 439 -135 l 440 4 l 538 4 l 497 -86 q 574 -122 547 -99 q 601 -187 601 -144 q 536 -286 601 -254 q 350 -324 471 -318 z "},"Ć":{"ha":800,"x_min":68,"x_max":764,"o":"m 478 -17 q 317 14 392 -17 q 187 104 242 44 q 100 251 132 164 q 68 451 68 339 q 101 651 68 563 q 190 800 133 739 q 322 893 246 861 q 483 925 397 925 q 636 890 569 925 q 746 810 703 856 l 660 706 q 582 763 624 742 q 488 785 540 785 q 385 762 432 785 q 305 697 339 739 q 252 593 271 654 q 233 456 233 532 q 301 212 233 300 q 483 124 368 124 q 592 149 544 124 q 678 217 639 175 l 764 115 q 637 17 708 51 q 478 -17 565 -17 m 449 956 l 378 1036 l 596 1224 l 682 1118 l 449 956 z "},"Ĉ":{"ha":800,"x_min":68,"x_max":764,"o":"m 478 -17 q 317 14 392 -17 q 187 104 242 44 q 100 251 132 164 q 68 451 68 339 q 101 651 68 563 q 190 800 133 739 q 322 893 246 861 q 483 925 397 925 q 636 890 569 925 q 746 810 703 856 l 660 706 q 582 763 624 742 q 488 785 540 785 q 385 762 432 785 q 305 697 339 739 q 252 593 271 654 q 233 456 233 532 q 301 212 233 300 q 483 124 368 124 q 592 149 544 124 q 678 217 639 175 l 764 115 q 637 17 708 51 q 478 -17 565 -17 m 247 1007 l 382 1161 l 554 1161 l 689 1007 l 619 961 l 471 1083 l 465 1083 l 317 961 l 247 1007 z "},"Č":{"ha":800,"x_min":68,"x_max":764,"o":"m 478 -17 q 317 14 392 -17 q 187 104 242 44 q 100 251 132 164 q 68 451 68 339 q 101 651 68 563 q 190 800 133 739 q 322 893 246 861 q 483 925 397 925 q 636 890 569 925 q 746 810 703 856 l 660 706 q 582 763 624 742 q 488 785 540 785 q 385 762 432 785 q 305 697 339 739 q 252 593 271 654 q 233 456 233 532 q 301 212 233 300 q 483 124 368 124 q 592 149 544 124 q 678 217 639 175 l 764 115 q 637 17 708 51 q 478 -17 565 -17 m 382 978 l 247 1133 l 317 1178 l 465 1056 l 471 1056 l 619 1178 l 689 1133 l 554 978 l 382 978 z "},"Ċ":{"ha":800,"x_min":68,"x_max":764,"o":"m 478 -17 q 317 14 392 -17 q 187 104 242 44 q 100 251 132 164 q 68 451 68 339 q 101 651 68 563 q 190 800 133 739 q 322 893 246 861 q 483 925 397 925 q 636 890 569 925 q 746 810 703 856 l 660 706 q 582 763 624 742 q 488 785 540 785 q 385 762 432 785 q 305 697 339 739 q 252 593 271 654 q 233 456 233 532 q 301 212 233 300 q 483 124 368 124 q 592 149 544 124 q 678 217 639 175 l 764 115 q 637 17 708 51 q 478 -17 565 -17 m 468 982 q 397 1008 425 982 q 369 1074 369 1033 q 397 1139 369 1114 q 468 1164 425 1164 q 539 1139 511 1164 q 567 1074 567 1114 q 539 1008 567 1033 q 468 982 511 982 z "},"Ď":{"ha":868,"x_min":115,"x_max":800,"o":"m 115 0 l 115 908 l 358 908 q 683 796 567 908 q 800 458 800 683 q 770 260 800 346 q 684 116 740 174 q 548 29 628 58 q 367 0 468 0 l 115 0 m 276 131 l 347 131 q 560 210 486 131 q 635 458 635 290 q 560 701 635 625 q 347 778 485 778 l 276 778 l 276 131 m 349 978 l 214 1133 l 283 1178 l 432 1056 l 438 1056 l 586 1178 l 656 1133 l 521 978 l 349 978 z "},"Ḍ":{"ha":868,"x_min":115,"x_max":800,"o":"m 115 0 l 115 908 l 358 908 q 683 796 567 908 q 800 458 800 683 q 770 260 800 346 q 684 116 740 174 q 548 29 628 58 q 367 0 468 0 l 115 0 m 276 131 l 347 131 q 560 210 486 131 q 635 458 635 290 q 560 701 635 625 q 347 778 485 778 l 276 778 l 276 131 m 428 -300 q 360 -274 386 -300 q 333 -208 333 -249 q 360 -143 333 -168 q 428 -118 386 -118 q 496 -143 469 -118 q 522 -208 522 -168 q 496 -274 522 -249 q 428 -300 469 -300 z "},"Ḏ":{"ha":868,"x_min":115,"x_max":800,"o":"m 115 0 l 115 908 l 358 908 q 683 796 567 908 q 800 458 800 683 q 770 260 800 346 q 684 116 740 174 q 548 29 628 58 q 367 0 468 0 l 115 0 m 276 131 l 347 131 q 560 210 486 131 q 635 458 635 290 q 560 701 635 625 q 347 778 485 778 l 276 778 l 276 131 m 233 -249 l 233 -143 l 622 -143 l 622 -249 l 233 -249 z "},"Đ":{"ha":901,"x_min":42,"x_max":833,"o":"m 42 432 l 42 508 l 149 514 l 149 908 l 392 908 q 717 796 600 908 q 833 458 833 683 q 803 260 833 346 q 717 116 774 174 q 581 29 661 58 q 400 0 501 0 l 149 0 l 149 432 l 42 432 m 310 131 l 381 131 q 594 210 519 131 q 668 458 668 290 q 593 701 668 625 q 381 778 518 778 l 310 778 l 310 514 l 500 514 l 500 432 l 310 432 l 310 131 z "},"È":{"ha":747,"x_min":115,"x_max":676,"o":"m 115 0 l 115 908 l 663 908 l 663 772 l 276 772 l 276 540 l 603 540 l 603 404 l 276 404 l 276 136 l 676 136 l 676 0 l 115 0 m 418 956 l 185 1118 l 271 1224 l 489 1036 l 418 956 z "},"É":{"ha":747,"x_min":115,"x_max":676,"o":"m 115 0 l 115 908 l 663 908 l 663 772 l 276 772 l 276 540 l 603 540 l 603 404 l 276 404 l 276 136 l 676 136 l 676 0 l 115 0 m 379 956 l 308 1036 l 526 1224 l 613 1118 l 379 956 z "},"Ê":{"ha":747,"x_min":115,"x_max":676,"o":"m 115 0 l 115 908 l 663 908 l 663 772 l 276 772 l 276 540 l 603 540 l 603 404 l 276 404 l 276 136 l 676 136 l 676 0 l 115 0 m 178 1007 l 313 1161 l 485 1161 l 619 1007 l 550 961 l 401 1083 l 396 1083 l 247 961 l 178 1007 z "},"Ě":{"ha":747,"x_min":115,"x_max":676,"o":"m 115 0 l 115 908 l 663 908 l 663 772 l 276 772 l 276 540 l 603 540 l 603 404 l 276 404 l 276 136 l 676 136 l 676 0 l 115 0 m 313 978 l 178 1133 l 247 1178 l 396 1056 l 401 1056 l 550 1178 l 619 1133 l 485 978 l 313 978 z "},"Ë":{"ha":747,"x_min":115,"x_max":676,"o":"m 115 0 l 115 908 l 663 908 l 663 772 l 276 772 l 276 540 l 603 540 l 603 404 l 276 404 l 276 136 l 676 136 l 676 0 l 115 0 m 250 983 q 191 1006 214 983 q 168 1065 168 1029 q 191 1125 168 1101 q 250 1149 214 1149 q 310 1125 286 1149 q 333 1065 333 1101 q 310 1006 333 1029 q 250 983 286 983 m 547 983 q 488 1006 511 983 q 464 1065 464 1029 q 488 1125 464 1101 q 547 1149 511 1149 q 606 1125 583 1149 q 629 1065 629 1101 q 606 1006 629 1029 q 547 983 583 983 z "},"Ē":{"ha":747,"x_min":115,"x_max":676,"o":"m 115 0 l 115 908 l 663 908 l 663 772 l 276 772 l 276 540 l 603 540 l 603 404 l 276 404 l 276 136 l 676 136 l 676 0 l 115 0 m 200 1011 l 200 1117 l 597 1117 l 597 1011 l 200 1011 z "},"Ĕ":{"ha":747,"x_min":115,"x_max":676,"o":"m 115 0 l 115 908 l 663 908 l 663 772 l 276 772 l 276 540 l 603 540 l 603 404 l 276 404 l 276 136 l 676 136 l 676 0 l 115 0 m 399 974 q 246 1024 299 974 q 183 1158 193 1075 l 275 1174 q 315 1099 283 1128 q 399 1069 346 1069 q 483 1099 451 1069 q 522 1174 514 1128 l 614 1158 q 551 1024 604 1075 q 399 974 499 974 z "},"Ė":{"ha":747,"x_min":115,"x_max":676,"o":"m 115 0 l 115 908 l 663 908 l 663 772 l 276 772 l 276 540 l 603 540 l 603 404 l 276 404 l 276 136 l 676 136 l 676 0 l 115 0 m 399 982 q 328 1008 356 982 q 300 1074 300 1033 q 328 1139 300 1114 q 399 1164 356 1164 q 469 1139 442 1164 q 497 1074 497 1114 q 469 1008 497 1033 q 399 982 442 982 z "},"Ẹ":{"ha":747,"x_min":115,"x_max":676,"o":"m 115 0 l 115 908 l 663 908 l 663 772 l 276 772 l 276 540 l 603 540 l 603 404 l 276 404 l 276 136 l 676 136 l 676 0 l 115 0 m 410 -300 q 342 -274 368 -300 q 315 -208 315 -249 q 342 -143 315 -168 q 410 -118 368 -118 q 478 -143 451 -118 q 504 -208 504 -168 q 478 -274 504 -249 q 410 -300 451 -300 z "},"Ẻ":{"ha":747,"x_min":115,"x_max":676,"o":"m 115 0 l 115 908 l 663 908 l 663 772 l 276 772 l 276 540 l 603 540 l 603 404 l 276 404 l 276 136 l 676 136 l 676 0 l 115 0 m 346 964 l 332 1032 q 381 1050 361 1039 q 401 1083 401 1061 q 375 1120 401 1107 q 289 1136 349 1133 l 307 1221 q 469 1187 418 1218 q 521 1101 521 1156 q 506 1044 521 1068 q 468 1004 492 1021 q 413 978 444 988 q 346 964 381 968 z "},"Ẽ":{"ha":747,"x_min":115,"x_max":676,"o":"m 115 0 l 115 908 l 663 908 l 663 772 l 276 772 l 276 540 l 603 540 l 603 404 l 276 404 l 276 136 l 676 136 l 676 0 l 115 0 m 500 972 q 434 986 463 972 q 383 1017 406 1000 q 342 1047 361 1033 q 301 1061 322 1061 q 263 1042 278 1061 q 243 982 247 1024 l 138 990 q 186 1129 143 1083 q 297 1175 229 1175 q 363 1161 335 1175 q 414 1131 392 1147 q 456 1100 436 1114 q 496 1086 475 1086 q 554 1167 544 1086 l 660 1158 q 611 1019 654 1065 q 500 972 568 972 z "},"Ế":{"ha":747,"x_min":115,"x_max":732,"o":"m 115 0 l 115 908 l 663 908 l 663 772 l 276 772 l 276 540 l 603 540 l 603 404 l 276 404 l 276 136 l 676 136 l 676 0 l 115 0 m 267 961 l 203 1007 l 329 1139 l 468 1139 l 594 1007 l 531 961 l 401 1058 l 396 1058 l 267 961 m 589 1057 l 538 1114 l 674 1239 l 732 1169 l 589 1057 z "},"Ề":{"ha":747,"x_min":76,"x_max":676,"o":"m 115 0 l 115 908 l 663 908 l 663 772 l 276 772 l 276 540 l 603 540 l 603 404 l 276 404 l 276 136 l 676 136 l 676 0 l 115 0 m 267 961 l 203 1007 l 329 1139 l 468 1139 l 594 1007 l 531 961 l 401 1058 l 396 1058 l 267 961 m 260 1111 l 208 1057 l 76 1172 l 135 1239 l 260 1111 z "},"Ể":{"ha":747,"x_min":115,"x_max":718,"o":"m 115 0 l 115 908 l 663 908 l 663 772 l 276 772 l 276 540 l 603 540 l 603 404 l 276 404 l 276 136 l 676 136 l 676 0 l 115 0 m 267 961 l 203 1007 l 329 1139 l 468 1139 l 594 1007 l 531 961 l 401 1058 l 396 1058 l 267 961 m 574 1044 l 558 1101 q 597 1117 582 1107 q 613 1146 613 1126 q 591 1181 613 1169 q 518 1194 569 1192 l 533 1267 q 675 1235 632 1263 q 718 1160 718 1207 q 676 1076 718 1103 q 574 1044 633 1050 z "},"Ễ":{"ha":747,"x_min":115,"x_max":676,"o":"m 115 0 l 115 908 l 663 908 l 663 772 l 276 772 l 276 540 l 603 540 l 603 404 l 276 404 l 276 136 l 676 136 l 676 0 l 115 0 m 267 961 l 203 1007 l 329 1131 l 468 1131 l 594 1007 l 531 961 l 401 1050 l 396 1050 l 267 961 m 192 1181 q 224 1284 194 1247 q 311 1321 253 1321 q 365 1310 342 1321 q 406 1288 388 1300 q 442 1266 425 1276 q 476 1256 458 1256 q 525 1315 517 1256 l 606 1306 q 574 1202 603 1239 q 486 1165 544 1165 q 433 1176 456 1165 q 391 1198 410 1186 q 356 1220 372 1210 q 321 1231 339 1231 q 272 1171 281 1231 l 192 1181 z "},"Ệ":{"ha":747,"x_min":115,"x_max":676,"o":"m 115 0 l 115 908 l 663 908 l 663 772 l 276 772 l 276 540 l 603 540 l 603 404 l 276 404 l 276 136 l 676 136 l 676 0 l 115 0 m 178 1007 l 313 1161 l 485 1161 l 619 1007 l 550 961 l 401 1083 l 396 1083 l 247 961 l 178 1007 m 410 -300 q 342 -274 368 -300 q 315 -208 315 -249 q 342 -143 315 -168 q 410 -118 368 -118 q 478 -143 451 -118 q 504 -208 504 -168 q 478 -274 504 -249 q 410 -300 451 -300 z "},"Ę":{"ha":747,"x_min":115,"x_max":701,"o":"m 572 -303 q 469 -271 511 -303 q 426 -176 426 -239 q 436 -119 426 -146 q 461 -69 446 -92 q 495 -29 476 -47 q 533 0 514 -11 l 115 0 l 115 908 l 663 908 l 663 772 l 276 772 l 276 540 l 603 540 l 603 404 l 276 404 l 276 136 l 676 136 l 676 0 l 669 0 q 624 -15 646 -3 q 585 -45 601 -26 q 558 -87 568 -64 q 547 -136 547 -111 q 566 -181 547 -167 q 608 -194 585 -194 q 637 -189 624 -194 q 661 -175 650 -183 l 701 -258 q 641 -290 678 -278 q 572 -303 604 -303 z "},"Ḗ":{"ha":747,"x_min":115,"x_max":676,"o":"m 115 0 l 115 908 l 663 908 l 663 772 l 276 772 l 276 540 l 603 540 l 603 404 l 276 404 l 276 136 l 676 136 l 676 0 l 115 0 m 361 1153 l 306 1226 l 499 1372 l 567 1282 l 361 1153 m 197 1011 l 197 1117 l 594 1117 l 594 1011 l 197 1011 z "},"Ǵ":{"ha":872,"x_min":68,"x_max":786,"o":"m 496 -17 q 326 14 404 -17 q 190 104 247 44 q 100 251 132 164 q 68 451 68 339 q 101 651 68 563 q 192 800 135 739 q 328 893 250 861 q 497 925 407 925 q 662 890 594 925 q 772 810 729 854 l 686 706 q 609 762 651 739 q 503 785 567 785 q 392 762 442 785 q 308 697 343 739 q 253 593 272 654 q 233 456 233 532 q 303 212 233 300 q 511 124 374 124 q 585 134 550 124 q 642 164 619 144 l 642 360 l 469 360 l 469 492 l 786 492 l 786 92 q 665 15 740 46 q 496 -17 589 -17 m 481 956 l 410 1036 l 628 1224 l 714 1118 l 481 956 z "},"Ĝ":{"ha":872,"x_min":68,"x_max":786,"o":"m 496 -17 q 326 14 404 -17 q 190 104 247 44 q 100 251 132 164 q 68 451 68 339 q 101 651 68 563 q 192 800 135 739 q 328 893 250 861 q 497 925 407 925 q 662 890 594 925 q 772 810 729 854 l 686 706 q 609 762 651 739 q 503 785 567 785 q 392 762 442 785 q 308 697 343 739 q 253 593 272 654 q 233 456 233 532 q 303 212 233 300 q 511 124 374 124 q 585 134 550 124 q 642 164 619 144 l 642 360 l 469 360 l 469 492 l 786 492 l 786 92 q 665 15 740 46 q 496 -17 589 -17 m 281 1007 l 415 1161 l 588 1161 l 722 1007 l 653 961 l 504 1083 l 499 1083 l 350 961 l 281 1007 z "},"Ğ":{"ha":872,"x_min":68,"x_max":786,"o":"m 496 -17 q 326 14 404 -17 q 190 104 247 44 q 100 251 132 164 q 68 451 68 339 q 101 651 68 563 q 192 800 135 739 q 328 893 250 861 q 497 925 407 925 q 662 890 594 925 q 772 810 729 854 l 686 706 q 609 762 651 739 q 503 785 567 785 q 392 762 442 785 q 308 697 343 739 q 253 593 272 654 q 233 456 233 532 q 303 212 233 300 q 511 124 374 124 q 585 134 550 124 q 642 164 619 144 l 642 360 l 469 360 l 469 492 l 786 492 l 786 92 q 665 15 740 46 q 496 -17 589 -17 m 501 974 q 349 1024 401 974 q 286 1158 296 1075 l 378 1174 q 417 1099 386 1128 q 501 1069 449 1069 q 585 1099 554 1069 q 625 1174 617 1128 l 717 1158 q 654 1024 707 1075 q 501 974 601 974 z "},"Ġ":{"ha":872,"x_min":68,"x_max":786,"o":"m 496 -17 q 326 14 404 -17 q 190 104 247 44 q 100 251 132 164 q 68 451 68 339 q 101 651 68 563 q 192 800 135 739 q 328 893 250 861 q 497 925 407 925 q 662 890 594 925 q 772 810 729 854 l 686 706 q 609 762 651 739 q 503 785 567 785 q 392 762 442 785 q 308 697 343 739 q 253 593 272 654 q 233 456 233 532 q 303 212 233 300 q 511 124 374 124 q 585 134 550 124 q 642 164 619 144 l 642 360 l 469 360 l 469 492 l 786 492 l 786 92 q 665 15 740 46 q 496 -17 589 -17 m 501 982 q 431 1008 458 982 q 403 1074 403 1033 q 431 1139 403 1114 q 501 1164 458 1164 q 572 1139 544 1164 q 600 1074 600 1114 q 572 1008 600 1033 q 501 982 544 982 z "},"Ģ":{"ha":872,"x_min":68,"x_max":786,"o":"m 496 -17 q 326 14 404 -17 q 190 104 247 44 q 100 251 132 164 q 68 451 68 339 q 101 651 68 563 q 192 800 135 739 q 328 893 250 861 q 497 925 407 925 q 662 890 594 925 q 772 810 729 854 l 686 706 q 609 762 651 739 q 503 785 567 785 q 392 762 442 785 q 308 697 343 739 q 253 593 272 654 q 233 456 233 532 q 303 212 233 300 q 511 124 374 124 q 585 134 550 124 q 642 164 619 144 l 642 360 l 469 360 l 469 492 l 786 492 l 786 92 q 665 15 740 46 q 496 -17 589 -17 m 364 -324 l 350 -254 q 466 -235 435 -249 q 497 -194 497 -221 q 403 -140 497 -149 l 436 -76 q 576 -112 538 -86 q 615 -187 615 -139 q 550 -286 615 -254 q 364 -324 485 -318 z "},"Ǧ":{"ha":872,"x_min":68,"x_max":786,"o":"m 496 -17 q 326 14 404 -17 q 190 104 247 44 q 100 251 132 164 q 68 451 68 339 q 101 651 68 563 q 192 800 135 739 q 328 893 250 861 q 497 925 407 925 q 662 890 594 925 q 772 810 729 854 l 686 706 q 609 762 651 739 q 503 785 567 785 q 392 762 442 785 q 308 697 343 739 q 253 593 272 654 q 233 456 233 532 q 303 212 233 300 q 511 124 374 124 q 585 134 550 124 q 642 164 619 144 l 642 360 l 469 360 l 469 492 l 786 492 l 786 92 q 665 15 740 46 q 496 -17 589 -17 m 415 978 l 281 1133 l 350 1178 l 499 1056 l 504 1056 l 653 1178 l 722 1133 l 588 978 l 415 978 z "},"Ḡ":{"ha":872,"x_min":68,"x_max":786,"o":"m 496 -17 q 326 14 404 -17 q 190 104 247 44 q 100 251 132 164 q 68 451 68 339 q 101 651 68 563 q 192 800 135 739 q 328 893 250 861 q 497 925 407 925 q 662 890 594 925 q 772 810 729 854 l 686 706 q 609 762 651 739 q 503 785 567 785 q 392 762 442 785 q 308 697 343 739 q 253 593 272 654 q 233 456 233 532 q 303 212 233 300 q 511 124 374 124 q 585 134 550 124 q 642 164 619 144 l 642 360 l 469 360 l 469 492 l 786 492 l 786 92 q 665 15 740 46 q 496 -17 589 -17 m 303 1011 l 303 1117 l 700 1117 l 700 1011 l 303 1011 z "},"Ɠ":{"ha":872,"x_min":68,"x_max":874,"o":"m 496 -17 q 326 14 404 -17 q 190 104 247 44 q 100 251 132 164 q 68 451 68 339 q 101 651 68 563 q 192 800 135 739 q 328 893 250 861 q 497 925 407 925 q 549 922 525 925 q 596 915 574 919 q 592 953 592 933 q 640 1076 592 1026 q 771 1126 688 1126 q 831 1121 807 1126 q 874 1108 854 1115 l 844 989 q 824 997 833 993 q 801 1000 814 1000 q 748 981 768 1000 q 728 929 728 961 q 740 878 728 900 q 772 829 753 857 l 686 725 q 609 767 651 750 q 503 785 567 785 q 392 762 442 785 q 308 697 343 739 q 253 593 272 654 q 233 456 233 532 q 303 212 233 300 q 511 124 374 124 q 585 134 550 124 q 642 164 619 144 l 642 360 l 469 360 l 469 492 l 786 492 l 786 92 q 665 15 740 46 q 496 -17 589 -17 z "},"Ĥ":{"ha":921,"x_min":115,"x_max":806,"o":"m 115 0 l 115 908 l 276 908 l 276 543 l 644 543 l 644 908 l 806 908 l 806 0 l 644 0 l 644 403 l 276 403 l 276 0 l 115 0 m 238 1007 l 372 1161 l 544 1161 l 679 1007 l 610 961 l 461 1083 l 456 1083 l 307 961 l 238 1007 z "},"Ḥ":{"ha":921,"x_min":115,"x_max":806,"o":"m 115 0 l 115 908 l 276 908 l 276 543 l 644 543 l 644 908 l 806 908 l 806 0 l 644 0 l 644 403 l 276 403 l 276 0 l 115 0 m 458 -300 q 390 -274 417 -300 q 364 -208 364 -249 q 390 -143 364 -168 q 458 -118 417 -118 q 526 -143 500 -118 q 553 -208 553 -168 q 526 -274 553 -249 q 458 -300 500 -300 z "},"Ḫ":{"ha":921,"x_min":115,"x_max":806,"o":"m 115 0 l 115 908 l 276 908 l 276 543 l 644 543 l 644 908 l 806 908 l 806 0 l 644 0 l 644 403 l 276 403 l 276 0 l 115 0 m 458 -322 q 358 -305 400 -322 q 290 -258 317 -287 q 249 -189 263 -228 q 232 -107 235 -150 l 326 -92 q 340 -140 331 -117 q 365 -180 349 -162 q 405 -208 382 -197 q 458 -219 428 -219 q 512 -208 489 -219 q 551 -180 535 -197 q 577 -140 568 -162 q 590 -92 586 -117 l 685 -107 q 668 -189 682 -150 q 627 -258 654 -228 q 558 -305 600 -287 q 458 -322 517 -322 z "},"Ħ":{"ha":972,"x_min":39,"x_max":932,"o":"m 39 679 l 39 754 l 143 761 l 143 908 l 304 908 l 304 761 l 672 761 l 672 908 l 833 908 l 833 761 l 932 761 l 932 679 l 833 679 l 833 0 l 672 0 l 672 403 l 304 403 l 304 0 l 143 0 l 143 679 l 39 679 m 304 543 l 672 543 l 672 679 l 304 679 l 304 543 z "},"Ì":{"ha":392,"x_min":-18,"x_max":286,"o":"m 115 0 l 115 908 l 276 908 l 276 0 l 115 0 m 215 956 l -18 1118 l 68 1224 l 286 1036 l 215 956 z "},"Í":{"ha":392,"x_min":106,"x_max":410,"o":"m 115 0 l 115 908 l 276 908 l 276 0 l 115 0 m 176 956 l 106 1036 l 324 1224 l 410 1118 l 176 956 z "},"Î":{"ha":392,"x_min":-25,"x_max":417,"o":"m 115 0 l 115 908 l 276 908 l 276 0 l 115 0 m -25 1007 l 110 1161 l 282 1161 l 417 1007 l 347 961 l 199 1083 l 193 1083 l 44 961 l -25 1007 z "},"Ĩ":{"ha":392,"x_min":-65,"x_max":457,"o":"m 115 0 l 115 908 l 276 908 l 276 0 l 115 0 m 297 972 q 231 986 260 972 q 181 1017 203 1000 q 139 1047 158 1033 q 99 1061 119 1061 q 60 1042 75 1061 q 40 982 44 1024 l -65 990 q -17 1129 -60 1083 q 94 1175 26 1175 q 160 1161 132 1175 q 211 1131 189 1147 q 253 1100 233 1114 q 293 1086 272 1086 q 351 1167 342 1086 l 457 1158 q 408 1019 451 1065 q 297 972 365 972 z "},"Ï":{"ha":392,"x_min":-35,"x_max":426,"o":"m 115 0 l 115 908 l 276 908 l 276 0 l 115 0 m 47 983 q -12 1006 11 983 q -35 1065 -35 1029 q -12 1125 -35 1101 q 47 1149 11 1149 q 107 1125 83 1149 q 131 1065 131 1101 q 107 1006 131 1029 q 47 983 83 983 m 344 983 q 285 1006 308 983 q 261 1065 261 1029 q 285 1125 261 1101 q 344 1149 308 1149 q 403 1125 381 1149 q 426 1065 426 1101 q 403 1006 426 1029 q 344 983 381 983 z "},"Ī":{"ha":392,"x_min":-3,"x_max":394,"o":"m 115 0 l 115 908 l 276 908 l 276 0 l 115 0 m -3 1011 l -3 1117 l 394 1117 l 394 1011 l -3 1011 z "},"İ":{"ha":392,"x_min":97,"x_max":294,"o":"m 115 0 l 115 908 l 276 908 l 276 0 l 115 0 m 196 982 q 125 1008 153 982 q 97 1074 97 1033 q 125 1139 97 1114 q 196 1164 153 1164 q 267 1139 239 1164 q 294 1074 294 1114 q 267 1008 294 1033 q 196 982 239 982 z "},"Ǐ":{"ha":392,"x_min":-25,"x_max":417,"o":"m 115 0 l 115 908 l 276 908 l 276 0 l 115 0 m 110 978 l -25 1133 l 44 1178 l 193 1056 l 199 1056 l 347 1178 l 417 1133 l 282 978 l 110 978 z "},"Ỉ":{"ha":392,"x_min":86,"x_max":318,"o":"m 115 0 l 115 908 l 276 908 l 276 0 l 115 0 m 143 964 l 129 1032 q 178 1050 158 1039 q 199 1083 199 1061 q 172 1120 199 1107 q 86 1136 146 1133 l 104 1221 q 267 1187 215 1218 q 318 1101 318 1156 q 303 1044 318 1068 q 265 1004 289 1021 q 210 978 242 988 q 143 964 178 968 z "},"Ị":{"ha":392,"x_min":101,"x_max":290,"o":"m 115 0 l 115 908 l 276 908 l 276 0 l 115 0 m 196 -300 q 128 -274 154 -300 q 101 -208 101 -249 q 128 -143 101 -168 q 196 -118 154 -118 q 264 -143 238 -118 q 290 -208 290 -168 q 264 -274 290 -249 q 196 -300 238 -300 z "},"Į":{"ha":392,"x_min":60,"x_max":333,"o":"m 206 -303 q 102 -271 144 -303 q 60 -176 60 -239 q 69 -118 60 -144 q 92 -69 78 -92 q 124 -30 107 -47 q 157 0 142 -12 l 115 0 l 115 908 l 276 908 l 276 0 q 179 -136 179 -56 q 199 -181 179 -167 q 240 -194 218 -194 q 269 -189 256 -194 q 294 -175 283 -183 l 333 -258 q 274 -290 310 -278 q 206 -303 238 -303 z "},"Ĭ":{"ha":392,"x_min":-19,"x_max":411,"o":"m 115 0 l 115 908 l 276 908 l 276 0 l 115 0 m 196 974 q 43 1024 96 974 q -19 1158 -10 1075 l 72 1174 q 112 1099 81 1128 q 196 1069 143 1069 q 280 1099 249 1069 q 319 1174 311 1128 l 411 1158 q 349 1024 401 1075 q 196 974 296 974 z "},"Ĵ":{"ha":686,"x_min":33,"x_max":711,"o":"m 304 -17 q 142 22 208 -17 q 33 138 76 61 l 144 219 q 208 147 172 169 q 286 124 244 124 q 382 163 350 124 q 414 299 414 201 l 414 908 l 575 908 l 575 285 q 560 167 575 222 q 511 72 544 113 q 426 7 478 31 q 304 -17 375 -17 m 269 1007 l 404 1161 l 576 1161 l 711 1007 l 642 961 l 493 1083 l 488 1083 l 339 961 l 269 1007 z "},"Ķ":{"ha":829,"x_min":115,"x_max":831,"o":"m 115 0 l 115 908 l 276 908 l 276 496 l 281 496 l 604 908 l 783 908 l 504 554 l 831 0 l 653 0 l 407 428 l 276 265 l 276 0 l 115 0 m 325 -324 l 311 -254 q 427 -235 396 -249 q 458 -194 458 -221 q 364 -140 458 -149 l 397 -76 q 538 -112 499 -86 q 576 -187 576 -139 q 511 -286 576 -254 q 325 -324 446 -318 z "},"Ḳ":{"ha":829,"x_min":115,"x_max":831,"o":"m 115 0 l 115 908 l 276 908 l 276 496 l 281 496 l 604 908 l 783 908 l 504 554 l 831 0 l 653 0 l 407 428 l 276 265 l 276 0 l 115 0 m 458 -300 q 390 -274 417 -300 q 364 -208 364 -249 q 390 -143 364 -168 q 458 -118 417 -118 q 526 -143 500 -118 q 553 -208 553 -168 q 526 -274 553 -249 q 458 -300 500 -300 z "},"Ḵ":{"ha":829,"x_min":115,"x_max":831,"o":"m 115 0 l 115 908 l 276 908 l 276 496 l 281 496 l 604 908 l 783 908 l 504 554 l 831 0 l 653 0 l 407 428 l 276 265 l 276 0 l 115 0 m 261 -249 l 261 -143 l 650 -143 l 650 -249 l 261 -249 z "},"Ĺ":{"ha":697,"x_min":110,"x_max":654,"o":"m 115 0 l 115 908 l 276 908 l 276 136 l 654 136 l 654 0 l 115 0 m 181 956 l 110 1036 l 328 1224 l 414 1118 l 181 956 z "},"Ľ":{"ha":697,"x_min":115,"x_max":654,"o":"m 115 0 l 115 908 l 276 908 l 276 136 l 654 136 l 654 0 l 115 0 m 476 713 l 469 1014 l 576 1014 l 575 926 l 549 713 l 476 713 z "},"Ļ":{"ha":697,"x_min":115,"x_max":654,"o":"m 115 0 l 115 908 l 276 908 l 276 136 l 654 136 l 654 0 l 115 0 m 271 -324 l 257 -254 q 373 -235 342 -249 q 404 -194 404 -221 q 310 -140 404 -149 l 343 -76 q 483 -112 444 -86 q 522 -187 522 -139 q 457 -286 522 -254 q 271 -324 392 -318 z "},"Ŀ":{"ha":697,"x_min":115,"x_max":654,"o":"m 115 0 l 115 908 l 276 908 l 276 136 l 654 136 l 654 0 l 115 0 m 547 346 q 473 376 503 346 q 443 454 443 407 q 473 532 443 501 q 547 563 503 563 q 621 532 592 563 q 650 454 650 501 q 621 376 650 407 q 547 346 592 346 z "},"Ḷ":{"ha":697,"x_min":115,"x_max":654,"o":"m 115 0 l 115 908 l 276 908 l 276 136 l 654 136 l 654 0 l 115 0 m 401 -300 q 333 -274 360 -300 q 307 -208 307 -249 q 333 -143 307 -168 q 401 -118 360 -118 q 469 -143 443 -118 q 496 -208 496 -168 q 469 -274 496 -249 q 401 -300 443 -300 z "},"Ḹ":{"ha":697,"x_min":1,"x_max":654,"o":"m 115 0 l 115 908 l 276 908 l 276 136 l 654 136 l 654 0 l 115 0 m 1 1011 l 1 1117 l 399 1117 l 399 1011 l 1 1011 m 401 -300 q 333 -274 360 -300 q 307 -208 307 -249 q 333 -143 307 -168 q 401 -118 360 -118 q 469 -143 443 -118 q 496 -208 496 -168 q 469 -274 496 -249 q 401 -300 443 -300 z "},"Ḻ":{"ha":697,"x_min":115,"x_max":654,"o":"m 115 0 l 115 908 l 276 908 l 276 136 l 654 136 l 654 0 l 115 0 m 207 -249 l 207 -143 l 596 -143 l 596 -249 l 207 -249 z "},"Ł":{"ha":704,"x_min":-21,"x_max":663,"o":"m 36 261 l -21 358 l 124 439 l 124 908 l 285 908 l 285 511 l 517 639 l 572 540 l 285 385 l 285 136 l 663 136 l 663 0 l 124 0 l 124 313 l 36 261 z "},"Ḿ":{"ha":1035,"x_min":115,"x_max":919,"o":"m 115 0 l 115 908 l 297 908 l 458 464 q 488 376 474 421 q 517 286 501 331 l 522 286 q 551 376 538 331 q 579 464 564 421 l 736 908 l 919 908 l 919 0 l 771 0 l 771 415 q 773 485 771 447 q 778 560 775 522 q 785 635 781 599 q 792 704 789 672 l 786 704 l 713 493 l 564 85 l 468 85 l 318 493 l 246 704 l 240 704 q 247 635 243 672 q 253 560 250 599 q 259 485 257 522 q 261 415 261 447 l 261 0 l 115 0 m 497 956 l 426 1036 l 644 1224 l 731 1118 l 497 956 z "},"Ṁ":{"ha":1035,"x_min":115,"x_max":919,"o":"m 115 0 l 115 908 l 297 908 l 458 464 q 488 376 474 421 q 517 286 501 331 l 522 286 q 551 376 538 331 q 579 464 564 421 l 736 908 l 919 908 l 919 0 l 771 0 l 771 415 q 773 485 771 447 q 778 560 775 522 q 785 635 781 599 q 792 704 789 672 l 786 704 l 713 493 l 564 85 l 468 85 l 318 493 l 246 704 l 240 704 q 247 635 243 672 q 253 560 250 599 q 259 485 257 522 q 261 415 261 447 l 261 0 l 115 0 m 517 982 q 446 1008 474 982 q 418 1074 418 1033 q 446 1139 418 1114 q 517 1164 474 1164 q 588 1139 560 1164 q 615 1074 615 1114 q 588 1008 615 1033 q 517 982 560 982 z "},"Ṃ":{"ha":1035,"x_min":115,"x_max":919,"o":"m 115 0 l 115 908 l 297 908 l 458 464 q 488 376 474 421 q 517 286 501 331 l 522 286 q 551 376 538 331 q 579 464 564 421 l 736 908 l 919 908 l 919 0 l 771 0 l 771 415 q 773 485 771 447 q 778 560 775 522 q 785 635 781 599 q 792 704 789 672 l 786 704 l 713 493 l 564 85 l 468 85 l 318 493 l 246 704 l 240 704 q 247 635 243 672 q 253 560 250 599 q 259 485 257 522 q 261 415 261 447 l 261 0 l 115 0 m 519 -300 q 451 -274 478 -300 q 425 -208 425 -249 q 451 -143 425 -168 q 519 -118 478 -118 q 588 -143 561 -118 q 614 -208 614 -168 q 588 -274 614 -249 q 519 -300 561 -300 z "},"Ń":{"ha":911,"x_min":115,"x_max":796,"o":"m 115 0 l 115 908 l 281 908 l 564 397 l 657 204 l 663 204 q 649 356 657 275 q 642 514 642 438 l 642 908 l 796 908 l 796 0 l 631 0 l 347 511 l 254 704 l 249 704 q 262 553 254 632 q 269 397 269 474 l 269 0 l 115 0 m 439 956 l 368 1036 l 586 1224 l 672 1118 l 439 956 z "},"Ǹ":{"ha":911,"x_min":115,"x_max":796,"o":"m 115 0 l 115 908 l 281 908 l 564 397 l 657 204 l 663 204 q 649 356 657 275 q 642 514 642 438 l 642 908 l 796 908 l 796 0 l 631 0 l 347 511 l 254 704 l 249 704 q 262 553 254 632 q 269 397 269 474 l 269 0 l 115 0 m 478 956 l 244 1118 l 331 1224 l 549 1036 l 478 956 z "},"Ň":{"ha":911,"x_min":115,"x_max":796,"o":"m 115 0 l 115 908 l 281 908 l 564 397 l 657 204 l 663 204 q 649 356 657 275 q 642 514 642 438 l 642 908 l 796 908 l 796 0 l 631 0 l 347 511 l 254 704 l 249 704 q 262 553 254 632 q 269 397 269 474 l 269 0 l 115 0 m 372 978 l 238 1133 l 307 1178 l 456 1056 l 461 1056 l 610 1178 l 679 1133 l 544 978 l 372 978 z "},"Ñ":{"ha":911,"x_min":115,"x_max":796,"o":"m 115 0 l 115 908 l 281 908 l 564 397 l 657 204 l 663 204 q 649 356 657 275 q 642 514 642 438 l 642 908 l 796 908 l 796 0 l 631 0 l 347 511 l 254 704 l 249 704 q 262 553 254 632 q 269 397 269 474 l 269 0 l 115 0 m 560 972 q 494 986 522 972 q 443 1017 465 1000 q 401 1047 421 1033 q 361 1061 382 1061 q 322 1042 338 1061 q 303 982 307 1024 l 197 990 q 246 1129 203 1083 q 357 1175 289 1175 q 423 1161 394 1175 q 474 1131 451 1147 q 515 1100 496 1114 q 556 1086 535 1086 q 614 1167 604 1086 l 719 1158 q 671 1019 714 1065 q 560 972 628 972 z "},"Ņ":{"ha":911,"x_min":115,"x_max":796,"o":"m 115 0 l 115 908 l 281 908 l 564 397 l 657 204 l 663 204 q 649 356 657 275 q 642 514 642 438 l 642 908 l 796 908 l 796 0 l 631 0 l 347 511 l 254 704 l 249 704 q 262 553 254 632 q 269 397 269 474 l 269 0 l 115 0 m 336 -324 l 322 -254 q 438 -235 407 -249 q 469 -194 469 -221 q 375 -140 469 -149 l 408 -76 q 549 -112 510 -86 q 588 -187 588 -139 q 522 -286 588 -254 q 336 -324 457 -318 z "},"Ṅ":{"ha":911,"x_min":115,"x_max":796,"o":"m 115 0 l 115 908 l 281 908 l 564 397 l 657 204 l 663 204 q 649 356 657 275 q 642 514 642 438 l 642 908 l 796 908 l 796 0 l 631 0 l 347 511 l 254 704 l 249 704 q 262 553 254 632 q 269 397 269 474 l 269 0 l 115 0 m 458 982 q 388 1008 415 982 q 360 1074 360 1033 q 388 1139 360 1114 q 458 1164 415 1164 q 529 1139 501 1164 q 557 1074 557 1114 q 529 1008 557 1033 q 458 982 501 982 z "},"Ṇ":{"ha":911,"x_min":115,"x_max":796,"o":"m 115 0 l 115 908 l 281 908 l 564 397 l 657 204 l 663 204 q 649 356 657 275 q 642 514 642 438 l 642 908 l 796 908 l 796 0 l 631 0 l 347 511 l 254 704 l 249 704 q 262 553 254 632 q 269 397 269 474 l 269 0 l 115 0 m 467 -300 q 399 -274 425 -300 q 372 -208 372 -249 q 399 -143 372 -168 q 467 -118 425 -118 q 535 -143 508 -118 q 561 -208 561 -168 q 535 -274 561 -249 q 467 -300 508 -300 z "},"Ṉ":{"ha":911,"x_min":115,"x_max":796,"o":"m 115 0 l 115 908 l 281 908 l 564 397 l 657 204 l 663 204 q 649 356 657 275 q 642 514 642 438 l 642 908 l 796 908 l 796 0 l 631 0 l 347 511 l 254 704 l 249 704 q 262 553 254 632 q 269 397 269 474 l 269 0 l 115 0 m 272 -249 l 272 -143 l 661 -143 l 661 -249 l 272 -249 z "},"Ò":{"ha":936,"x_min":68,"x_max":869,"o":"m 468 -17 q 306 16 379 -17 q 179 110 232 49 q 97 260 126 172 q 68 458 68 347 q 97 655 68 568 q 179 801 126 742 q 306 893 232 861 q 468 925 379 925 q 631 893 557 925 q 758 801 704 861 q 840 655 811 742 q 869 458 869 568 q 840 260 869 347 q 758 110 811 172 q 631 16 704 49 q 468 -17 557 -17 m 468 124 q 565 147 522 124 q 639 215 608 171 q 686 320 669 258 q 703 458 703 382 q 640 698 703 611 q 468 785 576 785 q 297 698 360 785 q 233 458 233 611 q 250 320 233 382 q 297 215 267 258 q 371 147 328 171 q 468 124 414 124 m 488 956 l 254 1118 l 340 1224 l 558 1036 l 488 956 z "},"Ó":{"ha":936,"x_min":68,"x_max":869,"o":"m 468 -17 q 306 16 379 -17 q 179 110 232 49 q 97 260 126 172 q 68 458 68 347 q 97 655 68 568 q 179 801 126 742 q 306 893 232 861 q 468 925 379 925 q 631 893 557 925 q 758 801 704 861 q 840 655 811 742 q 869 458 869 568 q 840 260 869 347 q 758 110 811 172 q 631 16 704 49 q 468 -17 557 -17 m 468 124 q 565 147 522 124 q 639 215 608 171 q 686 320 669 258 q 703 458 703 382 q 640 698 703 611 q 468 785 576 785 q 297 698 360 785 q 233 458 233 611 q 250 320 233 382 q 297 215 267 258 q 371 147 328 171 q 468 124 414 124 m 449 956 l 378 1036 l 596 1224 l 682 1118 l 449 956 z "},"Ô":{"ha":936,"x_min":68,"x_max":869,"o":"m 468 -17 q 306 16 379 -17 q 179 110 232 49 q 97 260 126 172 q 68 458 68 347 q 97 655 68 568 q 179 801 126 742 q 306 893 232 861 q 468 925 379 925 q 631 893 557 925 q 758 801 704 861 q 840 655 811 742 q 869 458 869 568 q 840 260 869 347 q 758 110 811 172 q 631 16 704 49 q 468 -17 557 -17 m 468 124 q 565 147 522 124 q 639 215 608 171 q 686 320 669 258 q 703 458 703 382 q 640 698 703 611 q 468 785 576 785 q 297 698 360 785 q 233 458 233 611 q 250 320 233 382 q 297 215 267 258 q 371 147 328 171 q 468 124 414 124 m 247 1007 l 382 1161 l 554 1161 l 689 1007 l 619 961 l 471 1083 l 465 1083 l 317 961 l 247 1007 z "},"Õ":{"ha":936,"x_min":68,"x_max":869,"o":"m 468 -17 q 306 16 379 -17 q 179 110 232 49 q 97 260 126 172 q 68 458 68 347 q 97 655 68 568 q 179 801 126 742 q 306 893 232 861 q 468 925 379 925 q 631 893 557 925 q 758 801 704 861 q 840 655 811 742 q 869 458 869 568 q 840 260 869 347 q 758 110 811 172 q 631 16 704 49 q 468 -17 557 -17 m 468 124 q 565 147 522 124 q 639 215 608 171 q 686 320 669 258 q 703 458 703 382 q 640 698 703 611 q 468 785 576 785 q 297 698 360 785 q 233 458 233 611 q 250 320 233 382 q 297 215 267 258 q 371 147 328 171 q 468 124 414 124 m 569 972 q 503 986 532 972 q 453 1017 475 1000 q 411 1047 431 1033 q 371 1061 392 1061 q 332 1042 347 1061 q 313 982 317 1024 l 207 990 q 256 1129 213 1083 q 367 1175 299 1175 q 433 1161 404 1175 q 483 1131 461 1147 q 525 1100 506 1114 q 565 1086 544 1086 q 624 1167 614 1086 l 729 1158 q 681 1019 724 1065 q 569 972 638 972 z "},"Ö":{"ha":936,"x_min":68,"x_max":869,"o":"m 468 -17 q 306 16 379 -17 q 179 110 232 49 q 97 260 126 172 q 68 458 68 347 q 97 655 68 568 q 179 801 126 742 q 306 893 232 861 q 468 925 379 925 q 631 893 557 925 q 758 801 704 861 q 840 655 811 742 q 869 458 869 568 q 840 260 869 347 q 758 110 811 172 q 631 16 704 49 q 468 -17 557 -17 m 468 124 q 565 147 522 124 q 639 215 608 171 q 686 320 669 258 q 703 458 703 382 q 640 698 703 611 q 468 785 576 785 q 297 698 360 785 q 233 458 233 611 q 250 320 233 382 q 297 215 267 258 q 371 147 328 171 q 468 124 414 124 m 319 983 q 260 1006 283 983 q 238 1065 238 1029 q 260 1125 238 1101 q 319 1149 283 1149 q 379 1125 356 1149 q 403 1065 403 1101 q 379 1006 403 1029 q 319 983 356 983 m 617 983 q 557 1006 581 983 q 533 1065 533 1029 q 557 1125 533 1101 q 617 1149 581 1149 q 676 1125 653 1149 q 699 1065 699 1101 q 676 1006 699 1029 q 617 983 653 983 z "},"Ō":{"ha":936,"x_min":68,"x_max":869,"o":"m 468 -17 q 306 16 379 -17 q 179 110 232 49 q 97 260 126 172 q 68 458 68 347 q 97 655 68 568 q 179 801 126 742 q 306 893 232 861 q 468 925 379 925 q 631 893 557 925 q 758 801 704 861 q 840 655 811 742 q 869 458 869 568 q 840 260 869 347 q 758 110 811 172 q 631 16 704 49 q 468 -17 557 -17 m 468 124 q 565 147 522 124 q 639 215 608 171 q 686 320 669 258 q 703 458 703 382 q 640 698 703 611 q 468 785 576 785 q 297 698 360 785 q 233 458 233 611 q 250 320 233 382 q 297 215 267 258 q 371 147 328 171 q 468 124 414 124 m 269 1011 l 269 1117 l 667 1117 l 667 1011 l 269 1011 z "},"Ő":{"ha":936,"x_min":68,"x_max":869,"o":"m 468 -17 q 306 16 379 -17 q 179 110 232 49 q 97 260 126 172 q 68 458 68 347 q 97 655 68 568 q 179 801 126 742 q 306 893 232 861 q 468 925 379 925 q 631 893 557 925 q 758 801 704 861 q 840 655 811 742 q 869 458 869 568 q 840 260 869 347 q 758 110 811 172 q 631 16 704 49 q 468 -17 557 -17 m 468 124 q 565 147 522 124 q 639 215 608 171 q 686 320 669 258 q 703 458 703 382 q 640 698 703 611 q 468 785 576 785 q 297 698 360 785 q 233 458 233 611 q 250 320 233 382 q 297 215 267 258 q 371 147 328 171 q 468 124 414 124 m 303 1008 l 438 1226 l 542 1167 l 383 969 l 303 1008 m 544 1008 l 679 1226 l 783 1167 l 625 969 l 544 1008 z "},"Ǒ":{"ha":936,"x_min":68,"x_max":869,"o":"m 468 -17 q 306 16 379 -17 q 179 110 232 49 q 97 260 126 172 q 68 458 68 347 q 97 655 68 568 q 179 801 126 742 q 306 893 232 861 q 468 925 379 925 q 631 893 557 925 q 758 801 704 861 q 840 655 811 742 q 869 458 869 568 q 840 260 869 347 q 758 110 811 172 q 631 16 704 49 q 468 -17 557 -17 m 468 124 q 565 147 522 124 q 639 215 608 171 q 686 320 669 258 q 703 458 703 382 q 640 698 703 611 q 468 785 576 785 q 297 698 360 785 q 233 458 233 611 q 250 320 233 382 q 297 215 267 258 q 371 147 328 171 q 468 124 414 124 m 382 978 l 247 1133 l 317 1178 l 465 1056 l 471 1056 l 619 1178 l 689 1133 l 554 978 l 382 978 z "},"Ọ":{"ha":936,"x_min":68,"x_max":869,"o":"m 468 -17 q 306 16 379 -17 q 179 110 232 49 q 97 260 126 172 q 68 458 68 347 q 97 655 68 568 q 179 801 126 742 q 306 893 232 861 q 468 925 379 925 q 631 893 557 925 q 758 801 704 861 q 840 655 811 742 q 869 458 869 568 q 840 260 869 347 q 758 110 811 172 q 631 16 704 49 q 468 -17 557 -17 m 468 124 q 565 147 522 124 q 639 215 608 171 q 686 320 669 258 q 703 458 703 382 q 640 698 703 611 q 468 785 576 785 q 297 698 360 785 q 233 458 233 611 q 250 320 233 382 q 297 215 267 258 q 371 147 328 171 q 468 124 414 124 m 468 -300 q 400 -274 426 -300 q 374 -208 374 -249 q 400 -143 374 -168 q 468 -118 426 -118 q 536 -143 510 -118 q 563 -208 563 -168 q 536 -274 563 -249 q 468 -300 510 -300 z "},"Ỏ":{"ha":936,"x_min":68,"x_max":869,"o":"m 468 -17 q 306 16 379 -17 q 179 110 232 49 q 97 260 126 172 q 68 458 68 347 q 97 655 68 568 q 179 801 126 742 q 306 893 232 861 q 468 925 379 925 q 631 893 557 925 q 758 801 704 861 q 840 655 811 742 q 869 458 869 568 q 840 260 869 347 q 758 110 811 172 q 631 16 704 49 q 468 -17 557 -17 m 468 124 q 565 147 522 124 q 639 215 608 171 q 686 320 669 258 q 703 458 703 382 q 640 698 703 611 q 468 785 576 785 q 297 698 360 785 q 233 458 233 611 q 250 320 233 382 q 297 215 267 258 q 371 147 328 171 q 468 124 414 124 m 415 964 l 401 1032 q 451 1050 431 1039 q 471 1083 471 1061 q 444 1120 471 1107 q 358 1136 418 1133 l 376 1221 q 539 1187 488 1218 q 590 1101 590 1156 q 576 1044 590 1068 q 538 1004 561 1021 q 482 978 514 988 q 415 964 450 968 z "},"Ố":{"ha":936,"x_min":68,"x_max":869,"o":"m 468 -17 q 306 16 379 -17 q 179 110 232 49 q 97 260 126 172 q 68 458 68 347 q 97 655 68 568 q 179 801 126 742 q 306 893 232 861 q 468 925 379 925 q 631 893 557 925 q 758 801 704 861 q 840 655 811 742 q 869 458 869 568 q 840 260 869 347 q 758 110 811 172 q 631 16 704 49 q 468 -17 557 -17 m 468 124 q 565 147 522 124 q 639 215 608 171 q 686 320 669 258 q 703 458 703 382 q 640 698 703 611 q 468 785 576 785 q 297 698 360 785 q 233 458 233 611 q 250 320 233 382 q 297 215 267 258 q 371 147 328 171 q 468 124 414 124 m 336 961 l 272 1007 l 399 1139 l 538 1139 l 664 1007 l 600 961 l 471 1058 l 465 1058 l 336 961 m 658 1057 l 607 1114 l 743 1239 l 801 1169 l 658 1057 z "},"Ồ":{"ha":936,"x_min":68,"x_max":869,"o":"m 468 -17 q 306 16 379 -17 q 179 110 232 49 q 97 260 126 172 q 68 458 68 347 q 97 655 68 568 q 179 801 126 742 q 306 893 232 861 q 468 925 379 925 q 631 893 557 925 q 758 801 704 861 q 840 655 811 742 q 869 458 869 568 q 840 260 869 347 q 758 110 811 172 q 631 16 704 49 q 468 -17 557 -17 m 468 124 q 565 147 522 124 q 639 215 608 171 q 686 320 669 258 q 703 458 703 382 q 640 698 703 611 q 468 785 576 785 q 297 698 360 785 q 233 458 233 611 q 250 320 233 382 q 297 215 267 258 q 371 147 328 171 q 468 124 414 124 m 336 961 l 272 1007 l 399 1139 l 538 1139 l 664 1007 l 600 961 l 471 1058 l 465 1058 l 336 961 m 329 1111 l 278 1057 l 146 1172 l 204 1239 l 329 1111 z "},"Ổ":{"ha":936,"x_min":68,"x_max":869,"o":"m 468 -17 q 306 16 379 -17 q 179 110 232 49 q 97 260 126 172 q 68 458 68 347 q 97 655 68 568 q 179 801 126 742 q 306 893 232 861 q 468 925 379 925 q 631 893 557 925 q 758 801 704 861 q 840 655 811 742 q 869 458 869 568 q 840 260 869 347 q 758 110 811 172 q 631 16 704 49 q 468 -17 557 -17 m 468 124 q 565 147 522 124 q 639 215 608 171 q 686 320 669 258 q 703 458 703 382 q 640 698 703 611 q 468 785 576 785 q 297 698 360 785 q 233 458 233 611 q 250 320 233 382 q 297 215 267 258 q 371 147 328 171 q 468 124 414 124 m 336 961 l 272 1007 l 399 1139 l 538 1139 l 664 1007 l 600 961 l 471 1058 l 465 1058 l 336 961 m 643 1044 l 628 1101 q 667 1117 651 1107 q 682 1146 682 1126 q 660 1181 682 1169 q 588 1194 639 1192 l 603 1267 q 744 1235 701 1263 q 788 1160 788 1207 q 745 1076 788 1103 q 643 1044 703 1050 z "},"Ỗ":{"ha":936,"x_min":68,"x_max":869,"o":"m 468 -17 q 306 16 379 -17 q 179 110 232 49 q 97 260 126 172 q 68 458 68 347 q 97 655 68 568 q 179 801 126 742 q 306 893 232 861 q 468 925 379 925 q 631 893 557 925 q 758 801 704 861 q 840 655 811 742 q 869 458 869 568 q 840 260 869 347 q 758 110 811 172 q 631 16 704 49 q 468 -17 557 -17 m 468 124 q 565 147 522 124 q 639 215 608 171 q 686 320 669 258 q 703 458 703 382 q 640 698 703 611 q 468 785 576 785 q 297 698 360 785 q 233 458 233 611 q 250 320 233 382 q 297 215 267 258 q 371 147 328 171 q 468 124 414 124 m 336 961 l 272 1007 l 399 1131 l 538 1131 l 664 1007 l 600 961 l 471 1050 l 465 1050 l 336 961 m 261 1181 q 293 1284 264 1247 q 381 1321 322 1321 q 434 1310 411 1321 q 476 1288 457 1300 q 511 1266 494 1276 q 546 1256 528 1256 q 594 1315 586 1256 l 675 1306 q 643 1202 672 1239 q 556 1165 614 1165 q 502 1176 525 1165 q 460 1198 479 1186 q 425 1220 442 1210 q 390 1231 408 1231 q 342 1171 350 1231 l 261 1181 z "},"Ộ":{"ha":936,"x_min":68,"x_max":869,"o":"m 468 -17 q 306 16 379 -17 q 179 110 232 49 q 97 260 126 172 q 68 458 68 347 q 97 655 68 568 q 179 801 126 742 q 306 893 232 861 q 468 925 379 925 q 631 893 557 925 q 758 801 704 861 q 840 655 811 742 q 869 458 869 568 q 840 260 869 347 q 758 110 811 172 q 631 16 704 49 q 468 -17 557 -17 m 468 124 q 565 147 522 124 q 639 215 608 171 q 686 320 669 258 q 703 458 703 382 q 640 698 703 611 q 468 785 576 785 q 297 698 360 785 q 233 458 233 611 q 250 320 233 382 q 297 215 267 258 q 371 147 328 171 q 468 124 414 124 m 247 1007 l 382 1161 l 554 1161 l 689 1007 l 619 961 l 471 1083 l 465 1083 l 317 961 l 247 1007 m 468 -300 q 400 -274 426 -300 q 374 -208 374 -249 q 400 -143 374 -168 q 468 -118 426 -118 q 536 -143 510 -118 q 563 -208 563 -168 q 536 -274 563 -249 q 468 -300 510 -300 z "},"Ŏ":{"ha":936,"x_min":68,"x_max":869,"o":"m 468 -17 q 306 16 379 -17 q 179 110 232 49 q 97 260 126 172 q 68 458 68 347 q 97 655 68 568 q 179 801 126 742 q 306 893 232 861 q 468 925 379 925 q 631 893 557 925 q 758 801 704 861 q 840 655 811 742 q 869 458 869 568 q 840 260 869 347 q 758 110 811 172 q 631 16 704 49 q 468 -17 557 -17 m 468 124 q 565 147 522 124 q 639 215 608 171 q 686 320 669 258 q 703 458 703 382 q 640 698 703 611 q 468 785 576 785 q 297 698 360 785 q 233 458 233 611 q 250 320 233 382 q 297 215 267 258 q 371 147 328 171 q 468 124 414 124 m 468 974 q 315 1024 368 974 q 253 1158 263 1075 l 344 1174 q 384 1099 353 1128 q 468 1069 415 1069 q 552 1099 521 1069 q 592 1174 583 1128 l 683 1158 q 621 1024 674 1075 q 468 974 568 974 z "},"Ṓ":{"ha":936,"x_min":68,"x_max":869,"o":"m 468 -17 q 306 16 379 -17 q 179 110 232 49 q 97 260 126 172 q 68 458 68 347 q 97 655 68 568 q 179 801 126 742 q 306 893 232 861 q 468 925 379 925 q 631 893 557 925 q 758 801 704 861 q 840 655 811 742 q 869 458 869 568 q 840 260 869 347 q 758 110 811 172 q 631 16 704 49 q 468 -17 557 -17 m 468 124 q 565 147 522 124 q 639 215 608 171 q 686 320 669 258 q 703 458 703 382 q 640 698 703 611 q 468 785 576 785 q 297 698 360 785 q 233 458 233 611 q 250 320 233 382 q 297 215 267 258 q 371 147 328 171 q 468 124 414 124 m 433 1153 l 378 1226 l 571 1372 l 639 1282 l 433 1153 m 269 1011 l 269 1117 l 667 1117 l 667 1011 l 269 1011 z "},"Ø":{"ha":936,"x_min":63,"x_max":889,"o":"m 471 -17 q 235 61 332 -17 l 147 -50 l 63 17 l 160 140 q 94 280 117 200 q 71 458 71 360 q 100 655 71 568 q 182 801 129 742 q 308 893 235 861 q 471 925 382 925 q 714 846 614 925 l 803 958 l 889 892 l 789 765 q 851 630 829 707 q 872 458 872 553 q 843 260 872 347 q 760 110 814 172 q 633 16 707 49 q 471 -17 560 -17 m 236 458 q 244 360 236 406 q 267 276 251 314 l 619 725 q 471 785 560 785 q 299 698 363 785 q 236 458 236 611 m 471 124 q 568 147 525 124 q 642 215 611 171 q 689 320 672 258 q 706 458 706 382 q 679 625 706 553 l 329 181 q 471 124 386 124 z "},"Œ":{"ha":1193,"x_min":68,"x_max":1122,"o":"m 515 0 q 333 29 415 0 q 192 116 250 58 q 101 260 133 174 q 68 458 68 346 q 101 655 68 571 q 193 795 133 739 q 337 880 253 851 q 524 908 421 908 l 1108 908 l 1108 772 l 744 772 l 744 540 l 1050 540 l 1050 404 l 744 404 l 744 136 l 1122 136 l 1122 0 l 515 0 m 533 131 l 583 131 l 583 778 l 533 778 q 313 702 393 778 q 233 458 233 626 q 313 210 233 289 q 533 131 392 131 z "},"Ơ":{"ha":936,"x_min":71,"x_max":893,"o":"m 471 -17 q 308 16 382 -17 q 182 110 235 49 q 100 260 129 172 q 71 458 71 347 q 100 655 71 568 q 182 801 129 742 q 308 893 235 861 q 471 925 382 925 q 658 882 575 925 q 731 917 707 893 q 756 989 756 942 q 749 1035 756 1013 q 735 1075 743 1058 l 856 1125 q 882 1069 871 1101 q 893 1000 893 1036 q 853 885 893 928 q 739 824 814 843 q 838 672 803 763 q 872 458 872 581 q 843 260 872 347 q 760 110 814 172 q 633 16 707 49 q 471 -17 560 -17 m 471 124 q 568 147 525 124 q 642 215 611 171 q 689 320 672 258 q 706 458 706 382 q 642 698 706 611 q 471 785 579 785 q 299 698 363 785 q 236 458 236 611 q 253 320 236 382 q 300 215 269 258 q 374 147 331 171 q 471 124 417 124 z "},"Ớ":{"ha":936,"x_min":71,"x_max":893,"o":"m 471 -17 q 308 16 382 -17 q 182 110 235 49 q 100 260 129 172 q 71 458 71 347 q 100 655 71 568 q 182 801 129 742 q 308 893 235 861 q 471 925 382 925 q 658 882 575 925 q 731 917 707 893 q 756 989 756 942 q 749 1035 756 1013 q 735 1075 743 1058 l 856 1125 q 882 1069 871 1101 q 893 1000 893 1036 q 853 885 893 928 q 739 824 814 843 q 838 672 803 763 q 872 458 872 581 q 843 260 872 347 q 760 110 814 172 q 633 16 707 49 q 471 -17 560 -17 m 471 124 q 568 147 525 124 q 642 215 611 171 q 689 320 672 258 q 706 458 706 382 q 642 698 706 611 q 471 785 579 785 q 299 698 363 785 q 236 458 236 611 q 253 320 236 382 q 300 215 269 258 q 374 147 331 171 q 471 124 417 124 m 449 956 l 378 1036 l 596 1224 l 682 1118 l 449 956 z "},"Ờ":{"ha":936,"x_min":71,"x_max":893,"o":"m 471 -17 q 308 16 382 -17 q 182 110 235 49 q 100 260 129 172 q 71 458 71 347 q 100 655 71 568 q 182 801 129 742 q 308 893 235 861 q 471 925 382 925 q 658 882 575 925 q 731 917 707 893 q 756 989 756 942 q 749 1035 756 1013 q 735 1075 743 1058 l 856 1125 q 882 1069 871 1101 q 893 1000 893 1036 q 853 885 893 928 q 739 824 814 843 q 838 672 803 763 q 872 458 872 581 q 843 260 872 347 q 760 110 814 172 q 633 16 707 49 q 471 -17 560 -17 m 471 124 q 568 147 525 124 q 642 215 611 171 q 689 320 672 258 q 706 458 706 382 q 642 698 706 611 q 471 785 579 785 q 299 698 363 785 q 236 458 236 611 q 253 320 236 382 q 300 215 269 258 q 374 147 331 171 q 471 124 417 124 m 488 956 l 254 1118 l 340 1224 l 558 1036 l 488 956 z "},"Ở":{"ha":936,"x_min":71,"x_max":893,"o":"m 471 -17 q 308 16 382 -17 q 182 110 235 49 q 100 260 129 172 q 71 458 71 347 q 100 655 71 568 q 182 801 129 742 q 308 893 235 861 q 471 925 382 925 q 658 882 575 925 q 731 917 707 893 q 756 989 756 942 q 749 1035 756 1013 q 735 1075 743 1058 l 856 1125 q 882 1069 871 1101 q 893 1000 893 1036 q 853 885 893 928 q 739 824 814 843 q 838 672 803 763 q 872 458 872 581 q 843 260 872 347 q 760 110 814 172 q 633 16 707 49 q 471 -17 560 -17 m 471 124 q 568 147 525 124 q 642 215 611 171 q 689 320 672 258 q 706 458 706 382 q 642 698 706 611 q 471 785 579 785 q 299 698 363 785 q 236 458 236 611 q 253 320 236 382 q 300 215 269 258 q 374 147 331 171 q 471 124 417 124 m 415 964 l 401 1032 q 451 1050 431 1039 q 471 1083 471 1061 q 444 1120 471 1107 q 358 1136 418 1133 l 376 1221 q 539 1187 488 1218 q 590 1101 590 1156 q 576 1044 590 1068 q 538 1004 561 1021 q 482 978 514 988 q 415 964 450 968 z "},"Ỡ":{"ha":936,"x_min":71,"x_max":893,"o":"m 471 -17 q 308 16 382 -17 q 182 110 235 49 q 100 260 129 172 q 71 458 71 347 q 100 655 71 568 q 182 801 129 742 q 308 893 235 861 q 471 925 382 925 q 658 882 575 925 q 731 917 707 893 q 756 989 756 942 q 749 1035 756 1013 q 735 1075 743 1058 l 856 1125 q 882 1069 871 1101 q 893 1000 893 1036 q 853 885 893 928 q 739 824 814 843 q 838 672 803 763 q 872 458 872 581 q 843 260 872 347 q 760 110 814 172 q 633 16 707 49 q 471 -17 560 -17 m 471 124 q 568 147 525 124 q 642 215 611 171 q 689 320 672 258 q 706 458 706 382 q 642 698 706 611 q 471 785 579 785 q 299 698 363 785 q 236 458 236 611 q 253 320 236 382 q 300 215 269 258 q 374 147 331 171 q 471 124 417 124 m 553 972 q 487 986 515 972 q 436 1017 458 1000 q 394 1047 414 1033 q 354 1061 375 1061 q 315 1042 331 1061 q 296 982 300 1024 l 190 990 q 239 1129 196 1083 q 350 1175 282 1175 q 416 1161 388 1175 q 467 1131 444 1147 q 508 1100 489 1114 q 549 1086 528 1086 q 607 1167 597 1086 l 713 1158 q 664 1019 707 1065 q 553 972 621 972 z "},"Ợ":{"ha":936,"x_min":71,"x_max":893,"o":"m 471 -17 q 308 16 382 -17 q 182 110 235 49 q 100 260 129 172 q 71 458 71 347 q 100 655 71 568 q 182 801 129 742 q 308 893 235 861 q 471 925 382 925 q 658 882 575 925 q 731 917 707 893 q 756 989 756 942 q 749 1035 756 1013 q 735 1075 743 1058 l 856 1125 q 882 1069 871 1101 q 893 1000 893 1036 q 853 885 893 928 q 739 824 814 843 q 838 672 803 763 q 872 458 872 581 q 843 260 872 347 q 760 110 814 172 q 633 16 707 49 q 471 -17 560 -17 m 471 124 q 568 147 525 124 q 642 215 611 171 q 689 320 672 258 q 706 458 706 382 q 642 698 706 611 q 471 785 579 785 q 299 698 363 785 q 236 458 236 611 q 253 320 236 382 q 300 215 269 258 q 374 147 331 171 q 471 124 417 124 m 468 -300 q 400 -274 426 -300 q 374 -208 374 -249 q 400 -143 374 -168 q 468 -118 426 -118 q 536 -143 510 -118 q 563 -208 563 -168 q 536 -274 563 -249 q 468 -300 510 -300 z "},"Ǫ":{"ha":936,"x_min":68,"x_max":869,"o":"m 506 -303 q 402 -271 444 -303 q 360 -176 360 -239 q 386 -85 360 -126 q 447 -15 413 -43 q 290 24 360 -11 q 170 121 219 60 q 94 267 121 182 q 68 458 68 353 q 97 655 68 568 q 179 801 126 742 q 306 893 232 861 q 468 925 379 925 q 631 893 557 925 q 758 801 704 861 q 840 655 811 742 q 869 458 869 568 q 850 290 869 364 q 794 160 831 217 q 704 63 757 104 q 583 -8 651 22 q 505 -68 529 -32 q 481 -136 481 -104 q 499 -181 481 -167 q 542 -194 518 -194 q 570 -189 557 -194 q 594 -175 583 -183 l 635 -258 q 574 -290 611 -278 q 506 -303 538 -303 m 468 124 q 565 147 522 124 q 639 215 608 171 q 686 320 669 258 q 703 458 703 382 q 640 698 703 611 q 468 785 576 785 q 297 698 360 785 q 233 458 233 611 q 250 320 233 382 q 297 215 267 258 q 371 147 328 171 q 468 124 414 124 z "},"Ŕ":{"ha":822,"x_min":115,"x_max":792,"o":"m 115 0 l 115 908 l 422 908 q 554 894 493 908 q 660 849 615 881 q 730 767 704 818 q 756 639 756 715 q 706 471 756 535 q 575 379 657 407 l 792 0 l 611 0 l 415 356 l 276 356 l 276 0 l 115 0 m 276 483 l 406 483 q 548 522 499 483 q 597 639 597 561 q 548 749 597 718 q 406 779 499 779 l 276 779 l 276 483 m 396 956 l 325 1036 l 543 1224 l 629 1118 l 396 956 z "},"Ř":{"ha":822,"x_min":115,"x_max":792,"o":"m 115 0 l 115 908 l 422 908 q 554 894 493 908 q 660 849 615 881 q 730 767 704 818 q 756 639 756 715 q 706 471 756 535 q 575 379 657 407 l 792 0 l 611 0 l 415 356 l 276 356 l 276 0 l 115 0 m 276 483 l 406 483 q 548 522 499 483 q 597 639 597 561 q 548 749 597 718 q 406 779 499 779 l 276 779 l 276 483 m 329 978 l 194 1133 l 264 1178 l 413 1056 l 418 1056 l 567 1178 l 636 1133 l 501 978 l 329 978 z "},"Ṙ":{"ha":822,"x_min":115,"x_max":792,"o":"m 115 0 l 115 908 l 422 908 q 554 894 493 908 q 660 849 615 881 q 730 767 704 818 q 756 639 756 715 q 706 471 756 535 q 575 379 657 407 l 792 0 l 611 0 l 415 356 l 276 356 l 276 0 l 115 0 m 276 483 l 406 483 q 548 522 499 483 q 597 639 597 561 q 548 749 597 718 q 406 779 499 779 l 276 779 l 276 483 m 415 982 q 344 1008 372 982 q 317 1074 317 1033 q 344 1139 317 1114 q 415 1164 372 1164 q 486 1139 458 1164 q 514 1074 514 1114 q 486 1008 514 1033 q 415 982 458 982 z "},"Ŗ":{"ha":822,"x_min":115,"x_max":792,"o":"m 115 0 l 115 908 l 422 908 q 554 894 493 908 q 660 849 615 881 q 730 767 704 818 q 756 639 756 715 q 706 471 756 535 q 575 379 657 407 l 792 0 l 611 0 l 415 356 l 276 356 l 276 0 l 115 0 m 276 483 l 406 483 q 548 522 499 483 q 597 639 597 561 q 548 749 597 718 q 406 779 499 779 l 276 779 l 276 483 m 307 -324 l 293 -254 q 409 -235 378 -249 q 440 -194 440 -221 q 346 -140 440 -149 l 379 -76 q 519 -112 481 -86 q 558 -187 558 -139 q 493 -286 558 -254 q 307 -324 428 -318 z "},"Ṛ":{"ha":822,"x_min":115,"x_max":792,"o":"m 115 0 l 115 908 l 422 908 q 554 894 493 908 q 660 849 615 881 q 730 767 704 818 q 756 639 756 715 q 706 471 756 535 q 575 379 657 407 l 792 0 l 611 0 l 415 356 l 276 356 l 276 0 l 115 0 m 276 483 l 406 483 q 548 522 499 483 q 597 639 597 561 q 548 749 597 718 q 406 779 499 779 l 276 779 l 276 483 m 438 -300 q 369 -274 396 -300 q 343 -208 343 -249 q 369 -143 343 -168 q 438 -118 396 -118 q 506 -143 479 -118 q 532 -208 532 -168 q 506 -274 532 -249 q 438 -300 479 -300 z "},"Ṝ":{"ha":822,"x_min":115,"x_max":792,"o":"m 115 0 l 115 908 l 422 908 q 554 894 493 908 q 660 849 615 881 q 730 767 704 818 q 756 639 756 715 q 706 471 756 535 q 575 379 657 407 l 792 0 l 611 0 l 415 356 l 276 356 l 276 0 l 115 0 m 276 483 l 406 483 q 548 522 499 483 q 597 639 597 561 q 548 749 597 718 q 406 779 499 779 l 276 779 l 276 483 m 217 1011 l 217 1117 l 614 1117 l 614 1011 l 217 1011 m 438 -300 q 369 -274 396 -300 q 343 -208 343 -249 q 369 -143 343 -168 q 438 -118 396 -118 q 506 -143 479 -118 q 532 -208 532 -168 q 506 -274 532 -249 q 438 -300 479 -300 z "},"Ṟ":{"ha":822,"x_min":115,"x_max":792,"o":"m 115 0 l 115 908 l 422 908 q 554 894 493 908 q 660 849 615 881 q 730 767 704 818 q 756 639 756 715 q 706 471 756 535 q 575 379 657 407 l 792 0 l 611 0 l 415 356 l 276 356 l 276 0 l 115 0 m 276 483 l 406 483 q 548 522 499 483 q 597 639 597 561 q 548 749 597 718 q 406 779 499 779 l 276 779 l 276 483 m 243 -249 l 243 -143 l 632 -143 l 632 -249 l 243 -249 z "},"Ś":{"ha":757,"x_min":53,"x_max":707,"o":"m 381 -17 q 203 18 289 -17 q 53 117 118 53 l 147 226 q 258 152 196 181 q 383 124 321 124 q 501 156 461 124 q 542 240 542 188 q 531 288 542 268 q 502 322 521 307 q 458 349 483 336 q 401 374 432 361 l 276 428 q 210 463 243 442 q 151 513 178 483 q 109 581 125 542 q 93 669 93 619 q 116 770 93 724 q 179 851 139 817 q 276 906 219 886 q 399 925 332 925 q 551 894 478 925 q 678 810 625 863 l 596 707 q 504 764 551 743 q 399 785 457 785 q 294 756 333 785 q 256 678 256 728 q 267 633 256 651 q 299 599 279 614 q 346 573 319 585 q 400 550 372 561 l 524 499 q 597 460 564 482 q 655 408 631 438 q 693 341 679 379 q 707 253 707 303 q 685 149 707 197 q 620 63 663 100 q 517 5 578 26 q 381 -17 457 -17 m 376 956 l 306 1036 l 524 1224 l 610 1118 l 376 956 z "},"Ŝ":{"ha":757,"x_min":53,"x_max":707,"o":"m 381 -17 q 203 18 289 -17 q 53 117 118 53 l 147 226 q 258 152 196 181 q 383 124 321 124 q 501 156 461 124 q 542 240 542 188 q 531 288 542 268 q 502 322 521 307 q 458 349 483 336 q 401 374 432 361 l 276 428 q 210 463 243 442 q 151 513 178 483 q 109 581 125 542 q 93 669 93 619 q 116 770 93 724 q 179 851 139 817 q 276 906 219 886 q 399 925 332 925 q 551 894 478 925 q 678 810 625 863 l 596 707 q 504 764 551 743 q 399 785 457 785 q 294 756 333 785 q 256 678 256 728 q 267 633 256 651 q 299 599 279 614 q 346 573 319 585 q 400 550 372 561 l 524 499 q 597 460 564 482 q 655 408 631 438 q 693 341 679 379 q 707 253 707 303 q 685 149 707 197 q 620 63 663 100 q 517 5 578 26 q 381 -17 457 -17 m 175 1007 l 310 1161 l 482 1161 l 617 1007 l 547 961 l 399 1083 l 393 1083 l 244 961 l 175 1007 z "},"Š":{"ha":757,"x_min":53,"x_max":707,"o":"m 381 -17 q 203 18 289 -17 q 53 117 118 53 l 147 226 q 258 152 196 181 q 383 124 321 124 q 501 156 461 124 q 542 240 542 188 q 531 288 542 268 q 502 322 521 307 q 458 349 483 336 q 401 374 432 361 l 276 428 q 210 463 243 442 q 151 513 178 483 q 109 581 125 542 q 93 669 93 619 q 116 770 93 724 q 179 851 139 817 q 276 906 219 886 q 399 925 332 925 q 551 894 478 925 q 678 810 625 863 l 596 707 q 504 764 551 743 q 399 785 457 785 q 294 756 333 785 q 256 678 256 728 q 267 633 256 651 q 299 599 279 614 q 346 573 319 585 q 400 550 372 561 l 524 499 q 597 460 564 482 q 655 408 631 438 q 693 341 679 379 q 707 253 707 303 q 685 149 707 197 q 620 63 663 100 q 517 5 578 26 q 381 -17 457 -17 m 310 978 l 175 1133 l 244 1178 l 393 1056 l 399 1056 l 547 1178 l 617 1133 l 482 978 l 310 978 z "},"Ş":{"ha":757,"x_min":53,"x_max":707,"o":"m 381 -17 q 203 18 289 -17 q 53 117 118 53 l 147 226 q 258 152 196 181 q 383 124 321 124 q 501 156 461 124 q 542 240 542 188 q 531 288 542 268 q 502 322 521 307 q 458 349 483 336 q 401 374 432 361 l 276 428 q 210 463 243 442 q 151 513 178 483 q 109 581 125 542 q 93 669 93 619 q 116 770 93 724 q 179 851 139 817 q 276 906 219 886 q 399 925 332 925 q 551 894 478 925 q 678 810 625 863 l 596 707 q 504 764 551 743 q 399 785 457 785 q 294 756 333 785 q 256 678 256 728 q 267 633 256 651 q 299 599 279 614 q 346 573 319 585 q 400 550 372 561 l 524 499 q 597 460 564 482 q 655 408 631 438 q 693 341 679 379 q 707 253 707 303 q 685 149 707 197 q 620 63 663 100 q 517 5 578 26 q 381 -17 457 -17 m 253 -324 l 239 -254 q 355 -234 324 -249 q 386 -189 386 -219 q 364 -150 386 -165 q 279 -126 342 -135 l 343 4 l 440 4 l 400 -86 q 477 -122 450 -99 q 504 -187 504 -144 q 439 -286 504 -254 q 253 -324 374 -318 z "},"Ș":{"ha":757,"x_min":53,"x_max":707,"o":"m 381 -17 q 203 18 289 -17 q 53 117 118 53 l 147 226 q 258 152 196 181 q 383 124 321 124 q 501 156 461 124 q 542 240 542 188 q 531 288 542 268 q 502 322 521 307 q 458 349 483 336 q 401 374 432 361 l 276 428 q 210 463 243 442 q 151 513 178 483 q 109 581 125 542 q 93 669 93 619 q 116 770 93 724 q 179 851 139 817 q 276 906 219 886 q 399 925 332 925 q 551 894 478 925 q 678 810 625 863 l 596 707 q 504 764 551 743 q 399 785 457 785 q 294 756 333 785 q 256 678 256 728 q 267 633 256 651 q 299 599 279 614 q 346 573 319 585 q 400 550 372 561 l 524 499 q 597 460 564 482 q 655 408 631 438 q 693 341 679 379 q 707 253 707 303 q 685 149 707 197 q 620 63 663 100 q 517 5 578 26 q 381 -17 457 -17 m 253 -324 l 239 -254 q 355 -235 324 -249 q 386 -194 386 -221 q 292 -140 386 -149 l 325 -76 q 465 -112 426 -86 q 504 -187 504 -139 q 439 -286 504 -254 q 253 -324 374 -318 z "},"Ṡ":{"ha":757,"x_min":53,"x_max":707,"o":"m 381 -17 q 203 18 289 -17 q 53 117 118 53 l 147 226 q 258 152 196 181 q 383 124 321 124 q 501 156 461 124 q 542 240 542 188 q 531 288 542 268 q 502 322 521 307 q 458 349 483 336 q 401 374 432 361 l 276 428 q 210 463 243 442 q 151 513 178 483 q 109 581 125 542 q 93 669 93 619 q 116 770 93 724 q 179 851 139 817 q 276 906 219 886 q 399 925 332 925 q 551 894 478 925 q 678 810 625 863 l 596 707 q 504 764 551 743 q 399 785 457 785 q 294 756 333 785 q 256 678 256 728 q 267 633 256 651 q 299 599 279 614 q 346 573 319 585 q 400 550 372 561 l 524 499 q 597 460 564 482 q 655 408 631 438 q 693 341 679 379 q 707 253 707 303 q 685 149 707 197 q 620 63 663 100 q 517 5 578 26 q 381 -17 457 -17 m 396 982 q 325 1008 353 982 q 297 1074 297 1033 q 325 1139 297 1114 q 396 1164 353 1164 q 467 1139 439 1164 q 494 1074 494 1114 q 467 1008 494 1033 q 396 982 439 982 z "},"Ṣ":{"ha":757,"x_min":53,"x_max":707,"o":"m 381 -17 q 203 18 289 -17 q 53 117 118 53 l 147 226 q 258 152 196 181 q 383 124 321 124 q 501 156 461 124 q 542 240 542 188 q 531 288 542 268 q 502 322 521 307 q 458 349 483 336 q 401 374 432 361 l 276 428 q 210 463 243 442 q 151 513 178 483 q 109 581 125 542 q 93 669 93 619 q 116 770 93 724 q 179 851 139 817 q 276 906 219 886 q 399 925 332 925 q 551 894 478 925 q 678 810 625 863 l 596 707 q 504 764 551 743 q 399 785 457 785 q 294 756 333 785 q 256 678 256 728 q 267 633 256 651 q 299 599 279 614 q 346 573 319 585 q 400 550 372 561 l 524 499 q 597 460 564 482 q 655 408 631 438 q 693 341 679 379 q 707 253 707 303 q 685 149 707 197 q 620 63 663 100 q 517 5 578 26 q 381 -17 457 -17 m 383 -300 q 315 -274 342 -300 q 289 -208 289 -249 q 315 -143 289 -168 q 383 -118 342 -118 q 451 -143 425 -118 q 478 -208 478 -168 q 451 -274 478 -249 q 383 -300 425 -300 z "},"ẞ":{"ha":953,"x_min":119,"x_max":896,"o":"m 622 -17 q 473 13 538 -17 q 368 86 408 43 l 456 186 q 528 131 492 147 q 606 115 565 115 q 697 151 664 115 q 731 243 731 186 q 719 294 731 269 q 680 339 707 318 q 607 377 653 360 q 493 406 561 394 l 482 503 l 653 696 q 592 765 633 736 q 488 793 550 793 q 334 733 388 793 q 281 549 281 674 l 281 0 l 119 0 l 119 574 q 143 717 119 653 q 213 828 167 782 q 329 899 260 874 q 492 925 399 925 q 699 860 618 925 q 815 690 781 796 l 644 500 q 832 406 768 469 q 896 242 896 343 q 877 140 896 188 q 824 58 858 93 q 738 3 789 24 q 622 -17 686 -17 z "},"Ť":{"ha":758,"x_min":36,"x_max":722,"o":"m 299 0 l 299 772 l 36 772 l 36 908 l 722 908 l 722 772 l 460 772 l 460 0 l 299 0 m 293 978 l 158 1133 l 228 1178 l 376 1056 l 382 1056 l 531 1178 l 600 1133 l 465 978 l 293 978 z "},"Ţ":{"ha":758,"x_min":36,"x_max":722,"o":"m 299 0 l 299 772 l 36 772 l 36 908 l 722 908 l 722 772 l 460 772 l 460 0 l 299 0 m 247 -324 l 233 -254 q 349 -234 318 -249 q 381 -189 381 -219 q 358 -150 381 -165 q 274 -126 336 -135 l 338 4 l 435 4 l 394 -86 q 472 -122 444 -99 q 499 -187 499 -144 q 433 -286 499 -254 q 247 -324 368 -318 z "},"Ț":{"ha":758,"x_min":36,"x_max":722,"o":"m 299 0 l 299 772 l 36 772 l 36 908 l 722 908 l 722 772 l 460 772 l 460 0 l 299 0 m 249 -324 l 235 -254 q 351 -235 319 -249 q 382 -194 382 -221 q 288 -140 382 -149 l 321 -76 q 461 -112 422 -86 q 500 -187 500 -139 q 435 -286 500 -254 q 249 -324 369 -318 z "},"Ṭ":{"ha":758,"x_min":36,"x_max":722,"o":"m 299 0 l 299 772 l 36 772 l 36 908 l 722 908 l 722 772 l 460 772 l 460 0 l 299 0 m 379 -300 q 311 -274 338 -300 q 285 -208 285 -249 q 311 -143 285 -168 q 379 -118 338 -118 q 447 -143 421 -118 q 474 -208 474 -168 q 447 -274 474 -249 q 379 -300 421 -300 z "},"Ṯ":{"ha":758,"x_min":36,"x_max":722,"o":"m 299 0 l 299 772 l 36 772 l 36 908 l 722 908 l 722 772 l 460 772 l 460 0 l 299 0 m 185 -249 l 185 -143 l 574 -143 l 574 -249 l 185 -249 z "},"Ŧ":{"ha":758,"x_min":36,"x_max":722,"o":"m 299 0 l 299 415 l 131 415 l 131 492 l 258 497 l 299 497 l 299 772 l 36 772 l 36 908 l 722 908 l 722 772 l 460 772 l 460 497 l 628 497 l 628 415 l 460 415 l 460 0 l 299 0 z "},"Ù":{"ha":910,"x_min":111,"x_max":799,"o":"m 456 -17 q 313 6 376 -17 q 205 79 250 29 q 135 208 160 129 q 111 399 111 286 l 111 908 l 272 908 l 272 386 q 285 262 272 313 q 323 181 299 211 q 381 137 347 150 q 456 124 414 124 q 532 137 497 124 q 592 181 567 150 q 631 262 617 211 q 644 386 644 313 l 644 908 l 799 908 l 799 399 q 775 208 799 286 q 706 79 751 129 q 598 6 661 29 q 456 -17 535 -17 m 474 956 l 240 1118 l 326 1224 l 544 1036 l 474 956 z "},"Ú":{"ha":910,"x_min":111,"x_max":799,"o":"m 456 -17 q 313 6 376 -17 q 205 79 250 29 q 135 208 160 129 q 111 399 111 286 l 111 908 l 272 908 l 272 386 q 285 262 272 313 q 323 181 299 211 q 381 137 347 150 q 456 124 414 124 q 532 137 497 124 q 592 181 567 150 q 631 262 617 211 q 644 386 644 313 l 644 908 l 799 908 l 799 399 q 775 208 799 286 q 706 79 751 129 q 598 6 661 29 q 456 -17 535 -17 m 435 956 l 364 1036 l 582 1224 l 668 1118 l 435 956 z "},"Û":{"ha":910,"x_min":111,"x_max":799,"o":"m 456 -17 q 313 6 376 -17 q 205 79 250 29 q 135 208 160 129 q 111 399 111 286 l 111 908 l 272 908 l 272 386 q 285 262 272 313 q 323 181 299 211 q 381 137 347 150 q 456 124 414 124 q 532 137 497 124 q 592 181 567 150 q 631 262 617 211 q 644 386 644 313 l 644 908 l 799 908 l 799 399 q 775 208 799 286 q 706 79 751 129 q 598 6 661 29 q 456 -17 535 -17 m 233 1007 l 368 1161 l 540 1161 l 675 1007 l 606 961 l 457 1083 l 451 1083 l 303 961 l 233 1007 z "},"Ũ":{"ha":910,"x_min":111,"x_max":799,"o":"m 456 -17 q 313 6 376 -17 q 205 79 250 29 q 135 208 160 129 q 111 399 111 286 l 111 908 l 272 908 l 272 386 q 285 262 272 313 q 323 181 299 211 q 381 137 347 150 q 456 124 414 124 q 532 137 497 124 q 592 181 567 150 q 631 262 617 211 q 644 386 644 313 l 644 908 l 799 908 l 799 399 q 775 208 799 286 q 706 79 751 129 q 598 6 661 29 q 456 -17 535 -17 m 556 972 q 490 986 518 972 q 439 1017 461 1000 q 397 1047 417 1033 q 357 1061 378 1061 q 318 1042 333 1061 q 299 982 303 1024 l 193 990 q 242 1129 199 1083 q 353 1175 285 1175 q 419 1161 390 1175 q 469 1131 447 1147 q 511 1100 492 1114 q 551 1086 531 1086 q 610 1167 600 1086 l 715 1158 q 667 1019 710 1065 q 556 972 624 972 z "},"Ü":{"ha":910,"x_min":111,"x_max":799,"o":"m 456 -17 q 313 6 376 -17 q 205 79 250 29 q 135 208 160 129 q 111 399 111 286 l 111 908 l 272 908 l 272 386 q 285 262 272 313 q 323 181 299 211 q 381 137 347 150 q 456 124 414 124 q 532 137 497 124 q 592 181 567 150 q 631 262 617 211 q 644 386 644 313 l 644 908 l 799 908 l 799 399 q 775 208 799 286 q 706 79 751 129 q 598 6 661 29 q 456 -17 535 -17 m 306 983 q 247 1006 269 983 q 224 1065 224 1029 q 247 1125 224 1101 q 306 1149 269 1149 q 365 1125 342 1149 q 389 1065 389 1101 q 365 1006 389 1029 q 306 983 342 983 m 603 983 q 543 1006 567 983 q 519 1065 519 1029 q 543 1125 519 1101 q 603 1149 567 1149 q 662 1125 639 1149 q 685 1065 685 1101 q 662 1006 685 1029 q 603 983 639 983 z "},"Ū":{"ha":910,"x_min":111,"x_max":799,"o":"m 456 -17 q 313 6 376 -17 q 205 79 250 29 q 135 208 160 129 q 111 399 111 286 l 111 908 l 272 908 l 272 386 q 285 262 272 313 q 323 181 299 211 q 381 137 347 150 q 456 124 414 124 q 532 137 497 124 q 592 181 567 150 q 631 262 617 211 q 644 386 644 313 l 644 908 l 799 908 l 799 399 q 775 208 799 286 q 706 79 751 129 q 598 6 661 29 q 456 -17 535 -17 m 256 1011 l 256 1117 l 653 1117 l 653 1011 l 256 1011 z "},"Ŭ":{"ha":910,"x_min":111,"x_max":799,"o":"m 456 -17 q 313 6 376 -17 q 205 79 250 29 q 135 208 160 129 q 111 399 111 286 l 111 908 l 272 908 l 272 386 q 285 262 272 313 q 323 181 299 211 q 381 137 347 150 q 456 124 414 124 q 532 137 497 124 q 592 181 567 150 q 631 262 617 211 q 644 386 644 313 l 644 908 l 799 908 l 799 399 q 775 208 799 286 q 706 79 751 129 q 598 6 661 29 q 456 -17 535 -17 m 454 974 q 301 1024 354 974 q 239 1158 249 1075 l 331 1174 q 370 1099 339 1128 q 454 1069 401 1069 q 538 1099 507 1069 q 578 1174 569 1128 l 669 1158 q 607 1024 660 1075 q 454 974 554 974 z "},"Ů":{"ha":910,"x_min":111,"x_max":799,"o":"m 456 -17 q 313 6 376 -17 q 205 79 250 29 q 135 208 160 129 q 111 399 111 286 l 111 908 l 272 908 l 272 386 q 285 262 272 313 q 323 181 299 211 q 381 137 347 150 q 456 124 414 124 q 532 137 497 124 q 592 181 567 150 q 631 262 617 211 q 644 386 644 313 l 644 908 l 799 908 l 799 399 q 775 208 799 286 q 706 79 751 129 q 598 6 661 29 q 456 -17 535 -17 m 454 969 q 348 1005 389 969 q 307 1100 307 1040 q 348 1197 307 1161 q 454 1232 389 1232 q 560 1197 518 1232 q 601 1100 601 1161 q 560 1005 601 1040 q 454 969 518 969 m 454 1033 q 499 1051 481 1033 q 518 1100 518 1068 q 499 1150 518 1132 q 454 1168 481 1168 q 408 1150 426 1168 q 389 1100 389 1132 q 408 1051 389 1068 q 454 1033 426 1033 z "},"Ű":{"ha":910,"x_min":111,"x_max":799,"o":"m 456 -17 q 313 6 376 -17 q 205 79 250 29 q 135 208 160 129 q 111 399 111 286 l 111 908 l 272 908 l 272 386 q 285 262 272 313 q 323 181 299 211 q 381 137 347 150 q 456 124 414 124 q 532 137 497 124 q 592 181 567 150 q 631 262 617 211 q 644 386 644 313 l 644 908 l 799 908 l 799 399 q 775 208 799 286 q 706 79 751 129 q 598 6 661 29 q 456 -17 535 -17 m 289 1008 l 424 1226 l 528 1167 l 369 969 l 289 1008 m 531 1008 l 665 1226 l 769 1167 l 611 969 l 531 1008 z "},"Ǔ":{"ha":910,"x_min":111,"x_max":799,"o":"m 456 -17 q 313 6 376 -17 q 205 79 250 29 q 135 208 160 129 q 111 399 111 286 l 111 908 l 272 908 l 272 386 q 285 262 272 313 q 323 181 299 211 q 381 137 347 150 q 456 124 414 124 q 532 137 497 124 q 592 181 567 150 q 631 262 617 211 q 644 386 644 313 l 644 908 l 799 908 l 799 399 q 775 208 799 286 q 706 79 751 129 q 598 6 661 29 q 456 -17 535 -17 m 368 978 l 233 1133 l 303 1178 l 451 1056 l 457 1056 l 606 1178 l 675 1133 l 540 978 l 368 978 z "},"Ǖ":{"ha":910,"x_min":111,"x_max":799,"o":"m 456 -17 q 313 6 376 -17 q 205 79 250 29 q 135 208 160 129 q 111 399 111 286 l 111 908 l 272 908 l 272 386 q 285 262 272 313 q 323 181 299 211 q 381 137 347 150 q 456 124 414 124 q 532 137 497 124 q 592 181 567 150 q 631 262 617 211 q 644 386 644 313 l 644 908 l 799 908 l 799 399 q 775 208 799 286 q 706 79 751 129 q 598 6 661 29 q 456 -17 535 -17 m 306 983 q 253 1004 274 983 q 232 1057 232 1025 q 253 1110 232 1089 q 306 1132 274 1132 q 359 1110 338 1132 q 381 1057 381 1089 q 359 1004 381 1025 q 306 983 338 983 m 256 1203 l 256 1283 l 653 1283 l 653 1203 l 256 1203 m 603 983 q 549 1004 571 983 q 528 1057 528 1025 q 549 1110 528 1089 q 603 1132 571 1132 q 656 1110 635 1132 q 676 1057 676 1089 q 656 1004 676 1025 q 603 983 635 983 z "},"Ǘ":{"ha":910,"x_min":111,"x_max":799,"o":"m 456 -17 q 313 6 376 -17 q 205 79 250 29 q 135 208 160 129 q 111 399 111 286 l 111 908 l 272 908 l 272 386 q 285 262 272 313 q 323 181 299 211 q 381 137 347 150 q 456 124 414 124 q 532 137 497 124 q 592 181 567 150 q 631 262 617 211 q 644 386 644 313 l 644 908 l 799 908 l 799 399 q 775 208 799 286 q 706 79 751 129 q 598 6 661 29 q 456 -17 535 -17 m 306 983 q 253 1004 274 983 q 232 1057 232 1025 q 253 1110 232 1089 q 306 1132 274 1132 q 359 1110 338 1132 q 381 1057 381 1089 q 359 1004 381 1025 q 306 983 338 983 m 389 1189 l 521 1374 l 622 1308 l 460 1144 l 389 1189 m 603 983 q 549 1004 571 983 q 528 1057 528 1025 q 549 1110 528 1089 q 603 1132 571 1132 q 656 1110 635 1132 q 676 1057 676 1089 q 656 1004 676 1025 q 603 983 635 983 z "},"Ǚ":{"ha":910,"x_min":111,"x_max":799,"o":"m 456 -17 q 313 6 376 -17 q 205 79 250 29 q 135 208 160 129 q 111 399 111 286 l 111 908 l 272 908 l 272 386 q 285 262 272 313 q 323 181 299 211 q 381 137 347 150 q 456 124 414 124 q 532 137 497 124 q 592 181 567 150 q 631 262 617 211 q 644 386 644 313 l 644 908 l 799 908 l 799 399 q 775 208 799 286 q 706 79 751 129 q 598 6 661 29 q 456 -17 535 -17 m 385 1175 l 253 1314 l 317 1360 l 451 1257 l 457 1257 l 592 1360 l 656 1314 l 524 1175 l 385 1175 m 306 983 q 253 1004 274 983 q 232 1057 232 1025 q 253 1110 232 1089 q 306 1132 274 1132 q 359 1110 338 1132 q 381 1057 381 1089 q 359 1004 381 1025 q 306 983 338 983 m 603 983 q 549 1004 571 983 q 528 1057 528 1025 q 549 1110 528 1089 q 603 1132 571 1132 q 656 1110 635 1132 q 676 1057 676 1089 q 656 1004 676 1025 q 603 983 635 983 z "},"Ǜ":{"ha":910,"x_min":111,"x_max":799,"o":"m 456 -17 q 313 6 376 -17 q 205 79 250 29 q 135 208 160 129 q 111 399 111 286 l 111 908 l 272 908 l 272 386 q 285 262 272 313 q 323 181 299 211 q 381 137 347 150 q 456 124 414 124 q 532 137 497 124 q 592 181 567 150 q 631 262 617 211 q 644 386 644 313 l 644 908 l 799 908 l 799 399 q 775 208 799 286 q 706 79 751 129 q 598 6 661 29 q 456 -17 535 -17 m 519 1189 l 449 1144 l 286 1308 l 388 1374 l 519 1189 m 306 983 q 253 1004 274 983 q 232 1057 232 1025 q 253 1110 232 1089 q 306 1132 274 1132 q 359 1110 338 1132 q 381 1057 381 1089 q 359 1004 381 1025 q 306 983 338 983 m 603 983 q 549 1004 571 983 q 528 1057 528 1025 q 549 1110 528 1089 q 603 1132 571 1132 q 656 1110 635 1132 q 676 1057 676 1089 q 656 1004 676 1025 q 603 983 635 983 z "},"Ụ":{"ha":910,"x_min":111,"x_max":799,"o":"m 456 -17 q 313 6 376 -17 q 205 79 250 29 q 135 208 160 129 q 111 399 111 286 l 111 908 l 272 908 l 272 386 q 285 262 272 313 q 323 181 299 211 q 381 137 347 150 q 456 124 414 124 q 532 137 497 124 q 592 181 567 150 q 631 262 617 211 q 644 386 644 313 l 644 908 l 799 908 l 799 399 q 775 208 799 286 q 706 79 751 129 q 598 6 661 29 q 456 -17 535 -17 m 454 -300 q 386 -274 413 -300 q 360 -208 360 -249 q 386 -143 360 -168 q 454 -118 413 -118 q 522 -143 496 -118 q 549 -208 549 -168 q 522 -274 549 -249 q 454 -300 496 -300 z "},"Ủ":{"ha":910,"x_min":111,"x_max":799,"o":"m 456 -17 q 313 6 376 -17 q 205 79 250 29 q 135 208 160 129 q 111 399 111 286 l 111 908 l 272 908 l 272 386 q 285 262 272 313 q 323 181 299 211 q 381 137 347 150 q 456 124 414 124 q 532 137 497 124 q 592 181 567 150 q 631 262 617 211 q 644 386 644 313 l 644 908 l 799 908 l 799 399 q 775 208 799 286 q 706 79 751 129 q 598 6 661 29 q 456 -17 535 -17 m 401 964 l 388 1032 q 437 1050 417 1039 q 457 1083 457 1061 q 431 1120 457 1107 q 344 1136 404 1133 l 363 1221 q 525 1187 474 1218 q 576 1101 576 1156 q 562 1044 576 1068 q 524 1004 547 1021 q 468 978 500 988 q 401 964 436 968 z "},"Ų":{"ha":910,"x_min":111,"x_max":799,"o":"m 492 -303 q 387 -271 429 -303 q 344 -176 344 -239 q 354 -121 344 -146 q 378 -76 364 -96 q 407 -41 392 -56 q 433 -15 422 -26 q 299 14 358 -11 q 197 89 239 39 q 133 215 156 139 q 111 399 111 292 l 111 908 l 272 908 l 272 386 q 285 262 272 313 q 323 181 299 211 q 381 137 347 150 q 456 124 414 124 q 532 137 497 124 q 592 181 567 150 q 631 262 617 211 q 644 386 644 313 l 644 908 l 799 908 l 799 399 q 784 239 799 304 q 740 127 769 174 q 668 49 711 81 q 569 -8 625 18 q 491 -69 517 -33 q 465 -136 465 -104 q 485 -181 465 -167 q 528 -194 504 -194 q 556 -189 543 -194 q 581 -175 569 -183 l 619 -258 q 560 -290 596 -278 q 492 -303 524 -303 z "},"Ư":{"ha":932,"x_min":111,"x_max":972,"o":"m 456 -17 q 313 6 376 -17 q 205 79 250 29 q 135 208 160 129 q 111 399 111 286 l 111 908 l 272 908 l 272 386 q 285 262 272 313 q 323 181 299 211 q 381 137 347 150 q 456 124 414 124 q 532 137 497 124 q 592 181 567 150 q 631 262 617 211 q 644 386 644 313 l 644 908 l 715 908 q 762 916 740 910 q 799 934 783 922 q 825 966 815 946 q 835 1017 835 986 q 828 1063 835 1040 q 814 1103 822 1086 l 936 1153 q 962 1097 951 1129 q 972 1028 972 1064 q 924 903 972 946 q 799 846 875 861 l 799 399 q 775 208 799 286 q 706 79 751 129 q 598 6 661 29 q 456 -17 535 -17 z "},"Ứ":{"ha":932,"x_min":111,"x_max":972,"o":"m 456 -17 q 313 6 376 -17 q 205 79 250 29 q 135 208 160 129 q 111 399 111 286 l 111 908 l 272 908 l 272 386 q 285 262 272 313 q 323 181 299 211 q 381 137 347 150 q 456 124 414 124 q 532 137 497 124 q 592 181 567 150 q 631 262 617 211 q 644 386 644 313 l 644 908 l 715 908 q 762 916 740 910 q 799 934 783 922 q 825 966 815 946 q 835 1017 835 986 q 828 1063 835 1040 q 814 1103 822 1086 l 936 1153 q 962 1097 951 1129 q 972 1028 972 1064 q 924 903 972 946 q 799 846 875 861 l 799 399 q 775 208 799 286 q 706 79 751 129 q 598 6 661 29 q 456 -17 535 -17 m 435 956 l 364 1036 l 582 1224 l 668 1118 l 435 956 z "},"Ừ":{"ha":932,"x_min":111,"x_max":972,"o":"m 456 -17 q 313 6 376 -17 q 205 79 250 29 q 135 208 160 129 q 111 399 111 286 l 111 908 l 272 908 l 272 386 q 285 262 272 313 q 323 181 299 211 q 381 137 347 150 q 456 124 414 124 q 532 137 497 124 q 592 181 567 150 q 631 262 617 211 q 644 386 644 313 l 644 908 l 715 908 q 762 916 740 910 q 799 934 783 922 q 825 966 815 946 q 835 1017 835 986 q 828 1063 835 1040 q 814 1103 822 1086 l 936 1153 q 962 1097 951 1129 q 972 1028 972 1064 q 924 903 972 946 q 799 846 875 861 l 799 399 q 775 208 799 286 q 706 79 751 129 q 598 6 661 29 q 456 -17 535 -17 m 474 956 l 240 1118 l 326 1224 l 544 1036 l 474 956 z "},"Ử":{"ha":932,"x_min":111,"x_max":972,"o":"m 456 -17 q 313 6 376 -17 q 205 79 250 29 q 135 208 160 129 q 111 399 111 286 l 111 908 l 272 908 l 272 386 q 285 262 272 313 q 323 181 299 211 q 381 137 347 150 q 456 124 414 124 q 532 137 497 124 q 592 181 567 150 q 631 262 617 211 q 644 386 644 313 l 644 908 l 715 908 q 762 916 740 910 q 799 934 783 922 q 825 966 815 946 q 835 1017 835 986 q 828 1063 835 1040 q 814 1103 822 1086 l 936 1153 q 962 1097 951 1129 q 972 1028 972 1064 q 924 903 972 946 q 799 846 875 861 l 799 399 q 775 208 799 286 q 706 79 751 129 q 598 6 661 29 q 456 -17 535 -17 m 401 964 l 388 1032 q 437 1050 417 1039 q 457 1083 457 1061 q 431 1120 457 1107 q 344 1136 404 1133 l 363 1221 q 525 1187 474 1218 q 576 1101 576 1156 q 562 1044 576 1068 q 524 1004 547 1021 q 468 978 500 988 q 401 964 436 968 z "},"Ữ":{"ha":932,"x_min":111,"x_max":972,"o":"m 456 -17 q 313 6 376 -17 q 205 79 250 29 q 135 208 160 129 q 111 399 111 286 l 111 908 l 272 908 l 272 386 q 285 262 272 313 q 323 181 299 211 q 381 137 347 150 q 456 124 414 124 q 532 137 497 124 q 592 181 567 150 q 631 262 617 211 q 644 386 644 313 l 644 908 l 715 908 q 762 916 740 910 q 799 934 783 922 q 825 966 815 946 q 835 1017 835 986 q 828 1063 835 1040 q 814 1103 822 1086 l 936 1153 q 962 1097 951 1129 q 972 1028 972 1064 q 924 903 972 946 q 799 846 875 861 l 799 399 q 775 208 799 286 q 706 79 751 129 q 598 6 661 29 q 456 -17 535 -17 m 556 972 q 490 986 518 972 q 439 1017 461 1000 q 397 1047 417 1033 q 357 1061 378 1061 q 318 1042 333 1061 q 299 982 303 1024 l 193 990 q 242 1129 199 1083 q 353 1175 285 1175 q 419 1161 390 1175 q 469 1131 447 1147 q 511 1100 492 1114 q 551 1086 531 1086 q 610 1167 600 1086 l 715 1158 q 667 1019 710 1065 q 556 972 624 972 z "},"Ự":{"ha":932,"x_min":111,"x_max":972,"o":"m 456 -17 q 313 6 376 -17 q 205 79 250 29 q 135 208 160 129 q 111 399 111 286 l 111 908 l 272 908 l 272 386 q 285 262 272 313 q 323 181 299 211 q 381 137 347 150 q 456 124 414 124 q 532 137 497 124 q 592 181 567 150 q 631 262 617 211 q 644 386 644 313 l 644 908 l 715 908 q 762 916 740 910 q 799 934 783 922 q 825 966 815 946 q 835 1017 835 986 q 828 1063 835 1040 q 814 1103 822 1086 l 936 1153 q 962 1097 951 1129 q 972 1028 972 1064 q 924 903 972 946 q 799 846 875 861 l 799 399 q 775 208 799 286 q 706 79 751 129 q 598 6 661 29 q 456 -17 535 -17 m 454 -300 q 386 -274 413 -300 q 360 -208 360 -249 q 386 -143 360 -168 q 454 -118 413 -118 q 522 -143 496 -118 q 549 -208 549 -168 q 522 -274 549 -249 q 454 -300 496 -300 z "},"Ẁ":{"ha":1111,"x_min":25,"x_max":1085,"o":"m 206 0 l 25 908 l 190 908 l 269 450 q 292 304 281 376 q 314 160 303 232 l 319 160 q 349 305 335 232 q 379 450 364 378 l 490 908 l 631 908 l 742 450 q 772 306 757 379 q 803 160 788 233 l 808 160 q 830 306 819 233 q 851 450 840 378 l 931 908 l 1085 908 l 911 0 l 711 0 l 599 478 q 577 583 588 531 q 558 688 567 635 l 553 688 q 533 583 543 635 q 511 478 522 531 l 401 0 l 206 0 m 575 956 l 342 1118 l 428 1224 l 646 1036 l 575 956 z "},"Ẃ":{"ha":1111,"x_min":25,"x_max":1085,"o":"m 206 0 l 25 908 l 190 908 l 269 450 q 292 304 281 376 q 314 160 303 232 l 319 160 q 349 305 335 232 q 379 450 364 378 l 490 908 l 631 908 l 742 450 q 772 306 757 379 q 803 160 788 233 l 808 160 q 830 306 819 233 q 851 450 840 378 l 931 908 l 1085 908 l 911 0 l 711 0 l 599 478 q 577 583 588 531 q 558 688 567 635 l 553 688 q 533 583 543 635 q 511 478 522 531 l 401 0 l 206 0 m 536 956 l 465 1036 l 683 1224 l 769 1118 l 536 956 z "},"Ŵ":{"ha":1111,"x_min":25,"x_max":1085,"o":"m 206 0 l 25 908 l 190 908 l 269 450 q 292 304 281 376 q 314 160 303 232 l 319 160 q 349 305 335 232 q 379 450 364 378 l 490 908 l 631 908 l 742 450 q 772 306 757 379 q 803 160 788 233 l 808 160 q 830 306 819 233 q 851 450 840 378 l 931 908 l 1085 908 l 911 0 l 711 0 l 599 478 q 577 583 588 531 q 558 688 567 635 l 553 688 q 533 583 543 635 q 511 478 522 531 l 401 0 l 206 0 m 335 1007 l 469 1161 l 642 1161 l 776 1007 l 707 961 l 558 1083 l 553 1083 l 404 961 l 335 1007 z "},"Ẅ":{"ha":1111,"x_min":25,"x_max":1085,"o":"m 206 0 l 25 908 l 190 908 l 269 450 q 292 304 281 376 q 314 160 303 232 l 319 160 q 349 305 335 232 q 379 450 364 378 l 490 908 l 631 908 l 742 450 q 772 306 757 379 q 803 160 788 233 l 808 160 q 830 306 819 233 q 851 450 840 378 l 931 908 l 1085 908 l 911 0 l 711 0 l 599 478 q 577 583 588 531 q 558 688 567 635 l 553 688 q 533 583 543 635 q 511 478 522 531 l 401 0 l 206 0 m 407 983 q 348 1006 371 983 q 325 1065 325 1029 q 348 1125 325 1101 q 407 1149 371 1149 q 467 1125 443 1149 q 490 1065 490 1101 q 467 1006 490 1029 q 407 983 443 983 m 704 983 q 644 1006 668 983 q 621 1065 621 1029 q 644 1125 621 1101 q 704 1149 668 1149 q 763 1125 740 1149 q 786 1065 786 1101 q 763 1006 786 1029 q 704 983 740 983 z "},"Ỳ":{"ha":696,"x_min":-6,"x_max":701,"o":"m 267 0 l 267 338 l -6 908 l 167 908 l 265 676 q 304 577 285 625 q 346 476 324 529 l 351 476 q 394 577 374 529 q 435 676 415 625 l 533 908 l 701 908 l 428 338 l 428 0 l 267 0 m 367 956 l 133 1118 l 219 1224 l 438 1036 l 367 956 z "},"Ý":{"ha":696,"x_min":-6,"x_max":701,"o":"m 267 0 l 267 338 l -6 908 l 167 908 l 265 676 q 304 577 285 625 q 346 476 324 529 l 351 476 q 394 577 374 529 q 435 676 415 625 l 533 908 l 701 908 l 428 338 l 428 0 l 267 0 m 328 956 l 257 1036 l 475 1224 l 561 1118 l 328 956 z "},"Ŷ":{"ha":696,"x_min":-6,"x_max":701,"o":"m 267 0 l 267 338 l -6 908 l 167 908 l 265 676 q 304 577 285 625 q 346 476 324 529 l 351 476 q 394 577 374 529 q 435 676 415 625 l 533 908 l 701 908 l 428 338 l 428 0 l 267 0 m 126 1007 l 261 1161 l 433 1161 l 568 1007 l 499 961 l 350 1083 l 344 1083 l 196 961 l 126 1007 z "},"Ÿ":{"ha":696,"x_min":-6,"x_max":701,"o":"m 267 0 l 267 338 l -6 908 l 167 908 l 265 676 q 304 577 285 625 q 346 476 324 529 l 351 476 q 394 577 374 529 q 435 676 415 625 l 533 908 l 701 908 l 428 338 l 428 0 l 267 0 m 199 983 q 140 1006 163 983 q 117 1065 117 1029 q 140 1125 117 1101 q 199 1149 163 1149 q 258 1125 235 1149 q 282 1065 282 1101 q 258 1006 282 1029 q 199 983 235 983 m 496 983 q 436 1006 460 983 q 413 1065 413 1029 q 436 1125 413 1101 q 496 1149 460 1149 q 555 1125 532 1149 q 578 1065 578 1101 q 555 1006 578 1029 q 496 983 532 983 z "},"Ẏ":{"ha":696,"x_min":-6,"x_max":701,"o":"m 267 0 l 267 338 l -6 908 l 167 908 l 265 676 q 304 577 285 625 q 346 476 324 529 l 351 476 q 394 577 374 529 q 435 676 415 625 l 533 908 l 701 908 l 428 338 l 428 0 l 267 0 m 347 982 q 276 1008 304 982 q 249 1074 249 1033 q 276 1139 249 1114 q 347 1164 304 1164 q 418 1139 390 1164 q 446 1074 446 1114 q 418 1008 446 1033 q 347 982 390 982 z "},"Ỵ":{"ha":696,"x_min":-6,"x_max":701,"o":"m 267 0 l 267 338 l -6 908 l 167 908 l 265 676 q 304 577 285 625 q 346 476 324 529 l 351 476 q 394 577 374 529 q 435 676 415 625 l 533 908 l 701 908 l 428 338 l 428 0 l 267 0 m 350 -300 q 282 -274 308 -300 q 256 -208 256 -249 q 282 -143 256 -168 q 350 -118 308 -118 q 418 -143 392 -118 q 444 -208 444 -168 q 418 -274 444 -249 q 350 -300 392 -300 z "},"Ỷ":{"ha":696,"x_min":-6,"x_max":701,"o":"m 267 0 l 267 338 l -6 908 l 167 908 l 265 676 q 304 577 285 625 q 346 476 324 529 l 351 476 q 394 577 374 529 q 435 676 415 625 l 533 908 l 701 908 l 428 338 l 428 0 l 267 0 m 294 964 l 281 1032 q 330 1050 310 1039 q 350 1083 350 1061 q 324 1120 350 1107 q 238 1136 297 1133 l 256 1221 q 418 1187 367 1218 q 469 1101 469 1156 q 455 1044 469 1068 q 417 1004 440 1021 q 361 978 393 988 q 294 964 329 968 z "},"Ỹ":{"ha":696,"x_min":-6,"x_max":701,"o":"m 267 0 l 267 338 l -6 908 l 167 908 l 265 676 q 304 577 285 625 q 346 476 324 529 l 351 476 q 394 577 374 529 q 435 676 415 625 l 533 908 l 701 908 l 428 338 l 428 0 l 267 0 m 449 972 q 383 986 411 972 q 332 1017 354 1000 q 290 1047 310 1033 q 250 1061 271 1061 q 211 1042 226 1061 q 192 982 196 1024 l 86 990 q 135 1129 92 1083 q 246 1175 178 1175 q 312 1161 283 1175 q 363 1131 340 1147 q 404 1100 385 1114 q 444 1086 424 1086 q 503 1167 493 1086 l 608 1158 q 560 1019 603 1065 q 449 972 517 972 z "},"Ź":{"ha":750,"x_min":56,"x_max":697,"o":"m 56 0 l 56 97 l 494 772 l 96 772 l 96 908 l 694 908 l 694 811 l 254 136 l 697 136 l 697 0 l 56 0 m 372 956 l 301 1036 l 519 1224 l 606 1118 l 372 956 z "},"Ž":{"ha":750,"x_min":56,"x_max":697,"o":"m 56 0 l 56 97 l 494 772 l 96 772 l 96 908 l 694 908 l 694 811 l 254 136 l 697 136 l 697 0 l 56 0 m 306 978 l 171 1133 l 240 1178 l 389 1056 l 394 1056 l 543 1178 l 613 1133 l 478 978 l 306 978 z "},"Ż":{"ha":750,"x_min":56,"x_max":697,"o":"m 56 0 l 56 97 l 494 772 l 96 772 l 96 908 l 694 908 l 694 811 l 254 136 l 697 136 l 697 0 l 56 0 m 392 982 q 321 1008 349 982 q 293 1074 293 1033 q 321 1139 293 1114 q 392 1164 349 1164 q 463 1139 435 1164 q 490 1074 490 1114 q 463 1008 490 1033 q 392 982 435 982 z "},"Ẓ":{"ha":750,"x_min":56,"x_max":697,"o":"m 56 0 l 56 97 l 494 772 l 96 772 l 96 908 l 694 908 l 694 811 l 254 136 l 697 136 l 697 0 l 56 0 m 390 -300 q 322 -274 349 -300 q 296 -208 296 -249 q 322 -143 296 -168 q 390 -118 349 -118 q 458 -143 432 -118 q 485 -208 485 -168 q 458 -274 485 -249 q 390 -300 432 -300 z "},"Ẕ":{"ha":750,"x_min":56,"x_max":697,"o":"m 56 0 l 56 97 l 494 772 l 96 772 l 96 908 l 694 908 l 694 811 l 254 136 l 697 136 l 697 0 l 56 0 m 197 -249 l 197 -143 l 586 -143 l 586 -249 l 197 -249 z "},"Ð":{"ha":901,"x_min":42,"x_max":833,"o":"m 42 432 l 42 508 l 149 514 l 149 908 l 392 908 q 717 796 600 908 q 833 458 833 683 q 803 260 833 346 q 717 116 774 174 q 581 29 661 58 q 400 0 501 0 l 149 0 l 149 432 l 42 432 m 310 131 l 381 131 q 594 210 519 131 q 668 458 668 290 q 593 701 668 625 q 381 778 518 778 l 310 778 l 310 514 l 500 514 l 500 432 l 310 432 l 310 131 z "},"Þ":{"ha":833,"x_min":115,"x_max":767,"o":"m 115 0 l 115 908 l 276 908 l 276 764 l 421 764 q 559 749 496 764 q 668 702 622 735 q 740 616 714 669 q 767 483 767 563 q 740 351 767 407 q 667 260 714 296 q 558 206 621 224 q 421 189 494 189 l 276 189 l 276 0 l 115 0 m 276 318 l 408 318 q 608 483 608 318 q 558 601 608 568 q 408 635 508 635 l 276 635 l 276 318 z "},"Ə":{"ha":926,"x_min":75,"x_max":858,"o":"m 461 -17 q 299 15 371 -17 q 178 106 228 46 q 101 253 128 167 q 75 450 75 339 q 76 474 75 461 q 79 501 78 488 l 697 501 q 450 793 681 793 q 331 767 383 793 q 239 706 279 742 l 164 815 q 292 894 217 864 q 467 925 367 925 q 628 894 556 925 q 751 805 700 864 q 831 658 803 746 q 858 456 858 569 q 830 253 858 342 q 749 106 801 165 q 624 15 697 46 q 461 -17 550 -17 m 461 115 q 619 181 558 115 q 694 382 681 247 l 240 382 q 306 182 247 249 q 461 115 365 115 z "},"Ŋ":{"ha":904,"x_min":115,"x_max":836,"o":"m 568 -17 q 505 -11 539 -17 q 451 7 471 -6 l 488 147 q 516 138 501 142 q 550 135 531 135 q 597 149 575 135 q 635 201 618 164 q 661 301 651 238 q 671 463 671 364 q 657 615 671 553 q 618 714 643 676 q 557 768 593 751 q 478 785 521 785 q 426 776 453 785 q 372 752 399 768 q 319 713 344 736 q 276 661 294 690 l 276 0 l 115 0 l 115 908 l 272 908 l 272 803 q 387 892 322 860 q 522 925 451 925 q 647 901 589 925 q 747 821 704 876 q 813 677 789 765 q 836 463 836 589 q 819 246 836 336 q 767 97 801 156 q 683 11 733 39 q 568 -17 633 -17 z "},"Ĳ":{"ha":785,"x_min":115,"x_max":669,"o":"m 115 0 l 115 908 l 276 908 l 276 0 l 115 0 m 451 -242 q 388 -236 415 -242 q 342 -222 361 -231 l 371 -101 q 399 -108 385 -106 q 429 -111 414 -111 q 492 -81 475 -111 q 508 10 508 -50 l 508 908 l 669 908 l 669 11 q 658 -90 669 -43 q 622 -169 647 -136 q 554 -222 596 -203 q 451 -242 513 -242 z "},"à":{"ha":717,"x_min":65,"x_max":626,"o":"m 267 -17 q 121 38 176 -17 q 65 183 65 93 q 88 280 65 238 q 160 353 111 322 q 285 404 210 383 q 467 436 361 425 q 459 487 465 463 q 438 530 453 511 q 400 559 424 549 q 342 569 376 569 q 244 550 292 569 q 150 503 196 531 l 92 610 q 219 672 149 646 q 372 699 290 699 q 563 623 500 699 q 626 404 626 547 l 626 0 l 494 0 l 483 75 l 478 75 q 380 10 432 36 q 267 -17 328 -17 m 318 108 q 394 128 360 108 q 467 183 428 147 l 467 336 q 350 314 397 328 q 274 283 303 300 q 232 243 244 265 q 219 196 219 221 q 247 129 219 150 q 318 108 275 108 m 376 796 l 140 1011 l 251 1117 l 456 875 l 376 796 z "},"á":{"ha":717,"x_min":65,"x_max":626,"o":"m 267 -17 q 121 38 176 -17 q 65 183 65 93 q 88 280 65 238 q 160 353 111 322 q 285 404 210 383 q 467 436 361 425 q 459 487 465 463 q 438 530 453 511 q 400 559 424 549 q 342 569 376 569 q 244 550 292 569 q 150 503 196 531 l 92 610 q 219 672 149 646 q 372 699 290 699 q 563 623 500 699 q 626 404 626 547 l 626 0 l 494 0 l 483 75 l 478 75 q 380 10 432 36 q 267 -17 328 -17 m 318 108 q 394 128 360 108 q 467 183 428 147 l 467 336 q 350 314 397 328 q 274 283 303 300 q 232 243 244 265 q 219 196 219 221 q 247 129 219 150 q 318 108 275 108 m 371 796 l 292 875 l 496 1117 l 607 1011 l 371 796 z "},"â":{"ha":717,"x_min":65,"x_max":626,"o":"m 267 -17 q 121 38 176 -17 q 65 183 65 93 q 88 280 65 238 q 160 353 111 322 q 285 404 210 383 q 467 436 361 425 q 459 487 465 463 q 438 530 453 511 q 400 559 424 549 q 342 569 376 569 q 244 550 292 569 q 150 503 196 531 l 92 610 q 219 672 149 646 q 372 699 290 699 q 563 623 500 699 q 626 404 626 547 l 626 0 l 494 0 l 483 75 l 478 75 q 380 10 432 36 q 267 -17 328 -17 m 318 108 q 394 128 360 108 q 467 183 428 147 l 467 336 q 350 314 397 328 q 274 283 303 300 q 232 243 244 265 q 219 196 219 221 q 247 129 219 150 q 318 108 275 108 m 139 843 l 293 1031 l 454 1031 l 608 843 l 546 783 l 376 926 l 371 926 l 201 783 l 139 843 z "},"ã":{"ha":717,"x_min":65,"x_max":626,"o":"m 267 -17 q 121 38 176 -17 q 65 183 65 93 q 88 280 65 238 q 160 353 111 322 q 285 404 210 383 q 467 436 361 425 q 459 487 465 463 q 438 530 453 511 q 400 559 424 549 q 342 569 376 569 q 244 550 292 569 q 150 503 196 531 l 92 610 q 219 672 149 646 q 372 699 290 699 q 563 623 500 699 q 626 404 626 547 l 626 0 l 494 0 l 483 75 l 478 75 q 380 10 432 36 q 267 -17 328 -17 m 318 108 q 394 128 360 108 q 467 183 428 147 l 467 336 q 350 314 397 328 q 274 283 303 300 q 232 243 244 265 q 219 196 219 221 q 247 129 219 150 q 318 108 275 108 m 469 799 q 408 815 435 799 q 360 850 382 831 q 320 885 339 869 q 281 901 301 901 q 224 808 232 901 l 121 814 q 163 962 124 910 q 278 1014 201 1014 q 339 998 313 1014 q 387 963 365 982 q 428 927 408 943 q 468 911 447 911 q 506 935 493 911 q 524 1004 519 960 l 626 999 q 585 851 624 904 q 469 799 546 799 z "},"ä":{"ha":717,"x_min":65,"x_max":626,"o":"m 267 -17 q 121 38 176 -17 q 65 183 65 93 q 88 280 65 238 q 160 353 111 322 q 285 404 210 383 q 467 436 361 425 q 459 487 465 463 q 438 530 453 511 q 400 559 424 549 q 342 569 376 569 q 244 550 292 569 q 150 503 196 531 l 92 610 q 219 672 149 646 q 372 699 290 699 q 563 623 500 699 q 626 404 626 547 l 626 0 l 494 0 l 483 75 l 478 75 q 380 10 432 36 q 267 -17 328 -17 m 318 108 q 394 128 360 108 q 467 183 428 147 l 467 336 q 350 314 397 328 q 274 283 303 300 q 232 243 244 265 q 219 196 219 221 q 247 129 219 150 q 318 108 275 108 m 231 803 q 170 827 194 803 q 146 888 146 851 q 170 948 146 924 q 231 972 194 972 q 292 948 268 972 q 315 888 315 924 q 292 827 315 851 q 231 803 268 803 m 517 803 q 456 827 479 803 q 432 888 432 851 q 456 948 432 924 q 517 972 479 972 q 577 948 553 972 q 601 888 601 924 q 577 827 601 851 q 517 803 553 803 z "},"ā":{"ha":717,"x_min":65,"x_max":626,"o":"m 267 -17 q 121 38 176 -17 q 65 183 65 93 q 88 280 65 238 q 160 353 111 322 q 285 404 210 383 q 467 436 361 425 q 459 487 465 463 q 438 530 453 511 q 400 559 424 549 q 342 569 376 569 q 244 550 292 569 q 150 503 196 531 l 92 610 q 219 672 149 646 q 372 699 290 699 q 563 623 500 699 q 626 404 626 547 l 626 0 l 494 0 l 483 75 l 478 75 q 380 10 432 36 q 267 -17 328 -17 m 318 108 q 394 128 360 108 q 467 183 428 147 l 467 336 q 350 314 397 328 q 274 283 303 300 q 232 243 244 265 q 219 196 219 221 q 247 129 219 150 q 318 108 275 108 m 179 828 l 179 933 l 568 933 l 568 828 l 179 828 z "},"ă":{"ha":717,"x_min":65,"x_max":626,"o":"m 267 -17 q 121 38 176 -17 q 65 183 65 93 q 88 280 65 238 q 160 353 111 322 q 285 404 210 383 q 467 436 361 425 q 459 487 465 463 q 438 530 453 511 q 400 559 424 549 q 342 569 376 569 q 244 550 292 569 q 150 503 196 531 l 92 610 q 219 672 149 646 q 372 699 290 699 q 563 623 500 699 q 626 404 626 547 l 626 0 l 494 0 l 483 75 l 478 75 q 380 10 432 36 q 267 -17 328 -17 m 318 108 q 394 128 360 108 q 467 183 428 147 l 467 336 q 350 314 397 328 q 274 283 303 300 q 232 243 244 265 q 219 196 219 221 q 247 129 219 150 q 318 108 275 108 m 374 793 q 274 810 315 793 q 205 858 232 828 q 164 926 178 888 q 147 1008 150 965 l 242 1024 q 255 976 246 999 q 281 935 264 953 q 320 907 297 918 q 374 896 343 896 q 427 907 404 896 q 467 935 450 918 q 492 976 483 953 q 506 1024 501 999 l 600 1008 q 583 926 597 965 q 542 858 569 888 q 474 810 515 828 q 374 793 432 793 z "},"å":{"ha":717,"x_min":65,"x_max":626,"o":"m 267 -17 q 121 38 176 -17 q 65 183 65 93 q 88 280 65 238 q 160 353 111 322 q 285 404 210 383 q 467 436 361 425 q 459 487 465 463 q 438 530 453 511 q 400 559 424 549 q 342 569 376 569 q 244 550 292 569 q 150 503 196 531 l 92 610 q 219 672 149 646 q 372 699 290 699 q 563 623 500 699 q 626 404 626 547 l 626 0 l 494 0 l 483 75 l 478 75 q 380 10 432 36 q 267 -17 328 -17 m 318 108 q 394 128 360 108 q 467 183 428 147 l 467 336 q 350 314 397 328 q 274 283 303 300 q 232 243 244 265 q 219 196 219 221 q 247 129 219 150 q 318 108 275 108 m 374 776 q 249 817 293 776 q 206 917 206 857 q 249 1018 206 978 q 374 1058 293 1058 q 498 1018 454 1058 q 542 917 542 978 q 498 817 542 857 q 374 776 454 776 m 374 840 q 423 861 403 840 q 443 917 443 882 q 423 974 443 953 q 374 994 403 994 q 324 974 344 994 q 304 917 304 953 q 324 861 304 882 q 374 840 344 840 z "},"ǎ":{"ha":717,"x_min":65,"x_max":626,"o":"m 267 -17 q 121 38 176 -17 q 65 183 65 93 q 88 280 65 238 q 160 353 111 322 q 285 404 210 383 q 467 436 361 425 q 459 487 465 463 q 438 530 453 511 q 400 559 424 549 q 342 569 376 569 q 244 550 292 569 q 150 503 196 531 l 92 610 q 219 672 149 646 q 372 699 290 699 q 563 623 500 699 q 626 404 626 547 l 626 0 l 494 0 l 483 75 l 478 75 q 380 10 432 36 q 267 -17 328 -17 m 318 108 q 394 128 360 108 q 467 183 428 147 l 467 336 q 350 314 397 328 q 274 283 303 300 q 232 243 244 265 q 219 196 219 221 q 247 129 219 150 q 318 108 275 108 m 293 800 l 139 988 l 201 1046 l 371 904 l 376 904 l 546 1046 l 608 988 l 454 800 l 293 800 z "},"ạ":{"ha":717,"x_min":65,"x_max":626,"o":"m 267 -17 q 121 38 176 -17 q 65 183 65 93 q 88 280 65 238 q 160 353 111 322 q 285 404 210 383 q 467 436 361 425 q 459 487 465 463 q 438 530 453 511 q 400 559 424 549 q 342 569 376 569 q 244 550 292 569 q 150 503 196 531 l 92 610 q 219 672 149 646 q 372 699 290 699 q 563 623 500 699 q 626 404 626 547 l 626 0 l 494 0 l 483 75 l 478 75 q 380 10 432 36 q 267 -17 328 -17 m 318 108 q 394 128 360 108 q 467 183 428 147 l 467 336 q 350 314 397 328 q 274 283 303 300 q 232 243 244 265 q 219 196 219 221 q 247 129 219 150 q 318 108 275 108 m 351 -300 q 283 -274 310 -300 q 257 -208 257 -249 q 283 -143 257 -168 q 351 -118 310 -118 q 419 -143 393 -118 q 446 -208 446 -168 q 419 -274 446 -249 q 351 -300 393 -300 z "},"ả":{"ha":717,"x_min":65,"x_max":626,"o":"m 267 -17 q 121 38 176 -17 q 65 183 65 93 q 88 280 65 238 q 160 353 111 322 q 285 404 210 383 q 467 436 361 425 q 459 487 465 463 q 438 530 453 511 q 400 559 424 549 q 342 569 376 569 q 244 550 292 569 q 150 503 196 531 l 92 610 q 219 672 149 646 q 372 699 290 699 q 563 623 500 699 q 626 404 626 547 l 626 0 l 494 0 l 483 75 l 478 75 q 380 10 432 36 q 267 -17 328 -17 m 318 108 q 394 128 360 108 q 467 183 428 147 l 467 336 q 350 314 397 328 q 274 283 303 300 q 232 243 244 265 q 219 196 219 221 q 247 129 219 150 q 318 108 275 108 m 321 792 l 307 860 q 356 879 336 867 q 376 917 376 892 q 350 960 376 944 q 264 978 324 975 l 274 1079 q 444 1037 390 1076 q 497 929 497 997 q 483 872 497 896 q 444 832 468 849 q 388 806 419 815 q 321 792 356 796 z "},"ấ":{"ha":717,"x_min":65,"x_max":729,"o":"m 267 -17 q 121 38 176 -17 q 65 183 65 93 q 88 280 65 238 q 160 353 111 322 q 285 404 210 383 q 467 436 361 425 q 459 487 465 463 q 438 530 453 511 q 400 559 424 549 q 342 569 376 569 q 244 550 292 569 q 150 503 196 531 l 92 610 q 219 672 149 646 q 372 699 290 699 q 563 623 500 699 q 626 404 626 547 l 626 0 l 494 0 l 483 75 l 478 75 q 380 10 432 36 q 267 -17 328 -17 m 318 108 q 394 128 360 108 q 467 183 428 147 l 467 336 q 350 314 397 328 q 274 283 303 300 q 232 243 244 265 q 219 196 219 221 q 247 129 219 150 q 318 108 275 108 m 228 789 l 175 849 l 310 976 l 438 976 l 572 849 l 519 789 l 376 883 l 371 883 l 228 789 m 526 936 l 642 1107 l 729 1047 l 589 885 l 526 936 z "},"ầ":{"ha":717,"x_min":7,"x_max":626,"o":"m 267 -17 q 121 38 176 -17 q 65 183 65 93 q 88 280 65 238 q 160 353 111 322 q 285 404 210 383 q 467 436 361 425 q 459 487 465 463 q 438 530 453 511 q 400 559 424 549 q 342 569 376 569 q 244 550 292 569 q 150 503 196 531 l 92 610 q 219 672 149 646 q 372 699 290 699 q 563 623 500 699 q 626 404 626 547 l 626 0 l 494 0 l 483 75 l 478 75 q 380 10 432 36 q 267 -17 328 -17 m 318 108 q 394 128 360 108 q 467 183 428 147 l 467 336 q 350 314 397 328 q 274 283 303 300 q 232 243 244 265 q 219 196 219 221 q 247 129 219 150 q 318 108 275 108 m 228 789 l 175 849 l 310 976 l 438 976 l 572 849 l 519 789 l 376 883 l 371 883 l 228 789 m 221 938 l 158 885 l 7 1046 l 94 1107 l 221 938 z "},"ẩ":{"ha":717,"x_min":65,"x_max":696,"o":"m 267 -17 q 121 38 176 -17 q 65 183 65 93 q 88 280 65 238 q 160 353 111 322 q 285 404 210 383 q 467 436 361 425 q 459 487 465 463 q 438 530 453 511 q 400 559 424 549 q 342 569 376 569 q 244 550 292 569 q 150 503 196 531 l 92 610 q 219 672 149 646 q 372 699 290 699 q 563 623 500 699 q 626 404 626 547 l 626 0 l 494 0 l 483 75 l 478 75 q 380 10 432 36 q 267 -17 328 -17 m 318 108 q 394 128 360 108 q 467 183 428 147 l 467 336 q 350 314 397 328 q 274 283 303 300 q 232 243 244 265 q 219 196 219 221 q 247 129 219 150 q 318 108 275 108 m 228 789 l 175 849 l 310 976 l 438 976 l 572 849 l 519 789 l 376 883 l 371 883 l 228 789 m 550 889 l 538 947 q 574 965 560 954 q 588 994 588 975 q 567 1031 588 1018 q 494 1046 547 1043 l 508 1118 q 651 1088 607 1115 q 696 1011 696 1060 q 684 960 696 981 q 652 925 672 939 q 606 903 632 911 q 550 889 579 894 z "},"ẫ":{"ha":717,"x_min":65,"x_max":626,"o":"m 267 -17 q 121 38 176 -17 q 65 183 65 93 q 88 280 65 238 q 160 353 111 322 q 285 404 210 383 q 467 436 361 425 q 459 487 465 463 q 438 530 453 511 q 400 559 424 549 q 342 569 376 569 q 244 550 292 569 q 150 503 196 531 l 92 610 q 219 672 149 646 q 372 699 290 699 q 563 623 500 699 q 626 404 626 547 l 626 0 l 494 0 l 483 75 l 478 75 q 380 10 432 36 q 267 -17 328 -17 m 318 108 q 394 128 360 108 q 467 183 428 147 l 467 336 q 350 314 397 328 q 274 283 303 300 q 232 243 244 265 q 219 196 219 221 q 247 129 219 150 q 318 108 275 108 m 228 789 l 175 849 l 310 968 l 438 968 l 572 849 l 519 789 l 376 875 l 371 875 l 228 789 m 176 1001 q 210 1104 183 1068 q 288 1140 238 1140 q 340 1131 317 1140 q 381 1111 363 1122 q 417 1091 400 1100 q 451 1082 433 1082 q 494 1138 485 1082 l 571 1129 q 537 1026 564 1063 q 460 990 510 990 q 408 999 431 990 q 366 1019 385 1008 q 331 1040 347 1031 q 296 1049 314 1049 q 253 993 263 1049 l 176 1001 z "},"ậ":{"ha":717,"x_min":65,"x_max":626,"o":"m 267 -17 q 121 38 176 -17 q 65 183 65 93 q 88 280 65 238 q 160 353 111 322 q 285 404 210 383 q 467 436 361 425 q 459 487 465 463 q 438 530 453 511 q 400 559 424 549 q 342 569 376 569 q 244 550 292 569 q 150 503 196 531 l 92 610 q 219 672 149 646 q 372 699 290 699 q 563 623 500 699 q 626 404 626 547 l 626 0 l 494 0 l 483 75 l 478 75 q 380 10 432 36 q 267 -17 328 -17 m 318 108 q 394 128 360 108 q 467 183 428 147 l 467 336 q 350 314 397 328 q 274 283 303 300 q 232 243 244 265 q 219 196 219 221 q 247 129 219 150 q 318 108 275 108 m 139 843 l 293 1031 l 454 1031 l 608 843 l 546 783 l 376 926 l 371 926 l 201 783 l 139 843 m 351 -300 q 283 -274 310 -300 q 257 -208 257 -249 q 283 -143 257 -168 q 351 -118 310 -118 q 419 -143 393 -118 q 446 -208 446 -168 q 419 -274 446 -249 q 351 -300 393 -300 z "},"ắ":{"ha":717,"x_min":65,"x_max":626,"o":"m 267 -17 q 121 38 176 -17 q 65 183 65 93 q 88 280 65 238 q 160 353 111 322 q 285 404 210 383 q 467 436 361 425 q 459 487 465 463 q 438 530 453 511 q 400 559 424 549 q 342 569 376 569 q 244 550 292 569 q 150 503 196 531 l 92 610 q 219 672 149 646 q 372 699 290 699 q 563 623 500 699 q 626 404 626 547 l 626 0 l 494 0 l 483 75 l 478 75 q 380 10 432 36 q 267 -17 328 -17 m 318 108 q 394 128 360 108 q 467 183 428 147 l 467 336 q 350 314 397 328 q 274 283 303 300 q 232 243 244 265 q 219 196 219 221 q 247 129 219 150 q 318 108 275 108 m 376 957 l 304 1008 l 431 1192 l 526 1119 l 376 957 m 374 793 q 274 810 315 793 q 205 858 232 828 q 164 926 178 888 q 147 1008 150 965 l 233 1024 q 248 972 238 997 q 276 928 258 947 q 317 899 293 910 q 374 888 342 888 q 430 899 406 888 q 472 928 454 910 q 499 972 489 947 q 514 1024 510 997 l 600 1008 q 583 926 597 965 q 542 858 569 888 q 474 810 515 828 q 374 793 432 793 z "},"ằ":{"ha":717,"x_min":65,"x_max":626,"o":"m 267 -17 q 121 38 176 -17 q 65 183 65 93 q 88 280 65 238 q 160 353 111 322 q 285 404 210 383 q 467 436 361 425 q 459 487 465 463 q 438 530 453 511 q 400 559 424 549 q 342 569 376 569 q 244 550 292 569 q 150 503 196 531 l 92 610 q 219 672 149 646 q 372 699 290 699 q 563 623 500 699 q 626 404 626 547 l 626 0 l 494 0 l 483 75 l 478 75 q 380 10 432 36 q 267 -17 328 -17 m 318 108 q 394 128 360 108 q 467 183 428 147 l 467 336 q 350 314 397 328 q 274 283 303 300 q 232 243 244 265 q 219 196 219 221 q 247 129 219 150 q 318 108 275 108 m 371 957 l 221 1119 l 317 1192 l 443 1008 l 371 957 m 374 793 q 274 810 315 793 q 205 858 232 828 q 164 926 178 888 q 147 1008 150 965 l 233 1024 q 248 972 238 997 q 276 928 258 947 q 317 899 293 910 q 374 888 342 888 q 430 899 406 888 q 472 928 454 910 q 499 972 489 947 q 514 1024 510 997 l 600 1008 q 583 926 597 965 q 542 858 569 888 q 474 810 515 828 q 374 793 432 793 z "},"ẳ":{"ha":717,"x_min":65,"x_max":626,"o":"m 267 -17 q 121 38 176 -17 q 65 183 65 93 q 88 280 65 238 q 160 353 111 322 q 285 404 210 383 q 467 436 361 425 q 459 487 465 463 q 438 530 453 511 q 400 559 424 549 q 342 569 376 569 q 244 550 292 569 q 150 503 196 531 l 92 610 q 219 672 149 646 q 372 699 290 699 q 563 623 500 699 q 626 404 626 547 l 626 0 l 494 0 l 483 75 l 478 75 q 380 10 432 36 q 267 -17 328 -17 m 318 108 q 394 128 360 108 q 467 183 428 147 l 467 336 q 350 314 397 328 q 274 283 303 300 q 232 243 244 265 q 219 196 219 221 q 247 129 219 150 q 318 108 275 108 m 331 958 l 318 1018 q 358 1034 343 1024 q 374 1065 374 1044 q 351 1101 374 1089 q 274 1117 329 1114 l 289 1207 q 435 1172 389 1204 q 482 1082 482 1139 q 469 1028 482 1050 q 436 993 457 1007 q 388 971 415 979 q 331 958 360 963 m 374 793 q 274 810 315 793 q 205 858 232 828 q 164 926 178 888 q 147 1008 150 965 l 233 1024 q 248 972 238 997 q 276 928 258 947 q 317 899 293 910 q 374 888 342 888 q 430 899 406 888 q 472 928 454 910 q 499 972 489 947 q 514 1024 510 997 l 600 1008 q 583 926 597 965 q 542 858 569 888 q 474 810 515 828 q 374 793 432 793 z "},"ẵ":{"ha":717,"x_min":65,"x_max":626,"o":"m 267 -17 q 121 38 176 -17 q 65 183 65 93 q 88 280 65 238 q 160 353 111 322 q 285 404 210 383 q 467 436 361 425 q 459 487 465 463 q 438 530 453 511 q 400 559 424 549 q 342 569 376 569 q 244 550 292 569 q 150 503 196 531 l 92 610 q 219 672 149 646 q 372 699 290 699 q 563 623 500 699 q 626 404 626 547 l 626 0 l 494 0 l 483 75 l 478 75 q 380 10 432 36 q 267 -17 328 -17 m 318 108 q 394 128 360 108 q 467 183 428 147 l 467 336 q 350 314 397 328 q 274 283 303 300 q 232 243 244 265 q 219 196 219 221 q 247 129 219 150 q 318 108 275 108 m 374 793 q 283 806 321 793 q 221 841 246 819 q 183 890 196 863 q 167 947 169 918 l 249 961 q 284 903 256 929 q 374 878 313 878 q 463 903 435 878 q 499 961 492 929 l 581 947 q 565 890 578 918 q 526 841 551 863 q 464 806 501 819 q 374 793 426 793 m 168 1000 q 205 1103 175 1067 q 288 1139 235 1139 q 340 1130 317 1139 q 381 1110 363 1121 q 417 1090 400 1099 q 451 1081 433 1081 q 494 1136 485 1081 l 579 1128 q 542 1025 572 1061 q 460 989 513 989 q 408 998 431 989 q 366 1018 385 1007 q 331 1038 347 1029 q 296 1047 314 1047 q 253 992 263 1047 l 168 1000 z "},"ặ":{"ha":717,"x_min":65,"x_max":626,"o":"m 267 -17 q 121 38 176 -17 q 65 183 65 93 q 88 280 65 238 q 160 353 111 322 q 285 404 210 383 q 467 436 361 425 q 459 487 465 463 q 438 530 453 511 q 400 559 424 549 q 342 569 376 569 q 244 550 292 569 q 150 503 196 531 l 92 610 q 219 672 149 646 q 372 699 290 699 q 563 623 500 699 q 626 404 626 547 l 626 0 l 494 0 l 483 75 l 478 75 q 380 10 432 36 q 267 -17 328 -17 m 318 108 q 394 128 360 108 q 467 183 428 147 l 467 336 q 350 314 397 328 q 274 283 303 300 q 232 243 244 265 q 219 196 219 221 q 247 129 219 150 q 318 108 275 108 m 374 793 q 274 810 315 793 q 205 858 232 828 q 164 926 178 888 q 147 1008 150 965 l 242 1024 q 255 976 246 999 q 281 935 264 953 q 320 907 297 918 q 374 896 343 896 q 427 907 404 896 q 467 935 450 918 q 492 976 483 953 q 506 1024 501 999 l 600 1008 q 583 926 597 965 q 542 858 569 888 q 474 810 515 828 q 374 793 432 793 m 351 -300 q 283 -274 310 -300 q 257 -208 257 -249 q 283 -143 257 -168 q 351 -118 310 -118 q 419 -143 393 -118 q 446 -208 446 -168 q 419 -274 446 -249 q 351 -300 393 -300 z "},"ą":{"ha":717,"x_min":65,"x_max":656,"o":"m 531 -289 q 433 -258 472 -289 q 393 -167 393 -228 q 403 -112 393 -137 q 428 -65 413 -86 q 463 -26 444 -43 q 497 1 481 -10 l 483 75 l 478 75 q 380 10 432 36 q 267 -17 328 -17 q 121 38 176 -17 q 65 183 65 93 q 88 280 65 238 q 160 353 111 322 q 285 404 210 383 q 467 436 361 425 q 459 487 465 463 q 438 530 453 511 q 400 559 424 549 q 342 569 376 569 q 244 550 292 569 q 150 503 196 531 l 92 610 q 219 672 149 646 q 372 699 290 699 q 563 623 500 699 q 626 404 626 547 l 626 0 q 535 -58 564 -21 q 506 -132 506 -96 q 524 -176 506 -162 q 567 -190 543 -190 q 619 -172 594 -190 l 656 -247 q 596 -278 632 -267 q 531 -289 560 -289 m 318 108 q 394 128 360 108 q 467 183 428 147 l 467 336 q 350 314 397 328 q 274 283 303 300 q 232 243 244 265 q 219 196 219 221 q 247 129 219 150 q 318 108 275 108 z "},"æ":{"ha":1090,"x_min":72,"x_max":1039,"o":"m 275 -17 q 128 38 185 -17 q 72 183 72 93 q 167 353 72 293 q 469 436 263 414 q 462 487 468 463 q 442 530 456 511 q 405 559 428 549 q 347 569 382 569 q 251 550 299 569 q 158 503 203 531 l 100 610 q 225 672 157 646 q 368 699 293 699 q 487 666 439 699 q 561 575 535 633 q 655 666 603 633 q 774 699 707 699 q 888 674 839 699 q 971 607 938 650 q 1022 503 1004 564 q 1039 372 1039 443 q 1032 297 1039 325 l 615 297 q 676 160 624 208 q 803 111 728 111 q 883 126 847 111 q 957 164 919 140 l 1014 57 q 906 4 965 25 q 782 -17 847 -17 q 643 17 701 -17 q 544 100 585 51 q 408 11 474 39 q 275 -17 342 -17 m 325 108 q 410 130 365 108 q 492 189 454 151 q 476 243 481 213 q 469 304 471 274 l 467 336 q 282 283 336 318 q 228 196 228 249 q 255 129 228 150 q 325 108 282 108 m 615 399 l 901 399 q 868 528 901 482 q 768 575 835 575 q 667 529 710 575 q 615 399 625 483 z "},"ǽ":{"ha":1090,"x_min":72,"x_max":1039,"o":"m 275 -17 q 128 38 185 -17 q 72 183 72 93 q 167 353 72 293 q 469 436 263 414 q 462 487 468 463 q 442 530 456 511 q 405 559 428 549 q 347 569 382 569 q 251 550 299 569 q 158 503 203 531 l 100 610 q 225 672 157 646 q 368 699 293 699 q 487 666 439 699 q 561 575 535 633 q 655 666 603 633 q 774 699 707 699 q 888 674 839 699 q 971 607 938 650 q 1022 503 1004 564 q 1039 372 1039 443 q 1032 297 1039 325 l 615 297 q 676 160 624 208 q 803 111 728 111 q 883 126 847 111 q 957 164 919 140 l 1014 57 q 906 4 965 25 q 782 -17 847 -17 q 643 17 701 -17 q 544 100 585 51 q 408 11 474 39 q 275 -17 342 -17 m 325 108 q 410 130 365 108 q 492 189 454 151 q 476 243 481 213 q 469 304 471 274 l 467 336 q 282 283 336 318 q 228 196 228 249 q 255 129 228 150 q 325 108 282 108 m 615 399 l 901 399 q 868 528 901 482 q 768 575 835 575 q 667 529 710 575 q 615 399 625 483 m 568 796 l 489 875 l 693 1117 l 804 1011 l 568 796 z "},"ǣ":{"ha":1090,"x_min":72,"x_max":1039,"o":"m 275 -17 q 128 38 185 -17 q 72 183 72 93 q 167 353 72 293 q 469 436 263 414 q 462 487 468 463 q 442 530 456 511 q 405 559 428 549 q 347 569 382 569 q 251 550 299 569 q 158 503 203 531 l 100 610 q 225 672 157 646 q 368 699 293 699 q 487 666 439 699 q 561 575 535 633 q 655 666 603 633 q 774 699 707 699 q 888 674 839 699 q 971 607 938 650 q 1022 503 1004 564 q 1039 372 1039 443 q 1032 297 1039 325 l 615 297 q 676 160 624 208 q 803 111 728 111 q 883 126 847 111 q 957 164 919 140 l 1014 57 q 906 4 965 25 q 782 -17 847 -17 q 643 17 701 -17 q 544 100 585 51 q 408 11 474 39 q 275 -17 342 -17 m 325 108 q 410 130 365 108 q 492 189 454 151 q 476 243 481 213 q 469 304 471 274 l 467 336 q 282 283 336 318 q 228 196 228 249 q 255 129 228 150 q 325 108 282 108 m 615 399 l 901 399 q 868 528 901 482 q 768 575 835 575 q 667 529 710 575 q 615 399 625 483 m 376 828 l 376 933 l 765 933 l 765 828 l 376 828 z "},"ƀ":{"ha":775,"x_min":3,"x_max":724,"o":"m 432 -17 q 337 6 385 -17 q 246 72 289 29 l 242 72 l 228 0 l 101 0 l 101 783 l 3 783 l 3 858 l 101 865 l 101 981 l 261 981 l 261 865 l 506 865 l 506 783 l 261 783 l 261 667 l 257 553 q 351 614 300 590 q 454 638 401 638 q 568 615 518 638 q 653 551 618 592 q 706 452 688 510 q 724 324 724 394 q 699 181 724 244 q 635 74 675 118 q 542 7 594 31 q 432 -17 489 -17 m 399 115 q 513 169 467 115 q 558 321 558 224 q 524 455 558 404 q 411 506 489 506 q 261 429 339 506 l 261 172 q 333 128 297 140 q 399 115 368 115 z "},"ḇ":{"ha":782,"x_min":101,"x_max":724,"o":"m 432 -17 q 337 6 385 -17 q 246 72 289 29 l 242 72 l 228 0 l 101 0 l 101 981 l 261 981 l 261 728 l 257 614 q 351 675 300 651 q 454 699 401 699 q 568 674 518 699 q 653 605 618 650 q 706 496 688 560 q 724 353 724 432 q 699 197 724 265 q 635 81 675 128 q 542 8 594 33 q 432 -17 489 -17 m 399 115 q 513 174 467 115 q 558 350 558 233 q 524 510 558 453 q 411 567 489 567 q 261 490 339 567 l 261 172 q 333 128 297 140 q 399 115 368 115 m 206 -249 l 206 -143 l 594 -143 l 594 -249 l 206 -249 z "},"ç":{"ha":642,"x_min":57,"x_max":608,"o":"m 386 -17 q 256 7 317 -17 q 151 76 196 31 q 82 189 107 122 q 57 340 57 256 q 85 492 57 425 q 160 604 113 558 q 269 674 207 650 q 399 699 331 699 q 513 676 465 699 q 599 622 561 654 l 521 518 q 466 555 493 542 q 407 568 439 568 q 272 506 324 568 q 221 340 221 444 q 272 176 221 238 q 403 114 322 114 q 478 131 443 114 q 543 172 514 149 l 608 67 q 502 4 560 25 q 386 -17 444 -17 m 256 -324 l 242 -254 q 358 -234 326 -249 q 389 -189 389 -219 q 367 -150 389 -165 q 282 -126 344 -135 l 346 4 l 443 4 l 403 -86 q 480 -122 453 -99 q 507 -187 507 -144 q 442 -286 507 -254 q 256 -324 376 -318 z "},"ć":{"ha":642,"x_min":57,"x_max":629,"o":"m 386 -17 q 256 7 317 -17 q 151 76 196 31 q 82 189 107 122 q 57 340 57 256 q 85 492 57 425 q 160 604 113 558 q 269 674 207 650 q 399 699 331 699 q 513 676 465 699 q 599 622 561 654 l 521 518 q 466 555 493 542 q 407 568 439 568 q 272 506 324 568 q 221 340 221 444 q 272 176 221 238 q 403 114 322 114 q 478 131 443 114 q 543 172 514 149 l 608 67 q 502 4 560 25 q 386 -17 444 -17 m 393 796 l 314 875 l 518 1117 l 629 1011 l 393 796 z "},"ĉ":{"ha":642,"x_min":57,"x_max":631,"o":"m 386 -17 q 256 7 317 -17 q 151 76 196 31 q 82 189 107 122 q 57 340 57 256 q 85 492 57 425 q 160 604 113 558 q 269 674 207 650 q 399 699 331 699 q 513 676 465 699 q 599 622 561 654 l 521 518 q 466 555 493 542 q 407 568 439 568 q 272 506 324 568 q 221 340 221 444 q 272 176 221 238 q 403 114 322 114 q 478 131 443 114 q 543 172 514 149 l 608 67 q 502 4 560 25 q 386 -17 444 -17 m 161 843 l 315 1031 l 476 1031 l 631 843 l 568 783 l 399 926 l 393 926 l 224 783 l 161 843 z "},"č":{"ha":642,"x_min":57,"x_max":631,"o":"m 386 -17 q 256 7 317 -17 q 151 76 196 31 q 82 189 107 122 q 57 340 57 256 q 85 492 57 425 q 160 604 113 558 q 269 674 207 650 q 399 699 331 699 q 513 676 465 699 q 599 622 561 654 l 521 518 q 466 555 493 542 q 407 568 439 568 q 272 506 324 568 q 221 340 221 444 q 272 176 221 238 q 403 114 322 114 q 478 131 443 114 q 543 172 514 149 l 608 67 q 502 4 560 25 q 386 -17 444 -17 m 315 800 l 161 988 l 224 1046 l 393 904 l 399 904 l 568 1046 l 631 988 l 476 800 l 315 800 z "},"ċ":{"ha":642,"x_min":57,"x_max":608,"o":"m 386 -17 q 256 7 317 -17 q 151 76 196 31 q 82 189 107 122 q 57 340 57 256 q 85 492 57 425 q 160 604 113 558 q 269 674 207 650 q 399 699 331 699 q 513 676 465 699 q 599 622 561 654 l 521 518 q 466 555 493 542 q 407 568 439 568 q 272 506 324 568 q 221 340 221 444 q 272 176 221 238 q 403 114 322 114 q 478 131 443 114 q 543 172 514 149 l 608 67 q 502 4 560 25 q 386 -17 444 -17 m 396 801 q 328 827 354 801 q 301 893 301 853 q 328 958 301 933 q 396 983 354 983 q 464 958 438 983 q 490 893 490 933 q 464 827 490 853 q 396 801 438 801 z "},"ď":{"ha":825,"x_min":60,"x_max":851,"o":"m 340 -17 q 135 77 211 -17 q 60 340 60 171 q 84 490 60 424 q 149 603 108 557 q 241 674 189 649 q 349 699 293 699 q 447 678 407 699 q 528 624 488 658 l 522 733 l 522 981 l 682 981 l 682 0 l 550 0 l 539 74 l 533 74 q 446 10 496 36 q 340 -17 396 -17 m 379 115 q 522 192 456 115 l 522 510 q 452 554 486 542 q 383 567 418 567 q 271 508 317 567 q 225 342 225 450 q 265 173 225 231 q 379 115 304 115 m 751 761 l 744 1063 l 851 1063 l 850 975 l 824 761 l 751 761 z "},"ḍ":{"ha":783,"x_min":60,"x_max":682,"o":"m 340 -17 q 135 77 211 -17 q 60 340 60 171 q 84 490 60 424 q 149 603 108 557 q 241 674 189 649 q 349 699 293 699 q 447 678 407 699 q 528 624 488 658 l 522 733 l 522 981 l 682 981 l 682 0 l 550 0 l 539 74 l 533 74 q 446 10 496 36 q 340 -17 396 -17 m 379 115 q 522 192 456 115 l 522 510 q 452 554 486 542 q 383 567 418 567 q 271 508 317 567 q 225 342 225 450 q 265 173 225 231 q 379 115 304 115 m 426 -300 q 358 -274 385 -300 q 332 -208 332 -249 q 358 -143 332 -168 q 426 -118 385 -118 q 494 -143 468 -118 q 521 -208 521 -168 q 494 -274 521 -249 q 426 -300 468 -300 z "},"ḏ":{"ha":783,"x_min":60,"x_max":682,"o":"m 340 -17 q 135 77 211 -17 q 60 340 60 171 q 84 490 60 424 q 149 603 108 557 q 241 674 189 649 q 349 699 293 699 q 447 678 407 699 q 528 624 488 658 l 522 733 l 522 981 l 682 981 l 682 0 l 550 0 l 539 74 l 533 74 q 446 10 496 36 q 340 -17 396 -17 m 379 115 q 522 192 456 115 l 522 510 q 452 554 486 542 q 383 567 418 567 q 271 508 317 567 q 225 342 225 450 q 265 173 225 231 q 379 115 304 115 m 232 -249 l 232 -143 l 621 -143 l 621 -249 l 232 -249 z "},"đ":{"ha":783,"x_min":60,"x_max":779,"o":"m 340 -17 q 224 6 276 -17 q 136 72 172 29 q 80 174 100 114 q 60 311 60 235 q 84 445 60 385 q 149 548 108 506 q 241 614 189 590 q 349 638 293 638 q 447 617 407 638 q 528 563 488 597 l 522 672 l 522 783 l 306 783 l 306 865 l 522 865 l 522 981 l 682 981 l 682 865 l 779 865 l 779 790 l 682 783 l 682 0 l 547 0 l 536 69 l 532 69 q 446 8 494 32 q 340 -17 397 -17 m 379 115 q 522 192 456 115 l 522 449 q 452 493 486 481 q 383 506 418 506 q 322 492 350 506 q 272 453 293 478 q 238 392 250 428 q 225 314 225 357 q 265 167 225 219 q 379 115 304 115 z "},"è":{"ha":704,"x_min":57,"x_max":653,"o":"m 393 -17 q 261 8 322 -17 q 154 78 200 32 q 83 190 108 124 q 57 340 57 256 q 83 490 57 424 q 153 603 110 557 q 254 674 197 649 q 371 699 311 699 q 493 675 440 699 q 581 608 546 651 q 635 506 617 565 q 653 375 653 446 q 651 331 653 351 q 646 297 649 310 l 213 297 q 277 156 224 206 q 414 107 331 107 q 497 120 458 107 q 572 157 535 133 l 626 57 q 518 4 578 25 q 393 -17 458 -17 m 211 406 l 514 406 q 480 530 514 485 q 375 575 446 575 q 268 532 314 575 q 211 406 222 489 m 374 796 l 138 1011 l 249 1117 l 453 875 l 374 796 z "},"é":{"ha":704,"x_min":57,"x_max":653,"o":"m 393 -17 q 261 8 322 -17 q 154 78 200 32 q 83 190 108 124 q 57 340 57 256 q 83 490 57 424 q 153 603 110 557 q 254 674 197 649 q 371 699 311 699 q 493 675 440 699 q 581 608 546 651 q 635 506 617 565 q 653 375 653 446 q 651 331 653 351 q 646 297 649 310 l 213 297 q 277 156 224 206 q 414 107 331 107 q 497 120 458 107 q 572 157 535 133 l 626 57 q 518 4 578 25 q 393 -17 458 -17 m 211 406 l 514 406 q 480 530 514 485 q 375 575 446 575 q 268 532 314 575 q 211 406 222 489 m 368 796 l 289 875 l 493 1117 l 604 1011 l 368 796 z "},"ê":{"ha":704,"x_min":57,"x_max":653,"o":"m 393 -17 q 261 8 322 -17 q 154 78 200 32 q 83 190 108 124 q 57 340 57 256 q 83 490 57 424 q 153 603 110 557 q 254 674 197 649 q 371 699 311 699 q 493 675 440 699 q 581 608 546 651 q 635 506 617 565 q 653 375 653 446 q 651 331 653 351 q 646 297 649 310 l 213 297 q 277 156 224 206 q 414 107 331 107 q 497 120 458 107 q 572 157 535 133 l 626 57 q 518 4 578 25 q 393 -17 458 -17 m 211 406 l 514 406 q 480 530 514 485 q 375 575 446 575 q 268 532 314 575 q 211 406 222 489 m 136 843 l 290 1031 l 451 1031 l 606 843 l 543 783 l 374 926 l 368 926 l 199 783 l 136 843 z "},"ě":{"ha":704,"x_min":57,"x_max":653,"o":"m 393 -17 q 261 8 322 -17 q 154 78 200 32 q 83 190 108 124 q 57 340 57 256 q 83 490 57 424 q 153 603 110 557 q 254 674 197 649 q 371 699 311 699 q 493 675 440 699 q 581 608 546 651 q 635 506 617 565 q 653 375 653 446 q 651 331 653 351 q 646 297 649 310 l 213 297 q 277 156 224 206 q 414 107 331 107 q 497 120 458 107 q 572 157 535 133 l 626 57 q 518 4 578 25 q 393 -17 458 -17 m 211 406 l 514 406 q 480 530 514 485 q 375 575 446 575 q 268 532 314 575 q 211 406 222 489 m 290 800 l 136 988 l 199 1046 l 368 904 l 374 904 l 543 1046 l 606 988 l 451 800 l 290 800 z "},"ë":{"ha":704,"x_min":57,"x_max":653,"o":"m 393 -17 q 261 8 322 -17 q 154 78 200 32 q 83 190 108 124 q 57 340 57 256 q 83 490 57 424 q 153 603 110 557 q 254 674 197 649 q 371 699 311 699 q 493 675 440 699 q 581 608 546 651 q 635 506 617 565 q 653 375 653 446 q 651 331 653 351 q 646 297 649 310 l 213 297 q 277 156 224 206 q 414 107 331 107 q 497 120 458 107 q 572 157 535 133 l 626 57 q 518 4 578 25 q 393 -17 458 -17 m 211 406 l 514 406 q 480 530 514 485 q 375 575 446 575 q 268 532 314 575 q 211 406 222 489 m 228 803 q 167 827 192 803 q 143 888 143 851 q 167 948 143 924 q 228 972 192 972 q 289 948 265 972 q 313 888 313 924 q 289 827 313 851 q 228 803 265 803 m 514 803 q 453 827 476 803 q 429 888 429 851 q 453 948 429 924 q 514 972 476 972 q 574 948 550 972 q 599 888 599 924 q 574 827 599 851 q 514 803 550 803 z "},"ē":{"ha":704,"x_min":57,"x_max":653,"o":"m 393 -17 q 261 8 322 -17 q 154 78 200 32 q 83 190 108 124 q 57 340 57 256 q 83 490 57 424 q 153 603 110 557 q 254 674 197 649 q 371 699 311 699 q 493 675 440 699 q 581 608 546 651 q 635 506 617 565 q 653 375 653 446 q 651 331 653 351 q 646 297 649 310 l 213 297 q 277 156 224 206 q 414 107 331 107 q 497 120 458 107 q 572 157 535 133 l 626 57 q 518 4 578 25 q 393 -17 458 -17 m 211 406 l 514 406 q 480 530 514 485 q 375 575 446 575 q 268 532 314 575 q 211 406 222 489 m 176 828 l 176 933 l 565 933 l 565 828 l 176 828 z "},"ĕ":{"ha":704,"x_min":57,"x_max":653,"o":"m 393 -17 q 261 8 322 -17 q 154 78 200 32 q 83 190 108 124 q 57 340 57 256 q 83 490 57 424 q 153 603 110 557 q 254 674 197 649 q 371 699 311 699 q 493 675 440 699 q 581 608 546 651 q 635 506 617 565 q 653 375 653 446 q 651 331 653 351 q 646 297 649 310 l 213 297 q 277 156 224 206 q 414 107 331 107 q 497 120 458 107 q 572 157 535 133 l 626 57 q 518 4 578 25 q 393 -17 458 -17 m 211 406 l 514 406 q 480 530 514 485 q 375 575 446 575 q 268 532 314 575 q 211 406 222 489 m 371 793 q 271 810 313 793 q 202 858 229 828 q 161 926 175 888 q 144 1008 147 965 l 239 1024 q 252 976 243 999 q 278 935 261 953 q 317 907 294 918 q 371 896 340 896 q 424 907 401 896 q 464 935 447 918 q 490 976 481 953 q 503 1024 499 999 l 597 1008 q 581 926 594 965 q 540 858 567 888 q 471 810 513 828 q 371 793 429 793 z "},"ė":{"ha":704,"x_min":57,"x_max":653,"o":"m 393 -17 q 261 8 322 -17 q 154 78 200 32 q 83 190 108 124 q 57 340 57 256 q 83 490 57 424 q 153 603 110 557 q 254 674 197 649 q 371 699 311 699 q 493 675 440 699 q 581 608 546 651 q 635 506 617 565 q 653 375 653 446 q 651 331 653 351 q 646 297 649 310 l 213 297 q 277 156 224 206 q 414 107 331 107 q 497 120 458 107 q 572 157 535 133 l 626 57 q 518 4 578 25 q 393 -17 458 -17 m 211 406 l 514 406 q 480 530 514 485 q 375 575 446 575 q 268 532 314 575 q 211 406 222 489 m 371 801 q 303 827 329 801 q 276 893 276 853 q 303 958 276 933 q 371 983 329 983 q 439 958 413 983 q 465 893 465 933 q 439 827 465 853 q 371 801 413 801 z "},"ẹ":{"ha":704,"x_min":57,"x_max":653,"o":"m 393 -17 q 261 8 322 -17 q 154 78 200 32 q 83 190 108 124 q 57 340 57 256 q 83 490 57 424 q 153 603 110 557 q 254 674 197 649 q 371 699 311 699 q 493 675 440 699 q 581 608 546 651 q 635 506 617 565 q 653 375 653 446 q 651 331 653 351 q 646 297 649 310 l 213 297 q 277 156 224 206 q 414 107 331 107 q 497 120 458 107 q 572 157 535 133 l 626 57 q 518 4 578 25 q 393 -17 458 -17 m 211 406 l 514 406 q 480 530 514 485 q 375 575 446 575 q 268 532 314 575 q 211 406 222 489 m 369 -300 q 301 -274 328 -300 q 275 -208 275 -249 q 301 -143 275 -168 q 369 -118 328 -118 q 438 -143 411 -118 q 464 -208 464 -168 q 438 -274 464 -249 q 369 -300 411 -300 z "},"ẻ":{"ha":704,"x_min":57,"x_max":653,"o":"m 393 -17 q 261 8 322 -17 q 154 78 200 32 q 83 190 108 124 q 57 340 57 256 q 83 490 57 424 q 153 603 110 557 q 254 674 197 649 q 371 699 311 699 q 493 675 440 699 q 581 608 546 651 q 635 506 617 565 q 653 375 653 446 q 651 331 653 351 q 646 297 649 310 l 213 297 q 277 156 224 206 q 414 107 331 107 q 497 120 458 107 q 572 157 535 133 l 626 57 q 518 4 578 25 q 393 -17 458 -17 m 211 406 l 514 406 q 480 530 514 485 q 375 575 446 575 q 268 532 314 575 q 211 406 222 489 m 318 792 l 304 860 q 353 879 333 867 q 374 917 374 892 q 347 960 374 944 q 261 978 321 975 l 271 1079 q 441 1037 388 1076 q 494 929 494 997 q 480 872 494 896 q 441 832 465 849 q 385 806 417 815 q 318 792 353 796 z "},"ẽ":{"ha":704,"x_min":57,"x_max":653,"o":"m 393 -17 q 261 8 322 -17 q 154 78 200 32 q 83 190 108 124 q 57 340 57 256 q 83 490 57 424 q 153 603 110 557 q 254 674 197 649 q 371 699 311 699 q 493 675 440 699 q 581 608 546 651 q 635 506 617 565 q 653 375 653 446 q 651 331 653 351 q 646 297 649 310 l 213 297 q 277 156 224 206 q 414 107 331 107 q 497 120 458 107 q 572 157 535 133 l 626 57 q 518 4 578 25 q 393 -17 458 -17 m 211 406 l 514 406 q 480 530 514 485 q 375 575 446 575 q 268 532 314 575 q 211 406 222 489 m 467 799 q 406 815 432 799 q 358 850 379 831 q 317 885 336 869 q 278 901 299 901 q 221 808 229 901 l 118 814 q 160 962 121 910 q 275 1014 199 1014 q 336 998 310 1014 q 384 963 363 982 q 425 927 406 943 q 465 911 444 911 q 503 935 490 911 q 521 1004 517 960 l 624 999 q 582 851 621 904 q 467 799 543 799 z "},"ế":{"ha":704,"x_min":57,"x_max":726,"o":"m 393 -17 q 261 8 322 -17 q 154 78 200 32 q 83 190 108 124 q 57 340 57 256 q 83 490 57 424 q 153 603 110 557 q 254 674 197 649 q 371 699 311 699 q 493 675 440 699 q 581 608 546 651 q 635 506 617 565 q 653 375 653 446 q 651 331 653 351 q 646 297 649 310 l 213 297 q 277 156 224 206 q 414 107 331 107 q 497 120 458 107 q 572 157 535 133 l 626 57 q 518 4 578 25 q 393 -17 458 -17 m 211 406 l 514 406 q 480 530 514 485 q 375 575 446 575 q 268 532 314 575 q 211 406 222 489 m 225 789 l 172 849 l 307 976 l 435 976 l 569 849 l 517 789 l 374 883 l 368 883 l 225 789 m 524 936 l 639 1107 l 726 1047 l 586 885 l 524 936 z "},"ề":{"ha":704,"x_min":4,"x_max":653,"o":"m 393 -17 q 261 8 322 -17 q 154 78 200 32 q 83 190 108 124 q 57 340 57 256 q 83 490 57 424 q 153 603 110 557 q 254 674 197 649 q 371 699 311 699 q 493 675 440 699 q 581 608 546 651 q 635 506 617 565 q 653 375 653 446 q 651 331 653 351 q 646 297 649 310 l 213 297 q 277 156 224 206 q 414 107 331 107 q 497 120 458 107 q 572 157 535 133 l 626 57 q 518 4 578 25 q 393 -17 458 -17 m 211 406 l 514 406 q 480 530 514 485 q 375 575 446 575 q 268 532 314 575 q 211 406 222 489 m 225 789 l 172 849 l 307 976 l 435 976 l 569 849 l 517 789 l 374 883 l 368 883 l 225 789 m 218 938 l 156 885 l 4 1046 l 92 1107 l 218 938 z "},"ể":{"ha":704,"x_min":57,"x_max":693,"o":"m 393 -17 q 261 8 322 -17 q 154 78 200 32 q 83 190 108 124 q 57 340 57 256 q 83 490 57 424 q 153 603 110 557 q 254 674 197 649 q 371 699 311 699 q 493 675 440 699 q 581 608 546 651 q 635 506 617 565 q 653 375 653 446 q 651 331 653 351 q 646 297 649 310 l 213 297 q 277 156 224 206 q 414 107 331 107 q 497 120 458 107 q 572 157 535 133 l 626 57 q 518 4 578 25 q 393 -17 458 -17 m 211 406 l 514 406 q 480 530 514 485 q 375 575 446 575 q 268 532 314 575 q 211 406 222 489 m 225 789 l 172 849 l 307 976 l 435 976 l 569 849 l 517 789 l 374 883 l 368 883 l 225 789 m 547 889 l 535 947 q 571 965 557 954 q 585 994 585 975 q 565 1031 585 1018 q 492 1046 544 1043 l 506 1118 q 649 1088 604 1115 q 693 1011 693 1060 q 681 960 693 981 q 649 925 669 939 q 603 903 629 911 q 547 889 576 894 z "},"ễ":{"ha":704,"x_min":57,"x_max":653,"o":"m 393 -17 q 261 8 322 -17 q 154 78 200 32 q 83 190 108 124 q 57 340 57 256 q 83 490 57 424 q 153 603 110 557 q 254 674 197 649 q 371 699 311 699 q 493 675 440 699 q 581 608 546 651 q 635 506 617 565 q 653 375 653 446 q 651 331 653 351 q 646 297 649 310 l 213 297 q 277 156 224 206 q 414 107 331 107 q 497 120 458 107 q 572 157 535 133 l 626 57 q 518 4 578 25 q 393 -17 458 -17 m 211 406 l 514 406 q 480 530 514 485 q 375 575 446 575 q 268 532 314 575 q 211 406 222 489 m 225 789 l 172 849 l 307 968 l 435 968 l 569 849 l 517 789 l 374 875 l 368 875 l 225 789 m 174 1001 q 208 1104 181 1068 q 285 1140 235 1140 q 337 1131 314 1140 q 378 1111 360 1122 q 414 1091 397 1100 q 449 1082 431 1082 q 492 1138 482 1082 l 568 1129 q 534 1026 561 1063 q 457 990 507 990 q 405 999 428 990 q 363 1019 382 1008 q 328 1040 344 1031 q 293 1049 311 1049 q 250 993 260 1049 l 174 1001 z "},"ệ":{"ha":704,"x_min":57,"x_max":653,"o":"m 393 -17 q 261 8 322 -17 q 154 78 200 32 q 83 190 108 124 q 57 340 57 256 q 83 490 57 424 q 153 603 110 557 q 254 674 197 649 q 371 699 311 699 q 493 675 440 699 q 581 608 546 651 q 635 506 617 565 q 653 375 653 446 q 651 331 653 351 q 646 297 649 310 l 213 297 q 277 156 224 206 q 414 107 331 107 q 497 120 458 107 q 572 157 535 133 l 626 57 q 518 4 578 25 q 393 -17 458 -17 m 211 406 l 514 406 q 480 530 514 485 q 375 575 446 575 q 268 532 314 575 q 211 406 222 489 m 136 843 l 290 1031 l 451 1031 l 606 843 l 543 783 l 374 926 l 368 926 l 199 783 l 136 843 m 368 -300 q 300 -274 326 -300 q 274 -208 274 -249 q 300 -143 274 -168 q 368 -118 326 -118 q 436 -143 410 -118 q 463 -208 463 -168 q 436 -274 463 -249 q 368 -300 410 -300 z "},"ę":{"ha":704,"x_min":57,"x_max":653,"o":"m 500 -289 q 403 -258 442 -289 q 365 -167 365 -228 q 392 -74 365 -115 q 446 -10 418 -33 q 418 -15 431 -14 q 393 -17 406 -17 q 261 8 322 -17 q 154 78 200 32 q 83 190 108 124 q 57 340 57 256 q 83 490 57 424 q 153 603 110 557 q 254 674 197 649 q 371 699 311 699 q 493 675 440 699 q 581 608 546 651 q 635 506 617 565 q 653 375 653 446 q 651 331 653 351 q 646 297 649 310 l 213 297 q 277 156 224 206 q 414 107 331 107 q 497 120 458 107 q 572 157 535 133 l 626 57 q 551 -1 581 25 q 506 -48 522 -26 q 482 -90 489 -69 q 475 -132 475 -111 q 493 -176 475 -161 q 538 -190 511 -190 q 589 -172 564 -190 l 625 -247 q 565 -278 601 -267 q 500 -289 529 -289 m 211 406 l 514 406 q 480 530 514 485 q 375 575 446 575 q 268 532 314 575 q 211 406 222 489 z "},"ḗ":{"ha":704,"x_min":57,"x_max":653,"o":"m 393 -17 q 261 8 322 -17 q 154 78 200 32 q 83 190 108 124 q 57 340 57 256 q 83 490 57 424 q 153 603 110 557 q 254 674 197 649 q 371 699 311 699 q 493 675 440 699 q 581 608 546 651 q 635 506 617 565 q 653 375 653 446 q 651 331 653 351 q 646 297 649 310 l 213 297 q 277 156 224 206 q 414 107 331 107 q 497 120 458 107 q 572 157 535 133 l 626 57 q 518 4 578 25 q 393 -17 458 -17 m 211 406 l 514 406 q 480 530 514 485 q 375 575 446 575 q 268 532 314 575 q 211 406 222 489 m 328 985 l 271 1053 l 465 1196 l 533 1110 l 328 985 m 176 828 l 176 933 l 565 933 l 565 828 l 176 828 z "},"ǵ":{"ha":722,"x_min":56,"x_max":703,"o":"m 339 -301 q 226 -290 278 -301 q 136 -257 174 -279 q 77 -201 99 -235 q 56 -124 56 -168 q 81 -44 56 -81 q 153 22 106 -7 l 153 28 q 109 72 126 44 q 92 142 92 100 q 115 215 92 182 q 167 268 138 247 l 167 274 q 105 347 132 300 q 78 454 78 393 q 100 558 78 513 q 159 635 122 604 q 244 683 196 667 q 347 699 293 699 q 401 694 375 699 q 447 682 426 689 l 692 682 l 692 564 l 567 564 q 594 515 583 544 q 606 449 606 485 q 585 349 606 392 q 531 276 565 306 q 449 232 496 247 q 347 217 401 217 q 301 221 325 217 q 254 235 278 225 q 230 207 239 221 q 221 169 221 193 q 245 124 221 140 q 332 107 269 107 l 453 107 q 640 67 576 107 q 703 -61 703 28 q 677 -156 703 -111 q 604 -232 651 -200 q 490 -283 557 -264 q 339 -301 422 -301 m 347 317 q 431 352 396 317 q 465 454 465 388 q 431 553 465 518 q 347 589 397 589 q 263 554 297 589 q 228 454 228 519 q 263 352 228 388 q 347 317 297 317 m 364 -197 q 498 -165 447 -197 q 549 -87 549 -132 q 517 -33 549 -47 q 428 -19 486 -19 l 335 -19 q 242 -10 279 -19 q 189 -100 189 -50 q 235 -172 189 -146 q 364 -197 282 -197 m 378 796 l 299 875 l 503 1117 l 614 1011 l 378 796 z "},"ĝ":{"ha":722,"x_min":56,"x_max":703,"o":"m 339 -301 q 226 -290 278 -301 q 136 -257 174 -279 q 77 -201 99 -235 q 56 -124 56 -168 q 81 -44 56 -81 q 153 22 106 -7 l 153 28 q 109 72 126 44 q 92 142 92 100 q 115 215 92 182 q 167 268 138 247 l 167 274 q 105 347 132 300 q 78 454 78 393 q 100 558 78 513 q 159 635 122 604 q 244 683 196 667 q 347 699 293 699 q 401 694 375 699 q 447 682 426 689 l 692 682 l 692 564 l 567 564 q 594 515 583 544 q 606 449 606 485 q 585 349 606 392 q 531 276 565 306 q 449 232 496 247 q 347 217 401 217 q 301 221 325 217 q 254 235 278 225 q 230 207 239 221 q 221 169 221 193 q 245 124 221 140 q 332 107 269 107 l 453 107 q 640 67 576 107 q 703 -61 703 28 q 677 -156 703 -111 q 604 -232 651 -200 q 490 -283 557 -264 q 339 -301 422 -301 m 347 317 q 431 352 396 317 q 465 454 465 388 q 431 553 465 518 q 347 589 397 589 q 263 554 297 589 q 228 454 228 519 q 263 352 228 388 q 347 317 297 317 m 364 -197 q 498 -165 447 -197 q 549 -87 549 -132 q 517 -33 549 -47 q 428 -19 486 -19 l 335 -19 q 242 -10 279 -19 q 189 -100 189 -50 q 235 -172 189 -146 q 364 -197 282 -197 m 146 843 l 300 1031 l 461 1031 l 615 843 l 553 783 l 383 926 l 378 926 l 208 783 l 146 843 z "},"ğ":{"ha":722,"x_min":56,"x_max":703,"o":"m 339 -301 q 226 -290 278 -301 q 136 -257 174 -279 q 77 -201 99 -235 q 56 -124 56 -168 q 81 -44 56 -81 q 153 22 106 -7 l 153 28 q 109 72 126 44 q 92 142 92 100 q 115 215 92 182 q 167 268 138 247 l 167 274 q 105 347 132 300 q 78 454 78 393 q 100 558 78 513 q 159 635 122 604 q 244 683 196 667 q 347 699 293 699 q 401 694 375 699 q 447 682 426 689 l 692 682 l 692 564 l 567 564 q 594 515 583 544 q 606 449 606 485 q 585 349 606 392 q 531 276 565 306 q 449 232 496 247 q 347 217 401 217 q 301 221 325 217 q 254 235 278 225 q 230 207 239 221 q 221 169 221 193 q 245 124 221 140 q 332 107 269 107 l 453 107 q 640 67 576 107 q 703 -61 703 28 q 677 -156 703 -111 q 604 -232 651 -200 q 490 -283 557 -264 q 339 -301 422 -301 m 347 317 q 431 352 396 317 q 465 454 465 388 q 431 553 465 518 q 347 589 397 589 q 263 554 297 589 q 228 454 228 519 q 263 352 228 388 q 347 317 297 317 m 364 -197 q 498 -165 447 -197 q 549 -87 549 -132 q 517 -33 549 -47 q 428 -19 486 -19 l 335 -19 q 242 -10 279 -19 q 189 -100 189 -50 q 235 -172 189 -146 q 364 -197 282 -197 m 381 793 q 281 810 322 793 q 212 858 239 828 q 171 926 185 888 q 154 1008 157 965 l 249 1024 q 262 976 253 999 q 288 935 271 953 q 327 907 304 918 q 381 896 350 896 q 434 907 411 896 q 474 935 457 918 q 499 976 490 953 q 513 1024 508 999 l 607 1008 q 590 926 604 965 q 549 858 576 888 q 481 810 522 828 q 381 793 439 793 z "},"ġ":{"ha":722,"x_min":56,"x_max":703,"o":"m 339 -301 q 226 -290 278 -301 q 136 -257 174 -279 q 77 -201 99 -235 q 56 -124 56 -168 q 81 -44 56 -81 q 153 22 106 -7 l 153 28 q 109 72 126 44 q 92 142 92 100 q 115 215 92 182 q 167 268 138 247 l 167 274 q 105 347 132 300 q 78 454 78 393 q 100 558 78 513 q 159 635 122 604 q 244 683 196 667 q 347 699 293 699 q 401 694 375 699 q 447 682 426 689 l 692 682 l 692 564 l 567 564 q 594 515 583 544 q 606 449 606 485 q 585 349 606 392 q 531 276 565 306 q 449 232 496 247 q 347 217 401 217 q 301 221 325 217 q 254 235 278 225 q 230 207 239 221 q 221 169 221 193 q 245 124 221 140 q 332 107 269 107 l 453 107 q 640 67 576 107 q 703 -61 703 28 q 677 -156 703 -111 q 604 -232 651 -200 q 490 -283 557 -264 q 339 -301 422 -301 m 347 317 q 431 352 396 317 q 465 454 465 388 q 431 553 465 518 q 347 589 397 589 q 263 554 297 589 q 228 454 228 519 q 263 352 228 388 q 347 317 297 317 m 364 -197 q 498 -165 447 -197 q 549 -87 549 -132 q 517 -33 549 -47 q 428 -19 486 -19 l 335 -19 q 242 -10 279 -19 q 189 -100 189 -50 q 235 -172 189 -146 q 364 -197 282 -197 m 381 801 q 313 827 339 801 q 286 893 286 853 q 313 958 286 933 q 381 983 339 983 q 449 958 422 983 q 475 893 475 933 q 449 827 475 853 q 381 801 422 801 z "},"ģ":{"ha":722,"x_min":56,"x_max":703,"o":"m 339 -301 q 226 -290 278 -301 q 136 -257 174 -279 q 77 -201 99 -235 q 56 -124 56 -168 q 81 -44 56 -81 q 153 22 106 -7 l 153 28 q 109 72 126 44 q 92 142 92 100 q 115 215 92 182 q 167 268 138 247 l 167 274 q 105 347 132 300 q 78 454 78 393 q 100 558 78 513 q 159 635 122 604 q 244 683 196 667 q 347 699 293 699 q 401 694 375 699 q 447 682 426 689 l 692 682 l 692 564 l 567 564 q 594 515 583 544 q 606 449 606 485 q 585 349 606 392 q 531 276 565 306 q 449 232 496 247 q 347 217 401 217 q 301 221 325 217 q 254 235 278 225 q 230 207 239 221 q 221 169 221 193 q 245 124 221 140 q 332 107 269 107 l 453 107 q 640 67 576 107 q 703 -61 703 28 q 677 -156 703 -111 q 604 -232 651 -200 q 490 -283 557 -264 q 339 -301 422 -301 m 347 317 q 431 352 396 317 q 465 454 465 388 q 431 553 465 518 q 347 589 397 589 q 263 554 297 589 q 228 454 228 519 q 263 352 228 388 q 347 317 297 317 m 364 -197 q 498 -165 447 -197 q 549 -87 549 -132 q 517 -33 549 -47 q 428 -19 486 -19 l 335 -19 q 242 -10 279 -19 q 189 -100 189 -50 q 235 -172 189 -146 q 364 -197 282 -197 m 439 794 q 299 831 338 804 q 260 906 260 857 q 325 1004 260 972 q 511 1042 390 1036 l 525 972 q 409 953 440 967 q 378 911 378 939 q 472 858 378 867 l 439 794 z "},"ǧ":{"ha":722,"x_min":56,"x_max":703,"o":"m 339 -301 q 226 -290 278 -301 q 136 -257 174 -279 q 77 -201 99 -235 q 56 -124 56 -168 q 81 -44 56 -81 q 153 22 106 -7 l 153 28 q 109 72 126 44 q 92 142 92 100 q 115 215 92 182 q 167 268 138 247 l 167 274 q 105 347 132 300 q 78 454 78 393 q 100 558 78 513 q 159 635 122 604 q 244 683 196 667 q 347 699 293 699 q 401 694 375 699 q 447 682 426 689 l 692 682 l 692 564 l 567 564 q 594 515 583 544 q 606 449 606 485 q 585 349 606 392 q 531 276 565 306 q 449 232 496 247 q 347 217 401 217 q 301 221 325 217 q 254 235 278 225 q 230 207 239 221 q 221 169 221 193 q 245 124 221 140 q 332 107 269 107 l 453 107 q 640 67 576 107 q 703 -61 703 28 q 677 -156 703 -111 q 604 -232 651 -200 q 490 -283 557 -264 q 339 -301 422 -301 m 347 317 q 431 352 396 317 q 465 454 465 388 q 431 553 465 518 q 347 589 397 589 q 263 554 297 589 q 228 454 228 519 q 263 352 228 388 q 347 317 297 317 m 364 -197 q 498 -165 447 -197 q 549 -87 549 -132 q 517 -33 549 -47 q 428 -19 486 -19 l 335 -19 q 242 -10 279 -19 q 189 -100 189 -50 q 235 -172 189 -146 q 364 -197 282 -197 m 300 800 l 146 988 l 208 1046 l 378 904 l 383 904 l 553 1046 l 615 988 l 461 800 l 300 800 z "},"ḡ":{"ha":722,"x_min":56,"x_max":703,"o":"m 339 -301 q 226 -290 278 -301 q 136 -257 174 -279 q 77 -201 99 -235 q 56 -124 56 -168 q 81 -44 56 -81 q 153 22 106 -7 l 153 28 q 109 72 126 44 q 92 142 92 100 q 115 215 92 182 q 167 268 138 247 l 167 274 q 105 347 132 300 q 78 454 78 393 q 100 558 78 513 q 159 635 122 604 q 244 683 196 667 q 347 699 293 699 q 401 694 375 699 q 447 682 426 689 l 692 682 l 692 564 l 567 564 q 594 515 583 544 q 606 449 606 485 q 585 349 606 392 q 531 276 565 306 q 449 232 496 247 q 347 217 401 217 q 301 221 325 217 q 254 235 278 225 q 230 207 239 221 q 221 169 221 193 q 245 124 221 140 q 332 107 269 107 l 453 107 q 640 67 576 107 q 703 -61 703 28 q 677 -156 703 -111 q 604 -232 651 -200 q 490 -283 557 -264 q 339 -301 422 -301 m 347 317 q 431 352 396 317 q 465 454 465 388 q 431 553 465 518 q 347 589 397 589 q 263 554 297 589 q 228 454 228 519 q 263 352 228 388 q 347 317 297 317 m 364 -197 q 498 -165 447 -197 q 549 -87 549 -132 q 517 -33 549 -47 q 428 -19 486 -19 l 335 -19 q 242 -10 279 -19 q 189 -100 189 -50 q 235 -172 189 -146 q 364 -197 282 -197 m 186 828 l 186 933 l 575 933 l 575 828 l 186 828 z "},"ĥ":{"ha":775,"x_min":-40,"x_max":683,"o":"m 101 0 l 101 981 l 261 981 l 261 728 l 256 596 q 351 667 299 636 q 474 699 403 699 q 633 628 583 699 q 683 428 683 558 l 683 0 l 524 0 l 524 407 q 499 526 524 492 q 417 561 474 561 q 338 540 372 561 q 261 476 304 518 l 261 0 l 101 0 m -40 1069 l 94 1224 l 267 1224 l 401 1069 l 332 1024 l 183 1146 l 178 1146 l 29 1024 l -40 1069 z "},"ḥ":{"ha":775,"x_min":101,"x_max":683,"o":"m 101 0 l 101 981 l 261 981 l 261 728 l 256 596 q 351 667 299 636 q 474 699 403 699 q 633 628 583 699 q 683 428 683 558 l 683 0 l 524 0 l 524 407 q 499 526 524 492 q 417 561 474 561 q 338 540 372 561 q 261 476 304 518 l 261 0 l 101 0 m 403 -300 q 335 -274 361 -300 q 308 -208 308 -249 q 335 -143 308 -168 q 403 -118 361 -118 q 471 -143 444 -118 q 497 -208 497 -168 q 471 -274 497 -249 q 403 -300 444 -300 z "},"ẖ":{"ha":775,"x_min":101,"x_max":683,"o":"m 101 0 l 101 981 l 261 981 l 261 728 l 256 596 q 351 667 299 636 q 474 699 403 699 q 633 628 583 699 q 683 428 683 558 l 683 0 l 524 0 l 524 407 q 499 526 524 492 q 417 561 474 561 q 338 540 372 561 q 261 476 304 518 l 261 0 l 101 0 m 208 -249 l 208 -143 l 597 -143 l 597 -249 l 208 -249 z "},"ḫ":{"ha":775,"x_min":101,"x_max":683,"o":"m 101 0 l 101 981 l 261 981 l 261 728 l 256 596 q 351 667 299 636 q 474 699 403 699 q 633 628 583 699 q 683 428 683 558 l 683 0 l 524 0 l 524 407 q 499 526 524 492 q 417 561 474 561 q 338 540 372 561 q 261 476 304 518 l 261 0 l 101 0 m 401 -322 q 301 -305 343 -322 q 233 -258 260 -287 q 192 -189 206 -228 q 175 -107 178 -150 l 269 -92 q 283 -140 274 -117 q 308 -180 292 -162 q 348 -208 325 -197 q 401 -219 371 -219 q 455 -208 432 -219 q 494 -180 478 -197 q 520 -140 511 -162 q 533 -92 529 -117 l 628 -107 q 611 -189 625 -150 q 570 -258 597 -228 q 501 -305 543 -287 q 401 -322 460 -322 z "},"ħ":{"ha":775,"x_min":3,"x_max":683,"o":"m 101 0 l 101 783 l 3 783 l 3 858 l 101 865 l 101 981 l 261 981 l 261 865 l 506 865 l 506 783 l 261 783 l 261 667 l 256 535 q 351 606 299 575 q 474 638 403 638 q 633 567 583 638 q 683 367 683 497 l 683 0 l 524 0 l 524 346 q 499 465 524 431 q 417 500 474 500 q 338 478 372 500 q 261 415 304 457 l 261 0 l 101 0 z "},"ì":{"ha":364,"x_min":-51,"x_max":264,"o":"m 101 0 l 101 682 l 261 682 l 261 0 l 101 0 m 185 796 l -51 1011 l 60 1117 l 264 875 l 185 796 z "},"í":{"ha":364,"x_min":100,"x_max":415,"o":"m 101 0 l 101 682 l 261 682 l 261 0 l 101 0 m 179 796 l 100 875 l 304 1117 l 415 1011 l 179 796 z "},"î":{"ha":364,"x_min":-53,"x_max":417,"o":"m 101 0 l 101 682 l 261 682 l 261 0 l 101 0 m -53 843 l 101 1031 l 263 1031 l 417 843 l 354 783 l 185 926 l 179 926 l 10 783 l -53 843 z "},"ĩ":{"ha":364,"x_min":-71,"x_max":435,"o":"m 101 0 l 101 682 l 261 682 l 261 0 l 101 0 m 278 799 q 217 815 243 799 q 169 850 190 831 q 128 885 147 869 q 89 901 110 901 q 32 808 40 901 l -71 814 q -29 962 -68 910 q 86 1014 10 1014 q 147 998 121 1014 q 195 963 174 982 q 236 927 217 943 q 276 911 256 911 q 315 935 301 911 q 332 1004 328 960 l 435 999 q 393 851 432 904 q 278 799 354 799 z "},"ï":{"ha":364,"x_min":-46,"x_max":410,"o":"m 101 0 l 101 682 l 261 682 l 261 0 l 101 0 m 39 803 q -22 827 3 803 q -46 888 -46 851 q -22 948 -46 924 q 39 972 3 972 q 100 948 76 972 q 124 888 124 924 q 100 827 124 851 q 39 803 76 803 m 325 803 q 264 827 288 803 q 240 888 240 851 q 264 948 240 924 q 325 972 288 972 q 385 948 361 972 q 410 888 410 924 q 385 827 410 851 q 325 803 361 803 z "},"ī":{"ha":364,"x_min":-12,"x_max":376,"o":"m 101 0 l 101 682 l 261 682 l 261 0 l 101 0 m -12 828 l -12 933 l 376 933 l 376 828 l -12 828 z "},"ǐ":{"ha":364,"x_min":-53,"x_max":417,"o":"m 101 0 l 101 682 l 261 682 l 261 0 l 101 0 m 101 800 l -53 988 l 10 1046 l 179 904 l 185 904 l 354 1046 l 417 988 l 263 800 l 101 800 z "},"ỉ":{"ha":364,"x_min":72,"x_max":306,"o":"m 101 0 l 101 682 l 261 682 l 261 0 l 101 0 m 129 792 l 115 860 q 165 879 144 867 q 185 917 185 892 q 158 960 185 944 q 72 978 132 975 l 82 1079 q 252 1037 199 1076 q 306 929 306 997 q 291 872 306 896 q 252 832 276 849 q 196 806 228 815 q 129 792 164 796 z "},"ị":{"ha":364,"x_min":83,"x_max":281,"o":"m 101 0 l 101 682 l 261 682 l 261 0 l 101 0 m 182 801 q 111 826 139 801 q 83 892 83 851 q 111 958 83 932 q 182 983 139 983 q 253 958 225 983 q 281 892 281 932 q 253 826 281 851 q 182 801 225 801 m 182 -300 q 114 -274 140 -300 q 88 -208 88 -249 q 114 -143 88 -168 q 182 -118 140 -118 q 250 -143 224 -118 q 276 -208 276 -168 q 250 -274 276 -249 q 182 -300 224 -300 z "},"į":{"ha":364,"x_min":56,"x_max":317,"o":"m 192 -289 q 94 -258 133 -289 q 56 -167 56 -228 q 65 -112 56 -137 q 87 -67 74 -87 q 115 -29 100 -46 q 144 0 131 -12 l 101 0 l 101 682 l 261 682 l 261 0 q 190 -60 213 -25 q 167 -132 167 -96 q 185 -176 167 -161 q 229 -190 204 -190 q 281 -172 253 -190 l 317 -247 q 257 -278 293 -267 q 192 -289 221 -289 m 181 801 q 110 826 139 801 q 82 892 82 851 q 110 958 82 932 q 181 983 139 983 q 252 958 224 983 q 281 892 281 932 q 252 826 281 851 q 181 801 224 801 z "},"ĭ":{"ha":364,"x_min":-44,"x_max":408,"o":"m 101 0 l 101 682 l 261 682 l 261 0 l 101 0 m 182 793 q 82 810 124 793 q 13 858 40 828 q -28 926 -14 888 q -44 1008 -42 965 l 50 1024 q 63 976 54 999 q 89 935 72 953 q 128 907 106 918 q 182 896 151 896 q 235 907 213 896 q 275 935 258 918 q 301 976 292 953 q 314 1024 310 999 l 408 1008 q 392 926 406 965 q 351 858 378 888 q 282 810 324 828 q 182 793 240 793 z "},"ı":{"ha":364,"x_min":101,"x_max":261,"o":"m 101 0 l 101 682 l 261 682 l 261 0 l 101 0 z "},"ĵ":{"ha":365,"x_min":-64,"x_max":418,"o":"m 47 -286 q -17 -281 10 -286 q -64 -268 -44 -275 l -33 -149 q -5 -156 -19 -153 q 25 -160 10 -160 q 87 -128 71 -160 q 103 -37 103 -97 l 103 682 l 264 682 l 264 -35 q 253 -135 264 -89 q 216 -215 242 -181 q 149 -267 190 -249 q 47 -286 107 -286 m -51 843 l 103 1031 l 264 1031 l 418 843 l 356 783 l 186 926 l 181 926 l 11 783 l -51 843 z "},"ķ":{"ha":725,"x_min":101,"x_max":714,"o":"m 101 0 l 101 981 l 258 981 l 258 368 l 263 368 l 515 682 l 690 682 l 457 404 l 714 0 l 540 0 l 365 296 l 258 174 l 258 0 l 101 0 m 263 -324 l 249 -254 q 365 -235 333 -249 q 396 -194 396 -221 q 301 -140 396 -149 l 335 -76 q 475 -112 436 -86 q 514 -187 514 -139 q 449 -286 514 -254 q 263 -324 383 -318 z "},"ḳ":{"ha":725,"x_min":101,"x_max":714,"o":"m 101 0 l 101 981 l 258 981 l 258 368 l 263 368 l 515 682 l 690 682 l 457 404 l 714 0 l 540 0 l 365 296 l 258 174 l 258 0 l 101 0 m 393 -300 q 325 -274 351 -300 q 299 -208 299 -249 q 325 -143 299 -168 q 393 -118 351 -118 q 461 -143 435 -118 q 488 -208 488 -168 q 461 -274 488 -249 q 393 -300 435 -300 z "},"ḵ":{"ha":725,"x_min":101,"x_max":714,"o":"m 101 0 l 101 981 l 258 981 l 258 368 l 263 368 l 515 682 l 690 682 l 457 404 l 714 0 l 540 0 l 365 296 l 258 174 l 258 0 l 101 0 m 199 -249 l 199 -143 l 588 -143 l 588 -249 l 199 -249 z "},"ĸ":{"ha":725,"x_min":101,"x_max":714,"o":"m 101 0 l 101 682 l 261 682 l 261 365 l 267 365 l 515 682 l 690 682 l 460 404 l 714 0 l 540 0 l 365 292 l 261 168 l 261 0 l 101 0 z "},"ĺ":{"ha":376,"x_min":90,"x_max":394,"o":"m 257 -17 q 136 35 171 -17 q 101 175 101 86 l 101 981 l 261 981 l 261 167 q 272 126 261 138 q 296 114 283 114 q 306 114 301 114 q 321 117 311 114 l 342 -3 q 257 -17 310 -17 m 161 1031 l 90 1111 l 308 1299 l 394 1193 l 161 1031 z "},"ľ":{"ha":410,"x_min":101,"x_max":431,"o":"m 257 -17 q 136 35 171 -17 q 101 175 101 86 l 101 981 l 261 981 l 261 167 q 272 126 261 138 q 296 114 283 114 q 306 114 301 114 q 321 117 311 114 l 342 -3 q 257 -17 310 -17 m 331 761 l 324 1063 l 431 1063 l 429 975 l 403 761 l 331 761 z "},"ŀ":{"ha":567,"x_min":101,"x_max":568,"o":"m 257 -17 q 136 35 171 -17 q 101 175 101 86 l 101 981 l 261 981 l 261 167 q 272 126 261 138 q 296 114 283 114 q 306 114 301 114 q 321 117 311 114 l 342 -3 q 257 -17 310 -17 m 465 346 q 391 376 421 346 q 361 454 361 407 q 391 532 361 501 q 465 563 421 563 q 539 532 510 563 q 568 454 568 501 q 539 376 568 407 q 465 346 510 346 z "},"ļ":{"ha":376,"x_min":94,"x_max":360,"o":"m 257 -17 q 136 35 171 -17 q 101 175 101 86 l 101 981 l 261 981 l 261 167 q 272 126 261 138 q 296 114 283 114 q 306 114 301 114 q 321 117 311 114 l 342 -3 q 257 -17 310 -17 m 108 -324 l 94 -254 q 210 -235 179 -249 q 242 -194 242 -221 q 147 -140 242 -149 l 181 -76 q 321 -112 282 -86 q 360 -187 360 -139 q 294 -286 360 -254 q 108 -324 229 -318 z "},"ḷ":{"ha":376,"x_min":101,"x_max":342,"o":"m 257 -17 q 136 35 171 -17 q 101 175 101 86 l 101 981 l 261 981 l 261 167 q 272 126 261 138 q 296 114 283 114 q 306 114 301 114 q 321 117 311 114 l 342 -3 q 257 -17 310 -17 m 239 -300 q 171 -274 197 -300 q 144 -208 144 -249 q 171 -143 144 -168 q 239 -118 197 -118 q 307 -143 281 -118 q 333 -208 333 -168 q 307 -274 333 -249 q 239 -300 281 -300 z "},"ḹ":{"ha":376,"x_min":-15,"x_max":374,"o":"m 257 -17 q 136 35 171 -17 q 101 175 101 86 l 101 981 l 261 981 l 261 167 q 272 126 261 138 q 296 114 283 114 q 306 114 301 114 q 321 117 311 114 l 342 -3 q 257 -17 310 -17 m -15 1128 l -15 1233 l 374 1233 l 374 1128 l -15 1128 m 239 -300 q 171 -274 197 -300 q 144 -208 144 -249 q 171 -143 144 -168 q 239 -118 197 -118 q 307 -143 281 -118 q 333 -208 333 -168 q 307 -274 333 -249 q 239 -300 281 -300 z "},"ḻ":{"ha":376,"x_min":44,"x_max":433,"o":"m 257 -17 q 136 35 171 -17 q 101 175 101 86 l 101 981 l 261 981 l 261 167 q 272 126 261 138 q 296 114 283 114 q 306 114 301 114 q 321 117 311 114 l 342 -3 q 257 -17 310 -17 m 44 -249 l 44 -143 l 433 -143 l 433 -249 l 44 -249 z "},"ł":{"ha":393,"x_min":-15,"x_max":399,"o":"m 267 -17 q 146 35 181 -17 q 111 175 111 86 l 111 421 l 40 378 l -15 478 l 111 553 l 111 981 l 271 981 l 271 633 l 342 675 l 399 575 l 271 500 l 271 167 q 282 126 271 138 q 306 114 293 114 q 316 114 311 114 q 331 117 321 114 l 351 -3 q 267 -17 319 -17 z "},"ḿ":{"ha":1171,"x_min":101,"x_max":1078,"o":"m 101 0 l 101 682 l 233 682 l 244 589 l 250 589 q 344 667 293 635 q 458 699 394 699 q 578 667 533 699 q 647 576 624 635 q 749 664 696 629 q 867 699 801 699 q 1026 628 975 699 q 1078 428 1078 558 l 1078 0 l 917 0 l 917 407 q 891 526 917 492 q 813 561 865 561 q 669 476 749 561 l 669 0 l 510 0 l 510 407 q 484 526 510 492 q 404 561 458 561 q 261 476 340 561 l 261 0 l 101 0 m 593 796 l 514 875 l 718 1117 l 829 1011 l 593 796 z "},"ṁ":{"ha":1171,"x_min":101,"x_max":1078,"o":"m 101 0 l 101 682 l 233 682 l 244 589 l 250 589 q 344 667 293 635 q 458 699 394 699 q 578 667 533 699 q 647 576 624 635 q 749 664 696 629 q 867 699 801 699 q 1026 628 975 699 q 1078 428 1078 558 l 1078 0 l 917 0 l 917 407 q 891 526 917 492 q 813 561 865 561 q 669 476 749 561 l 669 0 l 510 0 l 510 407 q 484 526 510 492 q 404 561 458 561 q 261 476 340 561 l 261 0 l 101 0 m 596 801 q 528 827 554 801 q 501 893 501 853 q 528 958 501 933 q 596 983 554 983 q 664 958 638 983 q 690 893 690 933 q 664 827 690 853 q 596 801 638 801 z "},"ṃ":{"ha":1171,"x_min":101,"x_max":1078,"o":"m 101 0 l 101 682 l 233 682 l 244 589 l 250 589 q 344 667 293 635 q 458 699 394 699 q 578 667 533 699 q 647 576 624 635 q 749 664 696 629 q 867 699 801 699 q 1026 628 975 699 q 1078 428 1078 558 l 1078 0 l 917 0 l 917 407 q 891 526 917 492 q 813 561 865 561 q 669 476 749 561 l 669 0 l 510 0 l 510 407 q 484 526 510 492 q 404 561 458 561 q 261 476 340 561 l 261 0 l 101 0 m 600 -300 q 532 -274 558 -300 q 506 -208 506 -249 q 532 -143 506 -168 q 600 -118 558 -118 q 668 -143 642 -118 q 694 -208 694 -168 q 668 -274 694 -249 q 600 -300 642 -300 z "},"ń":{"ha":778,"x_min":101,"x_max":683,"o":"m 101 0 l 101 682 l 233 682 l 244 590 l 250 590 q 349 667 296 635 q 474 699 403 699 q 633 628 583 699 q 683 428 683 558 l 683 0 l 524 0 l 524 407 q 499 526 524 492 q 417 561 474 561 q 338 540 372 561 q 261 476 304 518 l 261 0 l 101 0 m 414 796 l 335 875 l 539 1117 l 650 1011 l 414 796 z "},"ǹ":{"ha":778,"x_min":101,"x_max":683,"o":"m 101 0 l 101 682 l 233 682 l 244 590 l 250 590 q 349 667 296 635 q 474 699 403 699 q 633 628 583 699 q 683 428 683 558 l 683 0 l 524 0 l 524 407 q 499 526 524 492 q 417 561 474 561 q 338 540 372 561 q 261 476 304 518 l 261 0 l 101 0 m 419 796 l 183 1011 l 294 1117 l 499 875 l 419 796 z "},"ň":{"ha":778,"x_min":101,"x_max":683,"o":"m 101 0 l 101 682 l 233 682 l 244 590 l 250 590 q 349 667 296 635 q 474 699 403 699 q 633 628 583 699 q 683 428 683 558 l 683 0 l 524 0 l 524 407 q 499 526 524 492 q 417 561 474 561 q 338 540 372 561 q 261 476 304 518 l 261 0 l 101 0 m 336 800 l 182 988 l 244 1046 l 414 904 l 419 904 l 589 1046 l 651 988 l 497 800 l 336 800 z "},"ñ":{"ha":778,"x_min":101,"x_max":683,"o":"m 101 0 l 101 682 l 233 682 l 244 590 l 250 590 q 349 667 296 635 q 474 699 403 699 q 633 628 583 699 q 683 428 683 558 l 683 0 l 524 0 l 524 407 q 499 526 524 492 q 417 561 474 561 q 338 540 372 561 q 261 476 304 518 l 261 0 l 101 0 m 513 799 q 451 815 478 799 q 403 850 425 831 q 363 885 382 869 q 324 901 344 901 q 267 808 275 901 l 164 814 q 206 962 167 910 q 321 1014 244 1014 q 382 998 356 1014 q 430 963 408 982 q 471 927 451 943 q 511 911 490 911 q 549 935 536 911 q 567 1004 563 960 l 669 999 q 628 851 667 904 q 513 799 589 799 z "},"ņ":{"ha":778,"x_min":101,"x_max":683,"o":"m 101 0 l 101 682 l 233 682 l 244 590 l 250 590 q 349 667 296 635 q 474 699 403 699 q 633 628 583 699 q 683 428 683 558 l 683 0 l 524 0 l 524 407 q 499 526 524 492 q 417 561 474 561 q 338 540 372 561 q 261 476 304 518 l 261 0 l 101 0 m 265 -324 l 251 -254 q 367 -235 336 -249 q 399 -194 399 -221 q 304 -140 399 -149 l 338 -76 q 478 -112 439 -86 q 517 -187 517 -139 q 451 -286 517 -254 q 265 -324 386 -318 z "},"ṅ":{"ha":778,"x_min":101,"x_max":683,"o":"m 101 0 l 101 682 l 233 682 l 244 590 l 250 590 q 349 667 296 635 q 474 699 403 699 q 633 628 583 699 q 683 428 683 558 l 683 0 l 524 0 l 524 407 q 499 526 524 492 q 417 561 474 561 q 338 540 372 561 q 261 476 304 518 l 261 0 l 101 0 m 417 801 q 349 827 375 801 q 322 893 322 853 q 349 958 322 933 q 417 983 375 983 q 485 958 458 983 q 511 893 511 933 q 485 827 511 853 q 417 801 458 801 z "},"ṇ":{"ha":778,"x_min":101,"x_max":683,"o":"m 101 0 l 101 682 l 233 682 l 244 590 l 250 590 q 349 667 296 635 q 474 699 403 699 q 633 628 583 699 q 683 428 683 558 l 683 0 l 524 0 l 524 407 q 499 526 524 492 q 417 561 474 561 q 338 540 372 561 q 261 476 304 518 l 261 0 l 101 0 m 397 -300 q 329 -274 356 -300 q 303 -208 303 -249 q 329 -143 303 -168 q 397 -118 356 -118 q 465 -143 439 -118 q 492 -208 492 -168 q 465 -274 492 -249 q 397 -300 439 -300 z "},"ṉ":{"ha":778,"x_min":101,"x_max":683,"o":"m 101 0 l 101 682 l 233 682 l 244 590 l 250 590 q 349 667 296 635 q 474 699 403 699 q 633 628 583 699 q 683 428 683 558 l 683 0 l 524 0 l 524 407 q 499 526 524 492 q 417 561 474 561 q 338 540 372 561 q 261 476 304 518 l 261 0 l 101 0 m 201 -249 l 201 -143 l 590 -143 l 590 -249 l 201 -249 z "},"ŉ":{"ha":1131,"x_min":93,"x_max":1032,"o":"m 450 0 l 450 682 l 582 682 l 593 590 l 599 590 q 698 667 644 635 q 822 699 751 699 q 982 628 932 699 q 1032 428 1032 558 l 1032 0 l 872 0 l 872 407 q 847 526 872 492 q 765 561 822 561 q 687 540 721 561 q 610 476 653 518 l 610 0 l 450 0 m 132 543 l 93 614 q 180 688 151 647 q 208 789 208 728 q 196 788 204 788 q 133 810 160 788 q 106 874 106 833 q 131 944 106 918 q 196 969 156 969 q 277 929 249 969 q 306 815 306 889 q 132 543 306 633 z "},"ò":{"ha":763,"x_min":57,"x_max":706,"o":"m 381 -17 q 258 7 317 -17 q 155 76 200 31 q 83 189 110 122 q 57 340 57 256 q 83 492 57 425 q 155 604 110 558 q 258 674 200 650 q 381 699 317 699 q 503 674 444 699 q 607 604 563 650 q 678 492 651 558 q 706 340 706 425 q 678 189 706 256 q 607 76 651 122 q 503 7 563 31 q 381 -17 444 -17 m 381 114 q 499 176 456 114 q 542 340 542 238 q 499 506 542 444 q 381 568 456 568 q 263 506 306 568 q 221 340 221 444 q 263 176 221 238 q 381 114 306 114 m 383 796 l 147 1011 l 258 1117 l 463 875 l 383 796 z "},"ó":{"ha":763,"x_min":57,"x_max":706,"o":"m 381 -17 q 258 7 317 -17 q 155 76 200 31 q 83 189 110 122 q 57 340 57 256 q 83 492 57 425 q 155 604 110 558 q 258 674 200 650 q 381 699 317 699 q 503 674 444 699 q 607 604 563 650 q 678 492 651 558 q 706 340 706 425 q 678 189 706 256 q 607 76 651 122 q 503 7 563 31 q 381 -17 444 -17 m 381 114 q 499 176 456 114 q 542 340 542 238 q 499 506 542 444 q 381 568 456 568 q 263 506 306 568 q 221 340 221 444 q 263 176 221 238 q 381 114 306 114 m 378 796 l 299 875 l 503 1117 l 614 1011 l 378 796 z "},"ô":{"ha":763,"x_min":57,"x_max":706,"o":"m 381 -17 q 258 7 317 -17 q 155 76 200 31 q 83 189 110 122 q 57 340 57 256 q 83 492 57 425 q 155 604 110 558 q 258 674 200 650 q 381 699 317 699 q 503 674 444 699 q 607 604 563 650 q 678 492 651 558 q 706 340 706 425 q 678 189 706 256 q 607 76 651 122 q 503 7 563 31 q 381 -17 444 -17 m 381 114 q 499 176 456 114 q 542 340 542 238 q 499 506 542 444 q 381 568 456 568 q 263 506 306 568 q 221 340 221 444 q 263 176 221 238 q 381 114 306 114 m 146 843 l 300 1031 l 461 1031 l 615 843 l 553 783 l 383 926 l 378 926 l 208 783 l 146 843 z "},"õ":{"ha":763,"x_min":57,"x_max":706,"o":"m 381 -17 q 258 7 317 -17 q 155 76 200 31 q 83 189 110 122 q 57 340 57 256 q 83 492 57 425 q 155 604 110 558 q 258 674 200 650 q 381 699 317 699 q 503 674 444 699 q 607 604 563 650 q 678 492 651 558 q 706 340 706 425 q 678 189 706 256 q 607 76 651 122 q 503 7 563 31 q 381 -17 444 -17 m 381 114 q 499 176 456 114 q 542 340 542 238 q 499 506 542 444 q 381 568 456 568 q 263 506 306 568 q 221 340 221 444 q 263 176 221 238 q 381 114 306 114 m 476 799 q 415 815 442 799 q 367 850 389 831 q 327 885 346 869 q 288 901 308 901 q 231 808 239 901 l 128 814 q 169 962 131 910 q 285 1014 208 1014 q 346 998 319 1014 q 394 963 372 982 q 435 927 415 943 q 475 911 454 911 q 513 935 500 911 q 531 1004 526 960 l 633 999 q 592 851 631 904 q 476 799 553 799 z "},"ö":{"ha":763,"x_min":57,"x_max":706,"o":"m 381 -17 q 258 7 317 -17 q 155 76 200 31 q 83 189 110 122 q 57 340 57 256 q 83 492 57 425 q 155 604 110 558 q 258 674 200 650 q 381 699 317 699 q 503 674 444 699 q 607 604 563 650 q 678 492 651 558 q 706 340 706 425 q 678 189 706 256 q 607 76 651 122 q 503 7 563 31 q 381 -17 444 -17 m 381 114 q 499 176 456 114 q 542 340 542 238 q 499 506 542 444 q 381 568 456 568 q 263 506 306 568 q 221 340 221 444 q 263 176 221 238 q 381 114 306 114 m 238 803 q 177 827 201 803 q 153 888 153 851 q 177 948 153 924 q 238 972 201 972 q 299 948 275 972 q 322 888 322 924 q 299 827 322 851 q 238 803 275 803 m 524 803 q 463 827 486 803 q 439 888 439 851 q 463 948 439 924 q 524 972 486 972 q 584 948 560 972 q 608 888 608 924 q 584 827 608 851 q 524 803 560 803 z "},"ō":{"ha":763,"x_min":57,"x_max":706,"o":"m 381 -17 q 258 7 317 -17 q 155 76 200 31 q 83 189 110 122 q 57 340 57 256 q 83 492 57 425 q 155 604 110 558 q 258 674 200 650 q 381 699 317 699 q 503 674 444 699 q 607 604 563 650 q 678 492 651 558 q 706 340 706 425 q 678 189 706 256 q 607 76 651 122 q 503 7 563 31 q 381 -17 444 -17 m 381 114 q 499 176 456 114 q 542 340 542 238 q 499 506 542 444 q 381 568 456 568 q 263 506 306 568 q 221 340 221 444 q 263 176 221 238 q 381 114 306 114 m 186 828 l 186 933 l 575 933 l 575 828 l 186 828 z "},"ő":{"ha":763,"x_min":57,"x_max":706,"o":"m 381 -17 q 258 7 317 -17 q 155 76 200 31 q 83 189 110 122 q 57 340 57 256 q 83 492 57 425 q 155 604 110 558 q 258 674 200 650 q 381 699 317 699 q 503 674 444 699 q 607 604 563 650 q 678 492 651 558 q 706 340 706 425 q 678 189 706 256 q 607 76 651 122 q 503 7 563 31 q 381 -17 444 -17 m 381 114 q 499 176 456 114 q 542 340 542 238 q 499 506 542 444 q 381 568 456 568 q 263 506 306 568 q 221 340 221 444 q 263 176 221 238 q 381 114 306 114 m 310 786 l 224 825 l 344 1071 l 454 1021 l 310 786 m 539 786 l 453 825 l 574 1071 l 683 1021 l 539 786 z "},"ǒ":{"ha":763,"x_min":57,"x_max":706,"o":"m 381 -17 q 258 7 317 -17 q 155 76 200 31 q 83 189 110 122 q 57 340 57 256 q 83 492 57 425 q 155 604 110 558 q 258 674 200 650 q 381 699 317 699 q 503 674 444 699 q 607 604 563 650 q 678 492 651 558 q 706 340 706 425 q 678 189 706 256 q 607 76 651 122 q 503 7 563 31 q 381 -17 444 -17 m 381 114 q 499 176 456 114 q 542 340 542 238 q 499 506 542 444 q 381 568 456 568 q 263 506 306 568 q 221 340 221 444 q 263 176 221 238 q 381 114 306 114 m 300 800 l 146 988 l 208 1046 l 378 904 l 383 904 l 553 1046 l 615 988 l 461 800 l 300 800 z "},"ọ":{"ha":763,"x_min":57,"x_max":706,"o":"m 381 -17 q 258 7 317 -17 q 155 76 200 31 q 83 189 110 122 q 57 340 57 256 q 83 492 57 425 q 155 604 110 558 q 258 674 200 650 q 381 699 317 699 q 503 674 444 699 q 607 604 563 650 q 678 492 651 558 q 706 340 706 425 q 678 189 706 256 q 607 76 651 122 q 503 7 563 31 q 381 -17 444 -17 m 381 114 q 499 176 456 114 q 542 340 542 238 q 499 506 542 444 q 381 568 456 568 q 263 506 306 568 q 221 340 221 444 q 263 176 221 238 q 381 114 306 114 m 381 -300 q 313 -274 339 -300 q 286 -208 286 -249 q 313 -143 286 -168 q 381 -118 339 -118 q 449 -143 422 -118 q 475 -208 475 -168 q 449 -274 475 -249 q 381 -300 422 -300 z "},"ỏ":{"ha":763,"x_min":57,"x_max":706,"o":"m 381 -17 q 258 7 317 -17 q 155 76 200 31 q 83 189 110 122 q 57 340 57 256 q 83 492 57 425 q 155 604 110 558 q 258 674 200 650 q 381 699 317 699 q 503 674 444 699 q 607 604 563 650 q 678 492 651 558 q 706 340 706 425 q 678 189 706 256 q 607 76 651 122 q 503 7 563 31 q 381 -17 444 -17 m 381 114 q 499 176 456 114 q 542 340 542 238 q 499 506 542 444 q 381 568 456 568 q 263 506 306 568 q 221 340 221 444 q 263 176 221 238 q 381 114 306 114 m 328 792 l 314 860 q 363 879 343 867 q 383 917 383 892 q 357 960 383 944 q 271 978 331 975 l 281 1079 q 451 1037 397 1076 q 504 929 504 997 q 490 872 504 896 q 451 832 475 849 q 394 806 426 815 q 328 792 363 796 z "},"ố":{"ha":763,"x_min":57,"x_max":736,"o":"m 381 -17 q 258 7 317 -17 q 155 76 200 31 q 83 189 110 122 q 57 340 57 256 q 83 492 57 425 q 155 604 110 558 q 258 674 200 650 q 381 699 317 699 q 503 674 444 699 q 607 604 563 650 q 678 492 651 558 q 706 340 706 425 q 678 189 706 256 q 607 76 651 122 q 503 7 563 31 q 381 -17 444 -17 m 381 114 q 499 176 456 114 q 542 340 542 238 q 499 506 542 444 q 381 568 456 568 q 263 506 306 568 q 221 340 221 444 q 263 176 221 238 q 381 114 306 114 m 235 789 l 182 849 l 317 976 l 444 976 l 579 849 l 526 789 l 383 883 l 378 883 l 235 789 m 533 936 l 649 1107 l 736 1047 l 596 885 l 533 936 z "},"ồ":{"ha":763,"x_min":14,"x_max":706,"o":"m 381 -17 q 258 7 317 -17 q 155 76 200 31 q 83 189 110 122 q 57 340 57 256 q 83 492 57 425 q 155 604 110 558 q 258 674 200 650 q 381 699 317 699 q 503 674 444 699 q 607 604 563 650 q 678 492 651 558 q 706 340 706 425 q 678 189 706 256 q 607 76 651 122 q 503 7 563 31 q 381 -17 444 -17 m 381 114 q 499 176 456 114 q 542 340 542 238 q 499 506 542 444 q 381 568 456 568 q 263 506 306 568 q 221 340 221 444 q 263 176 221 238 q 381 114 306 114 m 235 789 l 182 849 l 317 976 l 444 976 l 579 849 l 526 789 l 383 883 l 378 883 l 235 789 m 228 938 l 165 885 l 14 1046 l 101 1107 l 228 938 z "},"ổ":{"ha":763,"x_min":57,"x_max":706,"o":"m 381 -17 q 258 7 317 -17 q 155 76 200 31 q 83 189 110 122 q 57 340 57 256 q 83 492 57 425 q 155 604 110 558 q 258 674 200 650 q 381 699 317 699 q 503 674 444 699 q 607 604 563 650 q 678 492 651 558 q 706 340 706 425 q 678 189 706 256 q 607 76 651 122 q 503 7 563 31 q 381 -17 444 -17 m 381 114 q 499 176 456 114 q 542 340 542 238 q 499 506 542 444 q 381 568 456 568 q 263 506 306 568 q 221 340 221 444 q 263 176 221 238 q 381 114 306 114 m 235 789 l 182 849 l 317 976 l 444 976 l 579 849 l 526 789 l 383 883 l 378 883 l 235 789 m 557 889 l 544 947 q 581 965 567 954 q 594 994 594 975 q 574 1031 594 1018 q 501 1046 554 1043 l 515 1118 q 658 1088 614 1115 q 703 1011 703 1060 q 691 960 703 981 q 659 925 679 939 q 613 903 639 911 q 557 889 586 894 z "},"ỗ":{"ha":763,"x_min":57,"x_max":706,"o":"m 381 -17 q 258 7 317 -17 q 155 76 200 31 q 83 189 110 122 q 57 340 57 256 q 83 492 57 425 q 155 604 110 558 q 258 674 200 650 q 381 699 317 699 q 503 674 444 699 q 607 604 563 650 q 678 492 651 558 q 706 340 706 425 q 678 189 706 256 q 607 76 651 122 q 503 7 563 31 q 381 -17 444 -17 m 381 114 q 499 176 456 114 q 542 340 542 238 q 499 506 542 444 q 381 568 456 568 q 263 506 306 568 q 221 340 221 444 q 263 176 221 238 q 381 114 306 114 m 235 789 l 182 849 l 317 968 l 444 968 l 579 849 l 526 789 l 383 875 l 378 875 l 235 789 m 183 1001 q 217 1104 190 1068 q 294 1140 244 1140 q 347 1131 324 1140 q 388 1111 369 1122 q 424 1091 407 1100 q 458 1082 440 1082 q 501 1138 492 1082 l 578 1129 q 544 1026 571 1063 q 467 990 517 990 q 415 999 438 990 q 373 1019 392 1008 q 338 1040 354 1031 q 303 1049 321 1049 q 260 993 269 1049 l 183 1001 z "},"ộ":{"ha":763,"x_min":57,"x_max":706,"o":"m 381 -17 q 258 7 317 -17 q 155 76 200 31 q 83 189 110 122 q 57 340 57 256 q 83 492 57 425 q 155 604 110 558 q 258 674 200 650 q 381 699 317 699 q 503 674 444 699 q 607 604 563 650 q 678 492 651 558 q 706 340 706 425 q 678 189 706 256 q 607 76 651 122 q 503 7 563 31 q 381 -17 444 -17 m 381 114 q 499 176 456 114 q 542 340 542 238 q 499 506 542 444 q 381 568 456 568 q 263 506 306 568 q 221 340 221 444 q 263 176 221 238 q 381 114 306 114 m 146 843 l 300 1031 l 461 1031 l 615 843 l 553 783 l 383 926 l 378 926 l 208 783 l 146 843 m 381 -300 q 313 -274 339 -300 q 286 -208 286 -249 q 313 -143 286 -168 q 381 -118 339 -118 q 449 -143 422 -118 q 475 -208 475 -168 q 449 -274 475 -249 q 381 -300 422 -300 z "},"ŏ":{"ha":763,"x_min":57,"x_max":706,"o":"m 381 -17 q 258 7 317 -17 q 155 76 200 31 q 83 189 110 122 q 57 340 57 256 q 83 492 57 425 q 155 604 110 558 q 258 674 200 650 q 381 699 317 699 q 503 674 444 699 q 607 604 563 650 q 678 492 651 558 q 706 340 706 425 q 678 189 706 256 q 607 76 651 122 q 503 7 563 31 q 381 -17 444 -17 m 381 114 q 499 176 456 114 q 542 340 542 238 q 499 506 542 444 q 381 568 456 568 q 263 506 306 568 q 221 340 221 444 q 263 176 221 238 q 381 114 306 114 m 381 793 q 281 810 322 793 q 212 858 239 828 q 171 926 185 888 q 154 1008 157 965 l 249 1024 q 262 976 253 999 q 288 935 271 953 q 327 907 304 918 q 381 896 350 896 q 434 907 411 896 q 474 935 457 918 q 499 976 490 953 q 513 1024 508 999 l 607 1008 q 590 926 604 965 q 549 858 576 888 q 481 810 522 828 q 381 793 439 793 z "},"ṓ":{"ha":763,"x_min":57,"x_max":706,"o":"m 381 -17 q 258 7 317 -17 q 155 76 200 31 q 83 189 110 122 q 57 340 57 256 q 83 492 57 425 q 155 604 110 558 q 258 674 200 650 q 381 699 317 699 q 503 674 444 699 q 607 604 563 650 q 678 492 651 558 q 706 340 706 425 q 678 189 706 256 q 607 76 651 122 q 503 7 563 31 q 381 -17 444 -17 m 381 114 q 499 176 456 114 q 542 340 542 238 q 499 506 542 444 q 381 568 456 568 q 263 506 306 568 q 221 340 221 444 q 263 176 221 238 q 381 114 306 114 m 338 985 l 281 1053 l 475 1196 l 543 1110 l 338 985 m 186 828 l 186 933 l 575 933 l 575 828 l 186 828 z "},"ø":{"ha":763,"x_min":57,"x_max":706,"o":"m 381 -17 q 281 -1 329 -17 q 192 44 232 14 l 128 -33 l 64 17 l 133 101 q 77 206 97 146 q 57 340 57 265 q 83 492 57 425 q 155 604 110 558 q 258 674 200 650 q 381 699 317 699 q 569 638 488 699 l 635 717 l 699 667 l 629 581 q 685 476 665 536 q 706 340 706 415 q 678 189 706 256 q 607 76 651 122 q 503 7 563 31 q 381 -17 444 -17 m 213 349 q 232 222 213 276 l 485 533 q 381 574 442 574 q 259 511 306 574 q 213 349 213 449 m 381 108 q 503 170 456 108 q 550 332 550 232 q 531 460 550 406 l 276 150 q 381 108 318 108 z "},"œ":{"ha":1153,"x_min":57,"x_max":1103,"o":"m 369 -17 q 249 7 306 -17 q 149 76 192 31 q 82 189 107 122 q 57 340 57 256 q 83 492 57 425 q 151 604 108 558 q 251 674 194 650 q 372 699 308 699 q 508 661 447 699 q 606 554 568 624 q 706 660 646 622 q 833 699 765 699 q 949 674 899 699 q 1034 607 1000 650 q 1085 503 1068 564 q 1103 372 1103 443 q 1101 329 1103 349 q 1096 297 1099 310 l 675 297 q 736 160 683 208 q 864 111 789 111 q 945 126 908 111 q 1019 164 982 140 l 1076 57 q 968 4 1028 25 q 842 -17 908 -17 q 710 22 771 -17 q 608 128 649 60 q 508 20 567 57 q 369 -17 449 -17 m 372 114 q 485 176 443 114 q 526 340 526 238 q 485 506 526 444 q 372 568 443 568 q 261 506 303 568 q 219 340 219 444 q 261 176 219 238 q 372 114 303 114 m 675 399 l 964 399 q 930 528 964 482 q 829 575 896 575 q 727 529 769 575 q 675 399 685 483 z "},"ơ":{"ha":763,"x_min":57,"x_max":757,"o":"m 381 -17 q 258 7 317 -17 q 155 76 200 31 q 83 189 110 122 q 57 340 57 256 q 83 492 57 425 q 155 604 110 558 q 258 674 200 650 q 381 699 317 699 q 514 669 451 699 q 592 710 564 681 q 621 799 621 740 q 615 841 621 821 q 600 876 608 861 l 719 931 q 746 876 735 908 q 757 810 757 844 q 744 735 757 768 q 708 679 731 703 q 657 640 686 656 q 597 614 628 624 q 676 499 646 568 q 706 340 706 431 q 678 189 706 256 q 607 76 651 122 q 503 7 563 31 q 381 -17 444 -17 m 381 114 q 499 176 456 114 q 542 340 542 238 q 499 506 542 444 q 381 568 456 568 q 263 506 306 568 q 221 340 221 444 q 263 176 221 238 q 381 114 306 114 z "},"ớ":{"ha":763,"x_min":57,"x_max":757,"o":"m 381 -17 q 258 7 317 -17 q 155 76 200 31 q 83 189 110 122 q 57 340 57 256 q 83 492 57 425 q 155 604 110 558 q 258 674 200 650 q 381 699 317 699 q 514 669 451 699 q 592 710 564 681 q 621 799 621 740 q 615 841 621 821 q 600 876 608 861 l 719 931 q 746 876 735 908 q 757 810 757 844 q 744 735 757 768 q 708 679 731 703 q 657 640 686 656 q 597 614 628 624 q 676 499 646 568 q 706 340 706 431 q 678 189 706 256 q 607 76 651 122 q 503 7 563 31 q 381 -17 444 -17 m 381 114 q 499 176 456 114 q 542 340 542 238 q 499 506 542 444 q 381 568 456 568 q 263 506 306 568 q 221 340 221 444 q 263 176 221 238 q 381 114 306 114 m 378 796 l 299 875 l 503 1117 l 614 1011 l 378 796 z "},"ờ":{"ha":763,"x_min":57,"x_max":757,"o":"m 381 -17 q 258 7 317 -17 q 155 76 200 31 q 83 189 110 122 q 57 340 57 256 q 83 492 57 425 q 155 604 110 558 q 258 674 200 650 q 381 699 317 699 q 514 669 451 699 q 592 710 564 681 q 621 799 621 740 q 615 841 621 821 q 600 876 608 861 l 719 931 q 746 876 735 908 q 757 810 757 844 q 744 735 757 768 q 708 679 731 703 q 657 640 686 656 q 597 614 628 624 q 676 499 646 568 q 706 340 706 431 q 678 189 706 256 q 607 76 651 122 q 503 7 563 31 q 381 -17 444 -17 m 381 114 q 499 176 456 114 q 542 340 542 238 q 499 506 542 444 q 381 568 456 568 q 263 506 306 568 q 221 340 221 444 q 263 176 221 238 q 381 114 306 114 m 383 796 l 147 1011 l 258 1117 l 463 875 l 383 796 z "}}}
